<svg width="163" height="37" viewBox="0 0 163 37" fill="none" xmlns="http://www.w3.org/2000/svg">
<path d="M0 32.6534H24.5039M24.5039 32.6534H48.5039M24.5039 32.6534V3.61914M24.5039 32.6534L41.4531 12.0651M24.5039 32.6534L7.55475 12.0651" stroke="white" stroke-width="7.5"/>
<path d="M78.8008 27.1367V9.67578H85.3516C86.6953 9.67578 87.8203 9.91016 88.7266 10.3789C89.6406 10.8477 90.332 11.5039 90.8008 12.3477C91.2695 13.1836 91.5039 14.1562 91.5039 15.2656C91.5039 16.3828 91.2656 17.3516 90.7891 18.1719C90.3203 18.9922 89.625 19.625 88.7031 20.0703C87.7812 20.5156 86.6484 20.7383 85.3047 20.7383H80.6523V18.125H84.8711C85.6602 18.125 86.3047 18.0156 86.8047 17.7969C87.3125 17.5781 87.6836 17.2578 87.918 16.8359C88.1602 16.4062 88.2812 15.8828 88.2812 15.2656C88.2812 14.6484 88.1602 14.1211 87.918 13.6836C87.6758 13.2383 87.3047 12.9023 86.8047 12.6758C86.3047 12.4414 85.6562 12.3242 84.8594 12.3242H81.9648V27.1367H78.8008ZM88.6094 27.1367L84.3789 19.2148H87.8242L92.1484 27.1367H88.6094ZM99.0039 27.3945C97.6914 27.3945 96.5586 27.1211 95.6055 26.5742C94.6523 26.0195 93.918 25.2383 93.4023 24.2305C92.8945 23.2227 92.6406 22.0352 92.6406 20.668C92.6406 19.3164 92.8945 18.1328 93.4023 17.1172C93.9102 16.0938 94.625 15.2969 95.5469 14.7266C96.4688 14.1562 97.5547 13.8711 98.8047 13.8711C99.6094 13.8711 100.371 14 101.09 14.2578C101.816 14.5156 102.457 14.9141 103.012 15.4531C103.574 15.9922 104.016 16.6797 104.336 17.5156C104.656 18.3438 104.816 19.332 104.816 20.4805V21.4414H94.082V19.3672H103.281L101.84 19.9766C101.84 19.2344 101.727 18.5898 101.5 18.043C101.273 17.4883 100.938 17.0547 100.492 16.7422C100.047 16.4297 99.4922 16.2734 98.8281 16.2734C98.1641 16.2734 97.5977 16.4297 97.1289 16.7422C96.6602 17.0547 96.3047 17.4766 96.0625 18.0078C95.8203 18.5312 95.6992 19.1172 95.6992 19.7656V21.207C95.6992 22.0039 95.8359 22.6875 96.1094 23.2578C96.3906 23.8203 96.7812 24.25 97.2812 24.5469C97.7891 24.8438 98.3789 24.9922 99.0508 24.9922C99.4883 24.9922 99.8867 24.9297 100.246 24.8047C100.613 24.6797 100.926 24.4922 101.184 24.2422C101.449 23.9844 101.652 23.668 101.793 23.293L104.676 23.6328C104.488 24.3906 104.141 25.0547 103.633 25.625C103.133 26.1875 102.488 26.625 101.699 26.9375C100.918 27.2422 100.02 27.3945 99.0039 27.3945ZM116.828 17.5156L114.027 17.8086C113.91 17.3789 113.656 17 113.266 16.6719C112.875 16.3359 112.324 16.168 111.613 16.168C110.973 16.168 110.434 16.3086 109.996 16.5898C109.566 16.8711 109.352 17.2305 109.352 17.668C109.352 18.0508 109.492 18.3672 109.773 18.6172C110.062 18.8594 110.539 19.0547 111.203 19.2031L113.441 19.6719C114.668 19.9297 115.586 20.3516 116.195 20.9375C116.805 21.5234 117.109 22.2812 117.109 23.2109C117.109 24.0312 116.871 24.7578 116.395 25.3906C115.918 26.0234 115.258 26.5156 114.414 26.8672C113.578 27.2188 112.613 27.3945 111.52 27.3945C109.918 27.3945 108.629 27.0586 107.652 26.3867C106.684 25.707 106.102 24.7656 105.906 23.5625L108.918 23.2812C109.051 23.8672 109.34 24.3125 109.785 24.6172C110.238 24.9141 110.816 25.0625 111.52 25.0625C112.254 25.0625 112.844 24.9141 113.289 24.6172C113.734 24.3125 113.957 23.9414 113.957 23.5039C113.957 22.7695 113.371 22.2695 112.199 22.0039L109.961 21.5352C108.703 21.2617 107.773 20.8203 107.172 20.2109C106.57 19.5938 106.27 18.8086 106.27 17.8555C106.27 17.043 106.492 16.3398 106.938 15.7461C107.383 15.1523 108.004 14.6914 108.801 14.3633C109.598 14.0352 110.52 13.8711 111.566 13.8711C113.105 13.8711 114.312 14.2031 115.188 14.8672C116.07 15.5234 116.617 16.4062 116.828 17.5156ZM124.48 27.3945C123.199 27.3945 122.09 27.1133 121.152 26.5508C120.215 25.9883 119.488 25.1992 118.973 24.1836C118.465 23.168 118.211 21.9883 118.211 20.6445C118.211 19.293 118.465 18.1094 118.973 17.0938C119.488 16.0703 120.215 15.2773 121.152 14.7148C122.09 14.1523 123.199 13.8711 124.48 13.8711C125.762 13.8711 126.871 14.1523 127.809 14.7148C128.746 15.2773 129.473 16.0703 129.988 17.0938C130.504 18.1094 130.762 19.293 130.762 20.6445C130.762 21.9883 130.504 23.168 129.988 24.1836C129.473 25.1992 128.746 25.9883 127.809 26.5508C126.871 27.1133 125.762 27.3945 124.48 27.3945ZM124.48 24.9102C125.191 24.9102 125.777 24.7227 126.238 24.3477C126.699 23.9648 127.043 23.4492 127.27 22.8008C127.504 22.1523 127.621 21.4336 127.621 20.6445C127.621 19.8398 127.504 19.1133 127.27 18.4648C127.043 17.8164 126.699 17.3047 126.238 16.9297C125.777 16.5469 125.191 16.3555 124.48 16.3555C123.785 16.3555 123.203 16.5469 122.734 16.9297C122.266 17.3047 121.914 17.8164 121.68 18.4648C121.453 19.1133 121.34 19.8398 121.34 20.6445C121.34 21.4336 121.453 22.1523 121.68 22.8008C121.914 23.4492 122.266 23.9648 122.734 24.3477C123.203 24.7227 123.785 24.9102 124.48 24.9102ZM135.543 9.67578V27.1367H132.461V9.67578H135.543ZM149.523 14.0352L144.859 27.1367H141.438L136.785 14.0352H140.078L143.113 23.7734H143.254L146.266 14.0352H149.523ZM156.121 27.3945C154.809 27.3945 153.676 27.1211 152.723 26.5742C151.77 26.0195 151.035 25.2383 150.52 24.2305C150.012 23.2227 149.758 22.0352 149.758 20.668C149.758 19.3164 150.012 18.1328 150.52 17.1172C151.027 16.0938 151.742 15.2969 152.664 14.7266C153.586 14.1562 154.672 13.8711 155.922 13.8711C156.727 13.8711 157.488 14 158.207 14.2578C158.934 14.5156 159.574 14.9141 160.129 15.4531C160.691 15.9922 161.133 16.6797 161.453 17.5156C161.773 18.3438 161.934 19.332 161.934 20.4805V21.4414H151.199V19.3672H160.398L158.957 19.9766C158.957 19.2344 158.844 18.5898 158.617 18.043C158.391 17.4883 158.055 17.0547 157.609 16.7422C157.164 16.4297 156.609 16.2734 155.945 16.2734C155.281 16.2734 154.715 16.4297 154.246 16.7422C153.777 17.0547 153.422 17.4766 153.18 18.0078C152.938 18.5312 152.816 19.1172 152.816 19.7656V21.207C152.816 22.0039 152.953 22.6875 153.227 23.2578C153.508 23.8203 153.898 24.25 154.398 24.5469C154.906 24.8438 155.496 24.9922 156.168 24.9922C156.605 24.9922 157.004 24.9297 157.363 24.8047C157.73 24.6797 158.043 24.4922 158.301 24.2422C158.566 23.9844 158.77 23.668 158.91 23.293L161.793 23.6328C161.605 24.3906 161.258 25.0547 160.75 25.625C160.25 26.1875 159.605 26.625 158.816 26.9375C158.035 27.2422 157.137 27.3945 156.121 27.3945Z" fill="white"/>
</svg>
