<svg width="580" height="267" viewBox="0 0 580 267" fill="none" xmlns="http://www.w3.org/2000/svg">
<g clip-path="url(#clip0_13042_1336)">
<rect x="12" y="0.0683594" width="536" height="266" rx="24" fill="white"/>
<mask id="path-3-inside-1_13042_1336" fill="white">
<path d="M12 24.0684C12 10.8135 22.7452 0.0683594 36 0.0683594H524C537.255 0.0683594 548 10.8135 548 24.0684V55.0684H12V24.0684Z"/>
</mask>
<path d="M12 24.0684C12 10.8135 22.7452 0.0683594 36 0.0683594H524C537.255 0.0683594 548 10.8135 548 24.0684V55.0684H12V24.0684Z" fill="#F6F6F6"/>
<path d="M12 0.0683594H548H12ZM548 56.0684H12V54.0684H548V56.0684ZM12 55.0684V0.0683594V55.0684ZM548 0.0683594V55.0684V0.0683594Z" fill="#CCCCCC" mask="url(#path-3-inside-1_13042_1336)"/>
<path d="M34 34.1707H46.252M46.252 34.1707H58.252M46.252 34.1707V20.0684M46.252 34.1707L54.7265 24.1707M46.252 34.1707L37.7774 24.1707" stroke="#121212" stroke-width="3.75"/>
<path d="M67.2832 33.1195V21.4789H71.6504C72.5462 21.4789 73.2962 21.6352 73.9004 21.9477C74.5098 22.2602 74.9707 22.6977 75.2832 23.2602C75.5957 23.8175 75.752 24.4659 75.752 25.2055C75.752 25.9503 75.5931 26.5961 75.2754 27.143C74.9629 27.6898 74.4993 28.1117 73.8848 28.4086C73.2702 28.7055 72.515 28.8539 71.6191 28.8539H68.5176V27.1117H71.3301C71.8561 27.1117 72.2858 27.0388 72.6191 26.893C72.9577 26.7471 73.2051 26.5336 73.3613 26.2523C73.5228 25.9659 73.6035 25.6169 73.6035 25.2055C73.6035 24.794 73.5228 24.4425 73.3613 24.1508C73.1999 23.8539 72.9525 23.63 72.6191 23.4789C72.2858 23.3227 71.8535 23.2445 71.3223 23.2445H69.3926V33.1195H67.2832ZM73.8223 33.1195L71.002 27.8383H73.2988L76.1816 33.1195H73.8223ZM80.752 33.2914C79.877 33.2914 79.1217 33.1091 78.4863 32.7445C77.8509 32.3747 77.3613 31.8539 77.0176 31.182C76.679 30.5102 76.5098 29.7185 76.5098 28.807C76.5098 27.906 76.679 27.1169 77.0176 26.4398C77.3561 25.7576 77.8327 25.2263 78.4473 24.8461C79.0618 24.4659 79.7858 24.2758 80.6191 24.2758C81.1556 24.2758 81.6634 24.3617 82.1426 24.5336C82.627 24.7055 83.054 24.9711 83.4238 25.3305C83.7988 25.6898 84.0931 26.1482 84.3066 26.7055C84.5202 27.2576 84.627 27.9164 84.627 28.682V29.3227H77.4707V27.9398H83.6035L82.6426 28.3461C82.6426 27.8513 82.5671 27.4216 82.416 27.057C82.265 26.6872 82.041 26.3982 81.7441 26.1898C81.4473 25.9815 81.0775 25.8773 80.6348 25.8773C80.1921 25.8773 79.8145 25.9815 79.502 26.1898C79.1895 26.3982 78.9525 26.6794 78.791 27.0336C78.6296 27.3826 78.5488 27.7732 78.5488 28.2055V29.1664C78.5488 29.6977 78.64 30.1534 78.8223 30.5336C79.0098 30.9086 79.2702 31.1951 79.6035 31.393C79.9421 31.5909 80.3353 31.6898 80.7832 31.6898C81.0749 31.6898 81.3405 31.6482 81.5801 31.5648C81.8249 31.4815 82.0332 31.3565 82.2051 31.1898C82.3822 31.018 82.5176 30.807 82.6113 30.557L84.5332 30.7836C84.4082 31.2888 84.1764 31.7315 83.8379 32.1117C83.5046 32.4867 83.0749 32.7784 82.5488 32.9867C82.028 33.1898 81.429 33.2914 80.752 33.2914ZM92.6348 26.7055L90.7676 26.9008C90.6895 26.6143 90.5202 26.3617 90.2598 26.143C89.9993 25.919 89.6322 25.807 89.1582 25.807C88.7311 25.807 88.3717 25.9008 88.0801 26.0883C87.7936 26.2758 87.6504 26.5154 87.6504 26.807C87.6504 27.0622 87.7441 27.2732 87.9316 27.4398C88.1243 27.6013 88.4421 27.7315 88.8848 27.8305L90.377 28.143C91.1947 28.3148 91.8066 28.5961 92.2129 28.9867C92.6191 29.3773 92.8223 29.8826 92.8223 30.5023C92.8223 31.0492 92.6634 31.5336 92.3457 31.9555C92.028 32.3773 91.5879 32.7055 91.0254 32.9398C90.4681 33.1742 89.8249 33.2914 89.0957 33.2914C88.028 33.2914 87.1686 33.0675 86.5176 32.6195C85.8717 32.1664 85.4837 31.5388 85.3535 30.7367L87.3613 30.5492C87.4499 30.9398 87.6426 31.2367 87.9395 31.4398C88.2415 31.6378 88.627 31.7367 89.0957 31.7367C89.5853 31.7367 89.9785 31.6378 90.2754 31.4398C90.5723 31.2367 90.7207 30.9893 90.7207 30.6977C90.7207 30.2081 90.3301 29.8747 89.5488 29.6977L88.0566 29.3852C87.2181 29.2029 86.5983 28.9086 86.1973 28.5023C85.7962 28.0909 85.5957 27.5675 85.5957 26.932C85.5957 26.3904 85.7441 25.9216 86.041 25.5258C86.3379 25.13 86.752 24.8227 87.2832 24.6039C87.8145 24.3852 88.429 24.2758 89.127 24.2758C90.153 24.2758 90.9577 24.4971 91.541 24.9398C92.1296 25.3773 92.4941 25.9659 92.6348 26.7055ZM97.7363 33.2914C96.8822 33.2914 96.1426 33.1039 95.5176 32.7289C94.8926 32.3539 94.4082 31.8279 94.0645 31.1508C93.7259 30.4737 93.5566 29.6872 93.5566 28.7914C93.5566 27.8904 93.7259 27.1013 94.0645 26.4242C94.4082 25.7419 94.8926 25.2133 95.5176 24.8383C96.1426 24.4633 96.8822 24.2758 97.7363 24.2758C98.5905 24.2758 99.3301 24.4633 99.9551 24.8383C100.58 25.2133 101.064 25.7419 101.408 26.4242C101.752 27.1013 101.924 27.8904 101.924 28.7914C101.924 29.6872 101.752 30.4737 101.408 31.1508C101.064 31.8279 100.58 32.3539 99.9551 32.7289C99.3301 33.1039 98.5905 33.2914 97.7363 33.2914ZM97.7363 31.6352C98.2103 31.6352 98.6009 31.5102 98.9082 31.2602C99.2155 31.005 99.4447 30.6612 99.5957 30.2289C99.752 29.7966 99.8301 29.3175 99.8301 28.7914C99.8301 28.255 99.752 27.7706 99.5957 27.3383C99.4447 26.906 99.2155 26.5648 98.9082 26.3148C98.6009 26.0596 98.2103 25.932 97.7363 25.932C97.2728 25.932 96.8848 26.0596 96.5723 26.3148C96.2598 26.5648 96.0254 26.906 95.8691 27.3383C95.7181 27.7706 95.6426 28.255 95.6426 28.7914C95.6426 29.3175 95.7181 29.7966 95.8691 30.2289C96.0254 30.6612 96.2598 31.005 96.5723 31.2602C96.8848 31.5102 97.2728 31.6352 97.7363 31.6352ZM105.111 21.4789V33.1195H103.057V21.4789H105.111ZM114.432 24.3852L111.322 33.1195H109.041L105.939 24.3852H108.135L110.158 30.8773H110.252L112.26 24.3852H114.432ZM118.83 33.2914C117.955 33.2914 117.2 33.1091 116.564 32.7445C115.929 32.3747 115.439 31.8539 115.096 31.182C114.757 30.5102 114.588 29.7185 114.588 28.807C114.588 27.906 114.757 27.1169 115.096 26.4398C115.434 25.7576 115.911 25.2263 116.525 24.8461C117.14 24.4659 117.864 24.2758 118.697 24.2758C119.234 24.2758 119.742 24.3617 120.221 24.5336C120.705 24.7055 121.132 24.9711 121.502 25.3305C121.877 25.6898 122.171 26.1482 122.385 26.7055C122.598 27.2576 122.705 27.9164 122.705 28.682V29.3227H115.549V27.9398H121.682L120.721 28.3461C120.721 27.8513 120.645 27.4216 120.494 27.057C120.343 26.6872 120.119 26.3982 119.822 26.1898C119.525 25.9815 119.156 25.8773 118.713 25.8773C118.27 25.8773 117.893 25.9815 117.58 26.1898C117.268 26.3982 117.031 26.6794 116.869 27.0336C116.708 27.3826 116.627 27.7732 116.627 28.2055V29.1664C116.627 29.6977 116.718 30.1534 116.9 30.5336C117.088 30.9086 117.348 31.1951 117.682 31.393C118.02 31.5909 118.413 31.6898 118.861 31.6898C119.153 31.6898 119.419 31.6482 119.658 31.5648C119.903 31.4815 120.111 31.3565 120.283 31.1898C120.46 31.018 120.596 30.807 120.689 30.557L122.611 30.7836C122.486 31.2888 122.255 31.7315 121.916 32.1117C121.583 32.4867 121.153 32.7784 120.627 32.9867C120.106 33.1898 119.507 33.2914 118.83 33.2914Z" fill="#121212"/>
<mask id="path-7-inside-2_13042_1336" fill="white">
<path d="M26 167.068C26 160.441 31.3726 155.068 38 155.068H265C271.627 155.068 277 160.441 277 167.068V266.068H26V167.068Z"/>
</mask>
<path d="M26 167.068C26 160.441 31.3726 155.068 38 155.068H265C271.627 155.068 277 160.441 277 167.068V266.068H26V167.068Z" fill="white"/>
<path d="M25 167.068C25 159.889 30.8203 154.068 38 154.068H265C272.18 154.068 278 159.889 278 167.068H276C276 160.993 271.075 156.068 265 156.068H38C31.9249 156.068 27 160.993 27 167.068H25ZM277 266.068H26H277ZM25 266.068V167.068C25 159.889 30.8203 154.068 38 154.068V156.068C31.9249 156.068 27 160.993 27 167.068V266.068H25ZM265 154.068C272.18 154.068 278 159.889 278 167.068V266.068H276V167.068C276 160.993 271.075 156.068 265 156.068V154.068Z" fill="#E6E6E6" mask="url(#path-7-inside-2_13042_1336)"/>
<mask id="path-9-inside-3_13042_1336" fill="white">
<path d="M287 167.068C287 160.441 292.373 155.068 299 155.068H526C532.627 155.068 538 160.441 538 167.068V266.068H287V167.068Z"/>
</mask>
<path d="M287 167.068C287 160.441 292.373 155.068 299 155.068H526C532.627 155.068 538 160.441 538 167.068V266.068H287V167.068Z" fill="white"/>
<path d="M286 167.068C286 159.889 291.82 154.068 299 154.068H526C533.18 154.068 539 159.889 539 167.068H537C537 160.993 532.075 156.068 526 156.068H299C292.925 156.068 288 160.993 288 167.068H286ZM538 266.068H287H538ZM286 266.068V167.068C286 159.889 291.82 154.068 299 154.068V156.068C292.925 156.068 288 160.993 288 167.068V266.068H286ZM526 154.068C533.18 154.068 539 159.889 539 167.068V266.068H537V167.068C537 160.993 532.075 156.068 526 156.068V154.068Z" fill="#E6E6E6" mask="url(#path-9-inside-3_13042_1336)"/>
</g>
<rect x="12.5" y="0.568359" width="535" height="265" rx="23.5" stroke="#CCCCCC"/>
<g filter="url(#filter0_d_13042_1336)">
<rect x="22" y="65" width="516" height="80" rx="12" fill="white"/>
<rect x="22.5" y="65.5" width="515" height="79" rx="11.5" stroke="#E6E6E6"/>
<path fill-rule="evenodd" clip-rule="evenodd" d="M49 95C44.0294 95 40 99.0294 40 104C40 108.971 44.0294 113 49 113C51.125 113 53.078 112.264 54.6177 111.032L58.2929 114.707C58.6834 115.098 59.3166 115.098 59.7071 114.707C60.0976 114.317 60.0976 113.683 59.7071 113.293L56.0319 109.618C57.2635 108.078 58 106.125 58 104C58 99.0294 53.9706 95 49 95ZM42 104C42 100.134 45.134 97 49 97C52.866 97 56 100.134 56 104C56 107.866 52.866 111 49 111C45.134 111 42 107.866 42 104Z" fill="#D0D5DD"/>
<path d="M88.3643 111.5H86.2637L90.9746 98.4043H93.2598L97.9619 111.5H95.8701L92.1611 100.786H92.0557L88.3643 111.5ZM88.7158 106.376H95.5098V108.028H88.7158V106.376ZM106.197 104.082L104.466 104.381C104.354 104.053 104.146 103.751 103.842 103.476C103.543 103.2 103.095 103.062 102.497 103.062C101.958 103.062 101.507 103.186 101.144 103.432C100.786 103.672 100.607 103.979 100.607 104.354C100.607 104.683 100.728 104.949 100.968 105.154C101.214 105.359 101.604 105.523 102.137 105.646L103.71 105.998C104.606 106.203 105.277 106.525 105.723 106.965C106.168 107.404 106.391 107.967 106.391 108.652C106.391 109.244 106.221 109.771 105.881 110.234C105.541 110.691 105.069 111.052 104.466 111.315C103.862 111.573 103.165 111.702 102.374 111.702C101.272 111.702 100.376 111.465 99.6846 110.99C98.9932 110.516 98.5684 109.848 98.4102 108.986L100.247 108.705C100.364 109.186 100.602 109.549 100.959 109.795C101.322 110.041 101.791 110.164 102.365 110.164C102.986 110.164 103.484 110.032 103.859 109.769C104.24 109.505 104.431 109.186 104.431 108.811C104.431 108.189 103.968 107.771 103.042 107.554L101.381 107.185C100.461 106.974 99.7812 106.643 99.3418 106.191C98.9082 105.734 98.6914 105.16 98.6914 104.469C98.6914 103.889 98.8525 103.379 99.1748 102.939C99.5029 102.5 99.9512 102.16 100.52 101.92C101.094 101.674 101.747 101.551 102.479 101.551C103.546 101.551 104.381 101.782 104.984 102.245C105.594 102.708 105.998 103.32 106.197 104.082ZM109.484 108.169L109.458 105.84H109.801L113.712 101.674H115.997L111.541 106.42H111.225L109.484 108.169ZM107.727 111.5V98.4043H109.625V111.5H107.727ZM113.914 111.5L110.398 106.842L111.717 105.497L116.27 111.5H113.914ZM121.139 111.5V98.4043H125.814C126.828 98.4043 127.669 98.5801 128.337 98.9316C129.005 99.2773 129.506 99.7607 129.84 100.382C130.174 100.997 130.341 101.709 130.341 102.518C130.341 103.314 130.174 104.018 129.84 104.627C129.506 105.236 129.002 105.708 128.328 106.042C127.66 106.376 126.816 106.543 125.797 106.543H122.272V104.855H125.612C126.263 104.855 126.787 104.762 127.186 104.574C127.59 104.387 127.883 104.12 128.064 103.774C128.252 103.429 128.346 103.01 128.346 102.518C128.346 102.02 128.252 101.592 128.064 101.234C127.877 100.871 127.581 100.593 127.177 100.399C126.778 100.2 126.254 100.101 125.604 100.101H123.116V111.5H121.139ZM128.592 111.5L125.419 105.585H127.607L130.842 111.5H128.592ZM135.966 111.702C135.005 111.702 134.173 111.494 133.47 111.078C132.767 110.662 132.225 110.076 131.844 109.32C131.469 108.559 131.281 107.671 131.281 106.657C131.281 105.649 131.466 104.762 131.835 103.994C132.21 103.227 132.734 102.629 133.408 102.201C134.088 101.768 134.885 101.551 135.799 101.551C136.355 101.551 136.895 101.642 137.416 101.823C137.938 102.005 138.406 102.292 138.822 102.685C139.238 103.077 139.566 103.587 139.807 104.214C140.053 104.841 140.176 105.597 140.176 106.481V107.167H132.362V105.734H139.191L138.304 106.209C138.304 105.605 138.21 105.072 138.022 104.609C137.835 104.146 137.554 103.786 137.179 103.528C136.81 103.265 136.35 103.133 135.799 103.133C135.248 103.133 134.776 103.265 134.384 103.528C133.997 103.792 133.701 104.141 133.496 104.574C133.291 105.008 133.188 105.482 133.188 105.998V106.974C133.188 107.647 133.306 108.219 133.54 108.688C133.774 109.156 134.1 109.514 134.516 109.76C134.938 110.006 135.427 110.129 135.983 110.129C136.347 110.129 136.675 110.076 136.968 109.971C137.267 109.865 137.524 109.707 137.741 109.496C137.958 109.285 138.122 109.024 138.233 108.714L140.044 109.057C139.897 109.584 139.64 110.047 139.271 110.445C138.901 110.844 138.436 111.154 137.873 111.377C137.316 111.594 136.681 111.702 135.966 111.702ZM148.859 104.082L147.128 104.381C147.017 104.053 146.809 103.751 146.504 103.476C146.205 103.2 145.757 103.062 145.159 103.062C144.62 103.062 144.169 103.186 143.806 103.432C143.448 103.672 143.27 103.979 143.27 104.354C143.27 104.683 143.39 104.949 143.63 105.154C143.876 105.359 144.266 105.523 144.799 105.646L146.372 105.998C147.269 106.203 147.939 106.525 148.385 106.965C148.83 107.404 149.053 107.967 149.053 108.652C149.053 109.244 148.883 109.771 148.543 110.234C148.203 110.691 147.731 111.052 147.128 111.315C146.524 111.573 145.827 111.702 145.036 111.702C143.935 111.702 143.038 111.465 142.347 110.99C141.655 110.516 141.23 109.848 141.072 108.986L142.909 108.705C143.026 109.186 143.264 109.549 143.621 109.795C143.984 110.041 144.453 110.164 145.027 110.164C145.648 110.164 146.146 110.032 146.521 109.769C146.902 109.505 147.093 109.186 147.093 108.811C147.093 108.189 146.63 107.771 145.704 107.554L144.043 107.185C143.123 106.974 142.443 106.643 142.004 106.191C141.57 105.734 141.354 105.16 141.354 104.469C141.354 103.889 141.515 103.379 141.837 102.939C142.165 102.5 142.613 102.16 143.182 101.92C143.756 101.674 144.409 101.551 145.142 101.551C146.208 101.551 147.043 101.782 147.646 102.245C148.256 102.708 148.66 103.32 148.859 104.082ZM154.511 111.702C153.591 111.702 152.785 111.491 152.094 111.069C151.408 110.647 150.875 110.056 150.494 109.294C150.119 108.532 149.932 107.647 149.932 106.64C149.932 105.62 150.119 104.729 150.494 103.968C150.875 103.2 151.408 102.605 152.094 102.184C152.785 101.762 153.591 101.551 154.511 101.551C155.437 101.551 156.242 101.762 156.928 102.184C157.613 102.605 158.146 103.2 158.527 103.968C158.908 104.729 159.099 105.62 159.099 106.64C159.099 107.647 158.908 108.532 158.527 109.294C158.146 110.056 157.613 110.647 156.928 111.069C156.242 111.491 155.437 111.702 154.511 111.702ZM154.511 110.094C155.114 110.094 155.612 109.936 156.005 109.619C156.397 109.303 156.688 108.884 156.875 108.362C157.068 107.835 157.165 107.261 157.165 106.64C157.165 106.007 157.068 105.427 156.875 104.899C156.688 104.372 156.397 103.95 156.005 103.634C155.612 103.317 155.114 103.159 154.511 103.159C153.913 103.159 153.418 103.317 153.025 103.634C152.639 103.95 152.349 104.372 152.155 104.899C151.962 105.427 151.865 106.007 151.865 106.64C151.865 107.261 151.962 107.835 152.155 108.362C152.349 108.884 152.639 109.303 153.025 109.619C153.418 109.936 153.913 110.094 154.511 110.094ZM162.377 98.4043V111.5H160.479V98.4043H162.377ZM172.59 101.674L169.039 111.5H166.982L163.423 101.674H165.471L167.967 109.25H168.072L170.551 101.674H172.59ZM177.521 111.702C176.56 111.702 175.728 111.494 175.024 111.078C174.321 110.662 173.779 110.076 173.398 109.32C173.023 108.559 172.836 107.671 172.836 106.657C172.836 105.649 173.021 104.762 173.39 103.994C173.765 103.227 174.289 102.629 174.963 102.201C175.643 101.768 176.439 101.551 177.354 101.551C177.91 101.551 178.449 101.642 178.971 101.823C179.492 102.005 179.961 102.292 180.377 102.685C180.793 103.077 181.121 103.587 181.361 104.214C181.607 104.841 181.73 105.597 181.73 106.481V107.167H173.917V105.734H180.746L179.858 106.209C179.858 105.605 179.765 105.072 179.577 104.609C179.39 104.146 179.108 103.786 178.733 103.528C178.364 103.265 177.904 103.133 177.354 103.133C176.803 103.133 176.331 103.265 175.938 103.528C175.552 103.792 175.256 104.141 175.051 104.574C174.846 105.008 174.743 105.482 174.743 105.998V106.974C174.743 107.647 174.86 108.219 175.095 108.688C175.329 109.156 175.654 109.514 176.07 109.76C176.492 110.006 176.981 110.129 177.538 110.129C177.901 110.129 178.229 110.076 178.522 109.971C178.821 109.865 179.079 109.707 179.296 109.496C179.513 109.285 179.677 109.024 179.788 108.714L181.599 109.057C181.452 109.584 181.194 110.047 180.825 110.445C180.456 110.844 179.99 111.154 179.428 111.377C178.871 111.594 178.235 111.702 177.521 111.702ZM188.331 111.5H186.23L190.941 98.4043H193.227L197.929 111.5H195.837L192.128 100.786H192.022L188.331 111.5ZM188.683 106.376H195.477V108.028H188.683V106.376ZM198.992 111.5V101.674H200.891V111.5H198.992ZM199.95 100.162C199.616 100.162 199.332 100.051 199.098 99.8281C198.863 99.6055 198.746 99.3389 198.746 99.0283C198.746 98.7119 198.863 98.4424 199.098 98.2197C199.332 97.9971 199.616 97.8857 199.95 97.8857C200.278 97.8857 200.56 97.9971 200.794 98.2197C201.034 98.4424 201.154 98.7119 201.154 99.0283C201.154 99.3389 201.034 99.6055 200.794 99.8281C200.56 100.051 200.278 100.162 199.95 100.162ZM209.574 111.711C208.953 111.711 208.391 111.597 207.887 111.368C207.383 111.134 206.984 110.794 206.691 110.349C206.398 109.903 206.252 109.361 206.252 108.723C206.252 108.166 206.357 107.712 206.568 107.36C206.785 107.003 207.075 106.719 207.438 106.508C207.802 106.297 208.206 106.139 208.651 106.033C209.097 105.928 209.554 105.846 210.022 105.787C210.614 105.723 211.092 105.667 211.455 105.62C211.818 105.573 212.082 105.5 212.246 105.4C212.416 105.295 212.501 105.128 212.501 104.899V104.855C212.501 104.299 212.343 103.868 212.026 103.563C211.716 103.259 211.253 103.106 210.638 103.106C209.999 103.106 209.492 103.247 209.117 103.528C208.748 103.804 208.493 104.117 208.353 104.469L206.551 104.056C206.768 103.458 207.081 102.978 207.491 102.614C207.907 102.245 208.382 101.976 208.915 101.806C209.454 101.636 210.017 101.551 210.603 101.551C210.995 101.551 211.411 101.598 211.851 101.691C212.29 101.779 212.703 101.946 213.09 102.192C213.482 102.433 213.802 102.778 214.048 103.229C214.294 103.681 214.417 104.264 214.417 104.979V111.5H212.545V110.155H212.475C212.357 110.396 212.173 110.636 211.921 110.876C211.675 111.116 211.358 111.315 210.972 111.474C210.585 111.632 210.119 111.711 209.574 111.711ZM209.987 110.182C210.521 110.182 210.975 110.079 211.35 109.874C211.725 109.663 212.012 109.388 212.211 109.048C212.41 108.708 212.51 108.348 212.51 107.967V106.692C212.439 106.757 212.308 106.818 212.114 106.877C211.921 106.936 211.701 106.985 211.455 107.026C211.209 107.067 210.969 107.105 210.734 107.141C210.5 107.17 210.304 107.193 210.146 107.211C209.776 107.264 209.439 107.346 209.135 107.457C208.83 107.562 208.584 107.721 208.396 107.932C208.215 108.137 208.124 108.409 208.124 108.749C208.124 109.224 208.3 109.581 208.651 109.821C209.003 110.062 209.448 110.182 209.987 110.182ZM218.152 105.673V111.5H216.254V101.674H218.1V103.291H218.231C218.454 102.758 218.803 102.336 219.277 102.025C219.752 101.709 220.361 101.551 221.105 101.551C221.773 101.551 222.356 101.691 222.854 101.973C223.358 102.248 223.748 102.661 224.023 103.212C224.305 103.763 224.445 104.445 224.445 105.26V111.5H222.547V105.488C222.547 104.779 222.359 104.223 221.984 103.818C221.609 103.408 221.1 103.203 220.455 103.203C220.016 103.203 219.62 103.303 219.269 103.502C218.923 103.695 218.65 103.974 218.451 104.337C218.252 104.7 218.152 105.146 218.152 105.673ZM227.117 115.174C226.83 115.18 226.569 115.159 226.335 115.112C226.106 115.071 225.931 115.021 225.808 114.963L226.273 113.407L226.405 113.442C226.892 113.565 227.302 113.557 227.636 113.416C227.976 113.281 228.26 112.903 228.488 112.282L228.726 111.632L225.14 101.674H227.188L229.666 109.303H229.771L232.259 101.674H234.307L230.264 112.801C230.076 113.316 229.839 113.75 229.552 114.102C229.265 114.459 228.919 114.726 228.515 114.901C228.116 115.083 227.65 115.174 227.117 115.174ZM239.932 101.674V103.212H234.57V101.674H239.932ZM236.003 99.3359H237.91V108.617C237.91 109.068 238.004 109.399 238.191 109.61C238.379 109.815 238.681 109.918 239.097 109.918C239.196 109.918 239.302 109.912 239.413 109.9C239.53 109.889 239.647 109.871 239.765 109.848L240.125 111.43C239.932 111.494 239.721 111.544 239.492 111.579C239.264 111.614 239.035 111.632 238.807 111.632C237.957 111.632 237.277 111.395 236.768 110.92C236.258 110.439 236.003 109.801 236.003 109.004V99.3359ZM243.412 105.673V111.5H241.514V98.4043H243.386V103.291H243.518C243.746 102.758 244.095 102.336 244.563 102.025C245.038 101.709 245.656 101.551 246.418 101.551C247.092 101.551 247.681 101.688 248.185 101.964C248.688 102.239 249.081 102.652 249.362 103.203C249.649 103.754 249.793 104.439 249.793 105.26V111.5H247.877V105.488C247.877 104.762 247.689 104.199 247.314 103.801C246.945 103.402 246.43 103.203 245.768 103.203C245.311 103.203 244.906 103.303 244.555 103.502C244.203 103.695 243.925 103.974 243.72 104.337C243.515 104.7 243.412 105.146 243.412 105.673ZM251.621 111.5V101.674H253.52V111.5H251.621ZM252.579 100.162C252.245 100.162 251.961 100.051 251.727 99.8281C251.492 99.6055 251.375 99.3389 251.375 99.0283C251.375 98.7119 251.492 98.4424 251.727 98.2197C251.961 97.9971 252.245 97.8857 252.579 97.8857C252.907 97.8857 253.188 97.9971 253.423 98.2197C253.663 98.4424 253.783 98.7119 253.783 99.0283C253.783 99.3389 253.663 99.6055 253.423 99.8281C253.188 100.051 252.907 100.162 252.579 100.162ZM257.246 105.673V111.5H255.348V101.674H257.193V103.291H257.325C257.548 102.758 257.896 102.336 258.371 102.025C258.846 101.709 259.455 101.551 260.199 101.551C260.867 101.551 261.45 101.691 261.948 101.973C262.452 102.248 262.842 102.661 263.117 103.212C263.398 103.763 263.539 104.445 263.539 105.26V111.5H261.641V105.488C261.641 104.779 261.453 104.223 261.078 103.818C260.703 103.408 260.193 103.203 259.549 103.203C259.109 103.203 258.714 103.303 258.362 103.502C258.017 103.695 257.744 103.974 257.545 104.337C257.346 104.7 257.246 105.146 257.246 105.673ZM269.463 115.385C268.291 115.385 267.368 115.165 266.694 114.726C266.021 114.286 265.555 113.765 265.297 113.161L266.932 112.484C267.049 112.672 267.204 112.871 267.397 113.082C267.597 113.293 267.863 113.472 268.197 113.618C268.531 113.765 268.962 113.838 269.489 113.838C270.21 113.838 270.808 113.662 271.282 113.311C271.757 112.965 271.994 112.408 271.994 111.641V109.716H271.862C271.757 109.921 271.596 110.152 271.379 110.41C271.162 110.662 270.866 110.882 270.491 111.069C270.116 111.257 269.627 111.351 269.023 111.351C268.25 111.351 267.553 111.169 266.932 110.806C266.316 110.437 265.824 109.897 265.455 109.188C265.092 108.474 264.91 107.595 264.91 106.552C264.91 105.509 265.089 104.615 265.446 103.871C265.81 103.121 266.302 102.547 266.923 102.148C267.544 101.75 268.25 101.551 269.041 101.551C269.65 101.551 270.143 101.653 270.518 101.858C270.898 102.058 271.194 102.292 271.405 102.562C271.616 102.831 271.78 103.068 271.897 103.273H272.038V101.674H273.893V111.72C273.893 112.563 273.696 113.255 273.304 113.794C272.917 114.333 272.39 114.731 271.722 114.989C271.054 115.253 270.301 115.385 269.463 115.385ZM269.445 109.76C270.271 109.76 270.904 109.476 271.344 108.907C271.789 108.333 272.012 107.539 272.012 106.525C272.012 105.863 271.915 105.283 271.722 104.785C271.528 104.281 271.241 103.889 270.86 103.607C270.479 103.32 270.008 103.177 269.445 103.177C268.871 103.177 268.391 103.326 268.004 103.625C267.623 103.918 267.336 104.319 267.143 104.829C266.949 105.333 266.853 105.898 266.853 106.525C266.853 107.164 266.949 107.729 267.143 108.222C267.336 108.708 267.626 109.086 268.013 109.355C268.405 109.625 268.883 109.76 269.445 109.76Z" fill="#475367"/>
<rect x="474" y="81" width="48" height="48" rx="9" fill="#F1F1F1"/>
<rect x="478.5" y="85.5" width="39" height="39" rx="7.5" fill="url(#paint0_linear_13042_1336)"/>
<rect x="478.5" y="85.5" width="39" height="39" rx="7.5" stroke="#E6E6E6"/>
<path fill-rule="evenodd" clip-rule="evenodd" d="M506.966 95.0006C507.497 94.9823 507.949 95.3812 507.997 95.9095C508.132 97.3921 507.984 98.6131 507.56 99.5985C507.127 100.604 506.434 101.298 505.607 101.752C504.546 102.333 503.279 102.508 502.089 102.534C502.414 103.679 502.225 104.725 501.601 105.523C500.775 106.577 499.271 107.003 498.054 106.394C496.842 105.789 495.977 105.798 495.328 106.043C494.641 106.303 494.011 106.896 493.43 107.802C492.41 109.394 491.765 111.574 491.215 113.428C491.127 113.725 491.042 114.014 490.958 114.291C490.805 114.791 490.294 115.09 489.784 114.976C489.274 114.863 488.937 114.376 489.011 113.859C489.446 110.816 490.844 106.254 493.654 102.376C496.481 98.4734 500.783 95.2138 506.966 95.0006ZM494.904 104.076C496.12 103.708 497.475 103.869 498.948 104.606C499.231 104.747 499.726 104.673 500.026 104.29C500.247 104.007 500.505 103.309 499.669 102.055C499.459 101.74 499.445 101.334 499.632 101.005C499.819 100.676 500.176 100.482 500.553 100.501C502.165 100.586 503.636 100.552 504.645 99.9982C505.109 99.7438 505.479 99.3756 505.723 98.8077C505.905 98.3851 506.031 97.8201 506.044 97.0644C501.153 97.5401 497.678 100.23 495.273 103.549C495.147 103.723 495.024 103.899 494.904 104.076Z" fill="black"/>
<path d="M489.613 99.6498C489.452 99.1687 489.075 98.7912 488.594 98.6308C488.104 98.4676 488.104 97.7751 488.594 97.6119C489.075 97.4515 489.452 97.074 489.613 96.5929C489.776 96.1033 490.468 96.1033 490.632 96.5929C490.792 97.074 491.17 97.4515 491.651 97.6119C492.14 97.7751 492.14 98.4676 491.651 98.6308C491.17 98.7912 490.792 99.1687 490.632 99.6498C490.468 100.139 489.776 100.139 489.613 99.6498Z" fill="black"/>
<path d="M498.594 111.631C499.075 111.791 499.452 112.169 499.613 112.65C499.776 113.139 500.468 113.139 500.632 112.65C500.792 112.169 501.17 111.791 501.651 111.631C502.14 111.468 502.14 110.775 501.651 110.612C501.169 110.451 500.792 110.074 500.632 109.593C500.468 109.103 499.776 109.103 499.613 109.593C499.452 110.074 499.075 110.451 498.594 110.612C498.104 110.775 498.104 111.468 498.594 111.631Z" fill="black"/>
</g>
<defs>
<filter id="filter0_d_13042_1336" x="0" y="53" width="580" height="144" filterUnits="userSpaceOnUse" color-interpolation-filters="sRGB">
<feFlood flood-opacity="0" result="BackgroundImageFix"/>
<feColorMatrix in="SourceAlpha" type="matrix" values="0 0 0 0 0 0 0 0 0 0 0 0 0 0 0 0 0 0 127 0" result="hardAlpha"/>
<feOffset dx="10" dy="20"/>
<feGaussianBlur stdDeviation="16"/>
<feComposite in2="hardAlpha" operator="out"/>
<feColorMatrix type="matrix" values="0 0 0 0 0 0 0 0 0 0 0 0 0 0 0 0 0 0 0.05 0"/>
<feBlend mode="normal" in2="BackgroundImageFix" result="effect1_dropShadow_13042_1336"/>
<feBlend mode="normal" in="SourceGraphic" in2="effect1_dropShadow_13042_1336" result="shape"/>
</filter>
<linearGradient id="paint0_linear_13042_1336" x1="498" y1="85" x2="498" y2="125" gradientUnits="userSpaceOnUse">
<stop stop-color="white"/>
<stop offset="1" stop-color="#E6E6E6"/>
</linearGradient>
<clipPath id="clip0_13042_1336">
<rect x="12" y="0.0683594" width="536" height="266" rx="24" fill="white"/>
</clipPath>
</defs>
</svg>
