<svg width="1248" height="340" viewBox="0 0 1248 340" fill="none" xmlns="http://www.w3.org/2000/svg">
<circle cx="623.5" cy="169.568" r="146" fill="black" fill-opacity="0.02" stroke="#E6E6E6"/>
<circle cx="623.5" cy="169.568" r="169" fill="black" fill-opacity="0.02" stroke="#E6E6E6"/>
<rect x="499.5" y="44.5684" width="249" height="249" rx="124.5" fill="black" fill-opacity="0.02"/>
<rect x="499.5" y="44.5684" width="249" height="249" rx="124.5" stroke="#E6E6E6"/>
<circle cx="624" cy="169.068" r="104.5" stroke="#CCCCCC"/>
<path d="M576 180.814H625.008M625.008 180.814H673.008M625.008 180.814V122.745M625.008 180.814L658.906 139.637M625.008 180.814L591.11 139.637" stroke="black" stroke-width="15"/>
<g clip-path="url(#clip0_1_5080)">
<path d="M148 187.568H156C157.933 187.568 159.5 189.135 159.5 191.068V199.068C159.5 201.001 157.933 202.568 156 202.568H148C146.067 202.568 144.5 201.001 144.5 199.068V191.068C144.5 189.135 146.067 187.568 148 187.568Z" stroke="black" stroke-opacity="0.1"/>
<path d="M132 171.068H140C142.209 171.068 144 172.859 144 175.068V183.068C144 185.277 142.209 187.068 140 187.068H132C129.791 187.068 128 185.277 128 183.068V175.068C128 172.859 129.791 171.068 132 171.068Z" fill="url(#paint0_linear_1_5080)" fill-opacity="0.1"/>
<path d="M132 171.568H140C141.933 171.568 143.5 173.135 143.5 175.068V183.068C143.5 185.001 141.933 186.568 140 186.568H132C130.067 186.568 128.5 185.001 128.5 183.068V175.068C128.5 173.135 130.067 171.568 132 171.568Z" stroke="url(#paint1_linear_1_5080)" stroke-opacity="0.15"/>
<path d="M100 202.568H108C109.933 202.568 111.5 204.135 111.5 206.068V214.068C111.5 216.001 109.933 217.568 108 217.568H100C98.067 217.568 96.5 216.001 96.5 214.068V206.068C96.5 204.135 98.067 202.568 100 202.568Z" stroke="black" stroke-opacity="0.1"/>
<path d="M84 186.568H92C93.933 186.568 95.5 188.135 95.5 190.068V198.068C95.5 200.001 93.933 201.568 92 201.568H84C82.067 201.568 80.5 200.001 80.5 198.068V190.068C80.5 188.135 82.067 186.568 84 186.568Z" stroke="black" stroke-opacity="0.1"/>
<path d="M52 186.068H60C62.2091 186.068 64 187.859 64 190.068V198.068C64 200.277 62.2091 202.068 60 202.068H52C49.7909 202.068 48 200.277 48 198.068V190.068C48 187.859 49.7909 186.068 52 186.068Z" fill="#CCCCCC" fill-opacity="0.1"/>
<path d="M52 186.568H60C61.933 186.568 63.5 188.135 63.5 190.068V198.068C63.5 200.001 61.933 201.568 60 201.568H52C50.067 201.568 48.5 200.001 48.5 198.068V190.068C48.5 188.135 50.067 186.568 52 186.568Z" stroke="black" stroke-opacity="0.1"/>
<path d="M68 170.568H76C77.933 170.568 79.5 172.135 79.5 174.068V182.068C79.5 184.001 77.933 185.568 76 185.568H68C66.067 185.568 64.5 184.001 64.5 182.068V174.068C64.5 172.135 66.067 170.568 68 170.568Z" stroke="black" stroke-opacity="0.1"/>
<path d="M84 154.068H92C94.2091 154.068 96 155.859 96 158.068V166.068C96 168.277 94.2091 170.068 92 170.068H84C81.7909 170.068 80 168.277 80 166.068V158.068C80 155.859 81.7909 154.068 84 154.068Z" fill="url(#paint2_linear_1_5080)" fill-opacity="0.1"/>
<path d="M84 154.568H92C93.933 154.568 95.5 156.135 95.5 158.068V166.068C95.5 168.001 93.933 169.568 92 169.568H84C82.067 169.568 80.5 168.001 80.5 166.068V158.068C80.5 156.135 82.067 154.568 84 154.568Z" stroke="url(#paint3_linear_1_5080)" stroke-opacity="0.15"/>
<path d="M100 138.568H108C109.933 138.568 111.5 140.135 111.5 142.068V150.068C111.5 152.001 109.933 153.568 108 153.568H100C98.067 153.568 96.5 152.001 96.5 150.068V142.068C96.5 140.135 98.067 138.568 100 138.568Z" stroke="black" stroke-opacity="0.1"/>
<path d="M116 122.568H124C125.933 122.568 127.5 124.135 127.5 126.068V134.068C127.5 136.001 125.933 137.568 124 137.568H116C114.067 137.568 112.5 136.001 112.5 134.068V126.068C112.5 124.135 114.067 122.568 116 122.568Z" stroke="black" stroke-opacity="0.1"/>
<path d="M180 122.568H188C189.933 122.568 191.5 124.135 191.5 126.068V134.068C191.5 136.001 189.933 137.568 188 137.568H180C178.067 137.568 176.5 136.001 176.5 134.068V126.068C176.5 124.135 178.067 122.568 180 122.568Z" stroke="black" stroke-opacity="0.1"/>
<path d="M164 106.568H172C173.933 106.568 175.5 108.135 175.5 110.068V118.068C175.5 120.001 173.933 121.568 172 121.568H164C162.067 121.568 160.5 120.001 160.5 118.068V110.068C160.5 108.135 162.067 106.568 164 106.568Z" stroke="black" stroke-opacity="0.1"/>
<path d="M228 138.568H236C237.933 138.568 239.5 140.135 239.5 142.068V150.068C239.5 152.001 237.933 153.568 236 153.568H228C226.067 153.568 224.5 152.001 224.5 150.068V142.068C224.5 140.135 226.067 138.568 228 138.568Z" stroke="black" stroke-opacity="0.1"/>
<path d="M212 90.0684H220C222.209 90.0684 224 91.8592 224 94.0684V102.068C224 104.277 222.209 106.068 220 106.068H212C209.791 106.068 208 104.277 208 102.068V94.0684C208 91.8592 209.791 90.0684 212 90.0684Z" fill="url(#paint4_linear_1_5080)" fill-opacity="0.1"/>
<path d="M212 90.5684H220C221.933 90.5684 223.5 92.1354 223.5 94.0684V102.068C223.5 104.001 221.933 105.568 220 105.568H212C210.067 105.568 208.5 104.001 208.5 102.068V94.0684C208.5 92.1354 210.067 90.5684 212 90.5684Z" stroke="url(#paint5_linear_1_5080)" stroke-opacity="0.15"/>
<path d="M228 74.5684H236C237.933 74.5684 239.5 76.1354 239.5 78.0684V86.0684C239.5 88.0014 237.933 89.5684 236 89.5684H228C226.067 89.5684 224.5 88.0014 224.5 86.0684V78.0684C224.5 76.1354 226.067 74.5684 228 74.5684Z" stroke="black" stroke-opacity="0.1"/>
<path d="M276 90.5684H284C285.933 90.5684 287.5 92.1354 287.5 94.0684V102.068C287.5 104.001 285.933 105.568 284 105.568H276C274.067 105.568 272.5 104.001 272.5 102.068V94.0684C272.5 92.1354 274.067 90.5684 276 90.5684Z" stroke="black" stroke-opacity="0.1"/>
<path d="M260 42.5684H268C269.933 42.5684 271.5 44.1354 271.5 46.0684V54.0684C271.5 56.0014 269.933 57.5684 268 57.5684H260C258.067 57.5684 256.5 56.0014 256.5 54.0684V46.0684C256.5 44.1354 258.067 42.5684 260 42.5684Z" stroke="black" stroke-opacity="0.1"/>
<path d="M52 154.568H60C61.933 154.568 63.5 156.135 63.5 158.068V166.068C63.5 168.001 61.933 169.568 60 169.568H52C50.067 169.568 48.5 168.001 48.5 166.068V158.068C48.5 156.135 50.067 154.568 52 154.568Z" stroke="black" stroke-opacity="0.1"/>
<path d="M36 138.568H44C45.933 138.568 47.5 140.135 47.5 142.068V150.068C47.5 152.001 45.933 153.568 44 153.568H36C34.067 153.568 32.5 152.001 32.5 150.068V142.068C32.5 140.135 34.067 138.568 36 138.568Z" stroke="black" stroke-opacity="0.1"/>
<path d="M84 218.568H92C93.933 218.568 95.5 220.135 95.5 222.068V230.068C95.5 232.001 93.933 233.568 92 233.568H84C82.067 233.568 80.5 232.001 80.5 230.068V222.068C80.5 220.135 82.067 218.568 84 218.568Z" stroke="black" stroke-opacity="0.1"/>
<path d="M148 234.568H156C157.933 234.568 159.5 236.135 159.5 238.068V246.068C159.5 248.001 157.933 249.568 156 249.568H148C146.067 249.568 144.5 248.001 144.5 246.068V238.068C144.5 236.135 146.067 234.568 148 234.568Z" stroke="black" stroke-opacity="0.1"/>
<path d="M180 218.568H188C189.933 218.568 191.5 220.135 191.5 222.068V230.068C191.5 232.001 189.933 233.568 188 233.568H180C178.067 233.568 176.5 232.001 176.5 230.068V222.068C176.5 220.135 178.067 218.568 180 218.568Z" stroke="black" stroke-opacity="0.1"/>
<path d="M260 202.568H268C269.933 202.568 271.5 204.135 271.5 206.068V214.068C271.5 216.001 269.933 217.568 268 217.568H260C258.067 217.568 256.5 216.001 256.5 214.068V206.068C256.5 204.135 258.067 202.568 260 202.568Z" stroke="black" stroke-opacity="0.1"/>
<path d="M212 218.568H220C221.933 218.568 223.5 220.135 223.5 222.068V230.068C223.5 232.001 221.933 233.568 220 233.568H212C210.067 233.568 208.5 232.001 208.5 230.068V222.068C208.5 220.135 210.067 218.568 212 218.568Z" stroke="black" stroke-opacity="0.1"/>
<path d="M228 202.568H236C237.933 202.568 239.5 204.135 239.5 206.068V214.068C239.5 216.001 237.933 217.568 236 217.568H228C226.067 217.568 224.5 216.001 224.5 214.068V206.068C224.5 204.135 226.067 202.568 228 202.568Z" stroke="black" stroke-opacity="0.1"/>
<path d="M212 170.568H220C221.933 170.568 223.5 172.135 223.5 174.068V182.068C223.5 184.001 221.933 185.568 220 185.568H212C210.067 185.568 208.5 184.001 208.5 182.068V174.068C208.5 172.135 210.067 170.568 212 170.568Z" stroke="black" stroke-opacity="0.1"/>
<path d="M196 186.068H204C206.209 186.068 208 187.859 208 190.068V198.068C208 200.277 206.209 202.068 204 202.068H196C193.791 202.068 192 200.277 192 198.068V190.068C192 187.859 193.791 186.068 196 186.068Z" fill="url(#paint6_linear_1_5080)" fill-opacity="0.1"/>
<path d="M196 186.568H204C205.933 186.568 207.5 188.135 207.5 190.068V198.068C207.5 200.001 205.933 201.568 204 201.568H196C194.067 201.568 192.5 200.001 192.5 198.068V190.068C192.5 188.135 194.067 186.568 196 186.568Z" stroke="url(#paint7_linear_1_5080)" stroke-opacity="0.15"/>
<path d="M180 170.568H188C189.933 170.568 191.5 172.135 191.5 174.068V182.068C191.5 184.001 189.933 185.568 188 185.568H180C178.067 185.568 176.5 184.001 176.5 182.068V174.068C176.5 172.135 178.067 170.568 180 170.568Z" stroke="black" stroke-opacity="0.1"/>
<path d="M244 154.568H252C253.933 154.568 255.5 156.135 255.5 158.068V166.068C255.5 168.001 253.933 169.568 252 169.568H244C242.067 169.568 240.5 168.001 240.5 166.068V158.068C240.5 156.135 242.067 154.568 244 154.568Z" stroke="black" stroke-opacity="0.1"/>
<path d="M68 234.568H76C77.933 234.568 79.5 236.135 79.5 238.068V246.068C79.5 248.001 77.933 249.568 76 249.568H68C66.067 249.568 64.5 248.001 64.5 246.068V238.068C64.5 236.135 66.067 234.568 68 234.568Z" stroke="black" stroke-opacity="0.1"/>
<path d="M36 234.068H44C46.2091 234.068 48 235.859 48 238.068V246.068C48 248.277 46.2091 250.068 44 250.068H36C33.7909 250.068 32 248.277 32 246.068V238.068C32 235.859 33.7909 234.068 36 234.068Z" fill="#CCCCCC" fill-opacity="0.1"/>
<path d="M36 234.568H44C45.933 234.568 47.5 236.135 47.5 238.068V246.068C47.5 248.001 45.933 249.568 44 249.568H36C34.067 249.568 32.5 248.001 32.5 246.068V238.068C32.5 236.135 34.067 234.568 36 234.568Z" stroke="black" stroke-opacity="0.1"/>
<path d="M52 250.568H60C61.933 250.568 63.5 252.135 63.5 254.068V262.068C63.5 264.001 61.933 265.568 60 265.568H52C50.067 265.568 48.5 264.001 48.5 262.068V254.068C48.5 252.135 50.067 250.568 52 250.568Z" stroke="black" stroke-opacity="0.1"/>
<path d="M68 266.068H76C78.2091 266.068 80 267.859 80 270.068V278.068C80 280.277 78.2091 282.068 76 282.068H68C65.7909 282.068 64 280.277 64 278.068V270.068C64 267.859 65.7909 266.068 68 266.068Z" fill="url(#paint8_linear_1_5080)" fill-opacity="0.1"/>
<path d="M68 266.568H76C77.933 266.568 79.5 268.135 79.5 270.068V278.068C79.5 280.001 77.933 281.568 76 281.568H68C66.067 281.568 64.5 280.001 64.5 278.068V270.068C64.5 268.135 66.067 266.568 68 266.568Z" stroke="url(#paint9_linear_1_5080)" stroke-opacity="0.15"/>
<path d="M84 282.568H92C93.933 282.568 95.5 284.135 95.5 286.068V294.068C95.5 296.001 93.933 297.568 92 297.568H84C82.067 297.568 80.5 296.001 80.5 294.068V286.068C80.5 284.135 82.067 282.568 84 282.568Z" stroke="black" stroke-opacity="0.1"/>
<path d="M4 234.568H12C13.933 234.568 15.5 236.135 15.5 238.068V246.068C15.5 248.001 13.933 249.568 12 249.568H4C2.067 249.568 0.5 248.001 0.5 246.068V238.068C0.5 236.135 2.067 234.568 4 234.568Z" stroke="black" stroke-opacity="0.1"/>
<path d="M116 250.568H124C125.933 250.568 127.5 252.135 127.5 254.068V262.068C127.5 264.001 125.933 265.568 124 265.568H116C114.067 265.568 112.5 264.001 112.5 262.068V254.068C112.5 252.135 114.067 250.568 116 250.568Z" stroke="black" stroke-opacity="0.1"/>
<path d="M132 266.568H140C141.933 266.568 143.5 268.135 143.5 270.068V278.068C143.5 280.001 141.933 281.568 140 281.568H132C130.067 281.568 128.5 280.001 128.5 278.068V270.068C128.5 268.135 130.067 266.568 132 266.568Z" stroke="black" stroke-opacity="0.1"/>
<path d="M148 282.068H156C158.209 282.068 160 283.859 160 286.068V294.068C160 296.277 158.209 298.068 156 298.068H148C145.791 298.068 144 296.277 144 294.068V286.068C144 283.859 145.791 282.068 148 282.068Z" fill="#CCCCCC" fill-opacity="0.1"/>
<path d="M148 282.568H156C157.933 282.568 159.5 284.135 159.5 286.068V294.068C159.5 296.001 157.933 297.568 156 297.568H148C146.067 297.568 144.5 296.001 144.5 294.068V286.068C144.5 284.135 146.067 282.568 148 282.568Z" stroke="black" stroke-opacity="0.1"/>
</g>
<g clip-path="url(#clip1_1_5080)">
<path d="M1100 187.568H1092C1090.07 187.568 1088.5 189.135 1088.5 191.068V199.068C1088.5 201.001 1090.07 202.568 1092 202.568H1100C1101.93 202.568 1103.5 201.001 1103.5 199.068V191.068C1103.5 189.135 1101.93 187.568 1100 187.568Z" stroke="black" stroke-opacity="0.1"/>
<path d="M1116 171.068H1108C1105.79 171.068 1104 172.859 1104 175.068V183.068C1104 185.277 1105.79 187.068 1108 187.068H1116C1118.21 187.068 1120 185.277 1120 183.068V175.068C1120 172.859 1118.21 171.068 1116 171.068Z" fill="url(#paint10_linear_1_5080)" fill-opacity="0.1"/>
<path d="M1116 171.568H1108C1106.07 171.568 1104.5 173.135 1104.5 175.068V183.068C1104.5 185.001 1106.07 186.568 1108 186.568H1116C1117.93 186.568 1119.5 185.001 1119.5 183.068V175.068C1119.5 173.135 1117.93 171.568 1116 171.568Z" stroke="url(#paint11_linear_1_5080)" stroke-opacity="0.15"/>
<path d="M1148 202.568H1140C1138.07 202.568 1136.5 204.135 1136.5 206.068V214.068C1136.5 216.001 1138.07 217.568 1140 217.568H1148C1149.93 217.568 1151.5 216.001 1151.5 214.068V206.068C1151.5 204.135 1149.93 202.568 1148 202.568Z" stroke="black" stroke-opacity="0.1"/>
<path d="M1164 186.568H1156C1154.07 186.568 1152.5 188.135 1152.5 190.068V198.068C1152.5 200.001 1154.07 201.568 1156 201.568H1164C1165.93 201.568 1167.5 200.001 1167.5 198.068V190.068C1167.5 188.135 1165.93 186.568 1164 186.568Z" stroke="black" stroke-opacity="0.1"/>
<path d="M1196 186.068H1188C1185.79 186.068 1184 187.859 1184 190.068V198.068C1184 200.277 1185.79 202.068 1188 202.068H1196C1198.21 202.068 1200 200.277 1200 198.068V190.068C1200 187.859 1198.21 186.068 1196 186.068Z" fill="#CCCCCC" fill-opacity="0.1"/>
<path d="M1196 186.568H1188C1186.07 186.568 1184.5 188.135 1184.5 190.068V198.068C1184.5 200.001 1186.07 201.568 1188 201.568H1196C1197.93 201.568 1199.5 200.001 1199.5 198.068V190.068C1199.5 188.135 1197.93 186.568 1196 186.568Z" stroke="black" stroke-opacity="0.1"/>
<path d="M1180 170.568H1172C1170.07 170.568 1168.5 172.135 1168.5 174.068V182.068C1168.5 184.001 1170.07 185.568 1172 185.568H1180C1181.93 185.568 1183.5 184.001 1183.5 182.068V174.068C1183.5 172.135 1181.93 170.568 1180 170.568Z" stroke="black" stroke-opacity="0.1"/>
<path d="M1164 154.068H1156C1153.79 154.068 1152 155.859 1152 158.068V166.068C1152 168.277 1153.79 170.068 1156 170.068H1164C1166.21 170.068 1168 168.277 1168 166.068V158.068C1168 155.859 1166.21 154.068 1164 154.068Z" fill="url(#paint12_linear_1_5080)" fill-opacity="0.1"/>
<path d="M1164 154.568H1156C1154.07 154.568 1152.5 156.135 1152.5 158.068V166.068C1152.5 168.001 1154.07 169.568 1156 169.568H1164C1165.93 169.568 1167.5 168.001 1167.5 166.068V158.068C1167.5 156.135 1165.93 154.568 1164 154.568Z" stroke="url(#paint13_linear_1_5080)" stroke-opacity="0.15"/>
<path d="M1148 138.568H1140C1138.07 138.568 1136.5 140.135 1136.5 142.068V150.068C1136.5 152.001 1138.07 153.568 1140 153.568H1148C1149.93 153.568 1151.5 152.001 1151.5 150.068V142.068C1151.5 140.135 1149.93 138.568 1148 138.568Z" stroke="black" stroke-opacity="0.1"/>
<path d="M1132 122.568H1124C1122.07 122.568 1120.5 124.135 1120.5 126.068V134.068C1120.5 136.001 1122.07 137.568 1124 137.568H1132C1133.93 137.568 1135.5 136.001 1135.5 134.068V126.068C1135.5 124.135 1133.93 122.568 1132 122.568Z" stroke="black" stroke-opacity="0.1"/>
<path d="M1068 122.568H1060C1058.07 122.568 1056.5 124.135 1056.5 126.068V134.068C1056.5 136.001 1058.07 137.568 1060 137.568H1068C1069.93 137.568 1071.5 136.001 1071.5 134.068V126.068C1071.5 124.135 1069.93 122.568 1068 122.568Z" stroke="black" stroke-opacity="0.1"/>
<path d="M1084 106.568H1076C1074.07 106.568 1072.5 108.135 1072.5 110.068V118.068C1072.5 120.001 1074.07 121.568 1076 121.568H1084C1085.93 121.568 1087.5 120.001 1087.5 118.068V110.068C1087.5 108.135 1085.93 106.568 1084 106.568Z" stroke="black" stroke-opacity="0.1"/>
<path d="M1020 138.568H1012C1010.07 138.568 1008.5 140.135 1008.5 142.068V150.068C1008.5 152.001 1010.07 153.568 1012 153.568H1020C1021.93 153.568 1023.5 152.001 1023.5 150.068V142.068C1023.5 140.135 1021.93 138.568 1020 138.568Z" stroke="black" stroke-opacity="0.1"/>
<path d="M1036 90.0684H1028C1025.79 90.0684 1024 91.8592 1024 94.0684V102.068C1024 104.277 1025.79 106.068 1028 106.068H1036C1038.21 106.068 1040 104.277 1040 102.068V94.0684C1040 91.8592 1038.21 90.0684 1036 90.0684Z" fill="url(#paint14_linear_1_5080)" fill-opacity="0.1"/>
<path d="M1036 90.5684H1028C1026.07 90.5684 1024.5 92.1354 1024.5 94.0684V102.068C1024.5 104.001 1026.07 105.568 1028 105.568H1036C1037.93 105.568 1039.5 104.001 1039.5 102.068V94.0684C1039.5 92.1354 1037.93 90.5684 1036 90.5684Z" stroke="url(#paint15_linear_1_5080)" stroke-opacity="0.15"/>
<path d="M1020 74.5684H1012C1010.07 74.5684 1008.5 76.1354 1008.5 78.0684V86.0684C1008.5 88.0014 1010.07 89.5684 1012 89.5684H1020C1021.93 89.5684 1023.5 88.0014 1023.5 86.0684V78.0684C1023.5 76.1354 1021.93 74.5684 1020 74.5684Z" stroke="black" stroke-opacity="0.1"/>
<path d="M972 90.5684H964C962.067 90.5684 960.5 92.1354 960.5 94.0684V102.068C960.5 104.001 962.067 105.568 964 105.568H972C973.933 105.568 975.5 104.001 975.5 102.068V94.0684C975.5 92.1354 973.933 90.5684 972 90.5684Z" stroke="black" stroke-opacity="0.1"/>
<path d="M988 42.5684H980C978.067 42.5684 976.5 44.1354 976.5 46.0684V54.0684C976.5 56.0014 978.067 57.5684 980 57.5684H988C989.933 57.5684 991.5 56.0014 991.5 54.0684V46.0684C991.5 44.1354 989.933 42.5684 988 42.5684Z" stroke="black" stroke-opacity="0.1"/>
<path d="M1196 154.568H1188C1186.07 154.568 1184.5 156.135 1184.5 158.068V166.068C1184.5 168.001 1186.07 169.568 1188 169.568H1196C1197.93 169.568 1199.5 168.001 1199.5 166.068V158.068C1199.5 156.135 1197.93 154.568 1196 154.568Z" stroke="black" stroke-opacity="0.1"/>
<path d="M1212 138.568H1204C1202.07 138.568 1200.5 140.135 1200.5 142.068V150.068C1200.5 152.001 1202.07 153.568 1204 153.568H1212C1213.93 153.568 1215.5 152.001 1215.5 150.068V142.068C1215.5 140.135 1213.93 138.568 1212 138.568Z" stroke="black" stroke-opacity="0.1"/>
<path d="M1164 218.568H1156C1154.07 218.568 1152.5 220.135 1152.5 222.068V230.068C1152.5 232.001 1154.07 233.568 1156 233.568H1164C1165.93 233.568 1167.5 232.001 1167.5 230.068V222.068C1167.5 220.135 1165.93 218.568 1164 218.568Z" stroke="black" stroke-opacity="0.1"/>
<path d="M1100 234.568H1092C1090.07 234.568 1088.5 236.135 1088.5 238.068V246.068C1088.5 248.001 1090.07 249.568 1092 249.568H1100C1101.93 249.568 1103.5 248.001 1103.5 246.068V238.068C1103.5 236.135 1101.93 234.568 1100 234.568Z" stroke="black" stroke-opacity="0.1"/>
<path d="M1068 218.568H1060C1058.07 218.568 1056.5 220.135 1056.5 222.068V230.068C1056.5 232.001 1058.07 233.568 1060 233.568H1068C1069.93 233.568 1071.5 232.001 1071.5 230.068V222.068C1071.5 220.135 1069.93 218.568 1068 218.568Z" stroke="black" stroke-opacity="0.1"/>
<path d="M988 202.568H980C978.067 202.568 976.5 204.135 976.5 206.068V214.068C976.5 216.001 978.067 217.568 980 217.568H988C989.933 217.568 991.5 216.001 991.5 214.068V206.068C991.5 204.135 989.933 202.568 988 202.568Z" stroke="black" stroke-opacity="0.1"/>
<path d="M1036 218.568H1028C1026.07 218.568 1024.5 220.135 1024.5 222.068V230.068C1024.5 232.001 1026.07 233.568 1028 233.568H1036C1037.93 233.568 1039.5 232.001 1039.5 230.068V222.068C1039.5 220.135 1037.93 218.568 1036 218.568Z" stroke="black" stroke-opacity="0.1"/>
<path d="M1020 202.568H1012C1010.07 202.568 1008.5 204.135 1008.5 206.068V214.068C1008.5 216.001 1010.07 217.568 1012 217.568H1020C1021.93 217.568 1023.5 216.001 1023.5 214.068V206.068C1023.5 204.135 1021.93 202.568 1020 202.568Z" stroke="black" stroke-opacity="0.1"/>
<path d="M1036 170.568H1028C1026.07 170.568 1024.5 172.135 1024.5 174.068V182.068C1024.5 184.001 1026.07 185.568 1028 185.568H1036C1037.93 185.568 1039.5 184.001 1039.5 182.068V174.068C1039.5 172.135 1037.93 170.568 1036 170.568Z" stroke="black" stroke-opacity="0.1"/>
<path d="M1052 186.068H1044C1041.79 186.068 1040 187.859 1040 190.068V198.068C1040 200.277 1041.79 202.068 1044 202.068H1052C1054.21 202.068 1056 200.277 1056 198.068V190.068C1056 187.859 1054.21 186.068 1052 186.068Z" fill="url(#paint16_linear_1_5080)" fill-opacity="0.1"/>
<path d="M1052 186.568H1044C1042.07 186.568 1040.5 188.135 1040.5 190.068V198.068C1040.5 200.001 1042.07 201.568 1044 201.568H1052C1053.93 201.568 1055.5 200.001 1055.5 198.068V190.068C1055.5 188.135 1053.93 186.568 1052 186.568Z" stroke="url(#paint17_linear_1_5080)" stroke-opacity="0.15"/>
<path d="M1068 170.568H1060C1058.07 170.568 1056.5 172.135 1056.5 174.068V182.068C1056.5 184.001 1058.07 185.568 1060 185.568H1068C1069.93 185.568 1071.5 184.001 1071.5 182.068V174.068C1071.5 172.135 1069.93 170.568 1068 170.568Z" stroke="black" stroke-opacity="0.1"/>
<path d="M1004 154.568H996C994.067 154.568 992.5 156.135 992.5 158.068V166.068C992.5 168.001 994.067 169.568 996 169.568H1004C1005.93 169.568 1007.5 168.001 1007.5 166.068V158.068C1007.5 156.135 1005.93 154.568 1004 154.568Z" stroke="black" stroke-opacity="0.1"/>
<path d="M1180 234.568H1172C1170.07 234.568 1168.5 236.135 1168.5 238.068V246.068C1168.5 248.001 1170.07 249.568 1172 249.568H1180C1181.93 249.568 1183.5 248.001 1183.5 246.068V238.068C1183.5 236.135 1181.93 234.568 1180 234.568Z" stroke="black" stroke-opacity="0.1"/>
<path d="M1212 234.068H1204C1201.79 234.068 1200 235.859 1200 238.068V246.068C1200 248.277 1201.79 250.068 1204 250.068H1212C1214.21 250.068 1216 248.277 1216 246.068V238.068C1216 235.859 1214.21 234.068 1212 234.068Z" fill="#CCCCCC" fill-opacity="0.1"/>
<path d="M1212 234.568H1204C1202.07 234.568 1200.5 236.135 1200.5 238.068V246.068C1200.5 248.001 1202.07 249.568 1204 249.568H1212C1213.93 249.568 1215.5 248.001 1215.5 246.068V238.068C1215.5 236.135 1213.93 234.568 1212 234.568Z" stroke="black" stroke-opacity="0.1"/>
<path d="M1196 250.568H1188C1186.07 250.568 1184.5 252.135 1184.5 254.068V262.068C1184.5 264.001 1186.07 265.568 1188 265.568H1196C1197.93 265.568 1199.5 264.001 1199.5 262.068V254.068C1199.5 252.135 1197.93 250.568 1196 250.568Z" stroke="black" stroke-opacity="0.1"/>
<path d="M1180 266.068H1172C1169.79 266.068 1168 267.859 1168 270.068V278.068C1168 280.277 1169.79 282.068 1172 282.068H1180C1182.21 282.068 1184 280.277 1184 278.068V270.068C1184 267.859 1182.21 266.068 1180 266.068Z" fill="url(#paint18_linear_1_5080)" fill-opacity="0.1"/>
<path d="M1180 266.568H1172C1170.07 266.568 1168.5 268.135 1168.5 270.068V278.068C1168.5 280.001 1170.07 281.568 1172 281.568H1180C1181.93 281.568 1183.5 280.001 1183.5 278.068V270.068C1183.5 268.135 1181.93 266.568 1180 266.568Z" stroke="url(#paint19_linear_1_5080)" stroke-opacity="0.15"/>
<path d="M1164 282.568H1156C1154.07 282.568 1152.5 284.135 1152.5 286.068V294.068C1152.5 296.001 1154.07 297.568 1156 297.568H1164C1165.93 297.568 1167.5 296.001 1167.5 294.068V286.068C1167.5 284.135 1165.93 282.568 1164 282.568Z" stroke="black" stroke-opacity="0.1"/>
<path d="M1244 234.568H1236C1234.07 234.568 1232.5 236.135 1232.5 238.068V246.068C1232.5 248.001 1234.07 249.568 1236 249.568H1244C1245.93 249.568 1247.5 248.001 1247.5 246.068V238.068C1247.5 236.135 1245.93 234.568 1244 234.568Z" stroke="black" stroke-opacity="0.1"/>
<path d="M1132 250.568H1124C1122.07 250.568 1120.5 252.135 1120.5 254.068V262.068C1120.5 264.001 1122.07 265.568 1124 265.568H1132C1133.93 265.568 1135.5 264.001 1135.5 262.068V254.068C1135.5 252.135 1133.93 250.568 1132 250.568Z" stroke="black" stroke-opacity="0.1"/>
<path d="M1116 266.568H1108C1106.07 266.568 1104.5 268.135 1104.5 270.068V278.068C1104.5 280.001 1106.07 281.568 1108 281.568H1116C1117.93 281.568 1119.5 280.001 1119.5 278.068V270.068C1119.5 268.135 1117.93 266.568 1116 266.568Z" stroke="black" stroke-opacity="0.1"/>
<path d="M1100 282.068H1092C1089.79 282.068 1088 283.859 1088 286.068V294.068C1088 296.277 1089.79 298.068 1092 298.068H1100C1102.21 298.068 1104 296.277 1104 294.068V286.068C1104 283.859 1102.21 282.068 1100 282.068Z" fill="#CCCCCC" fill-opacity="0.1"/>
<path d="M1100 282.568H1092C1090.07 282.568 1088.5 284.135 1088.5 286.068V294.068C1088.5 296.001 1090.07 297.568 1092 297.568H1100C1101.93 297.568 1103.5 296.001 1103.5 294.068V286.068C1103.5 284.135 1101.93 282.568 1100 282.568Z" stroke="black" stroke-opacity="0.1"/>
</g>
<defs>
<linearGradient id="paint0_linear_1_5080" x1="144" y1="171.068" x2="128" y2="187.068" gradientUnits="userSpaceOnUse">
<stop offset="0.005" stop-color="#FAFAFA"/>
<stop offset="1" stop-color="#E6E6E6"/>
</linearGradient>
<linearGradient id="paint1_linear_1_5080" x1="144" y1="171.068" x2="128" y2="187.068" gradientUnits="userSpaceOnUse">
<stop offset="0.005" stop-color="#CCCCCC"/>
<stop offset="1" stop-color="#E6E6E6"/>
</linearGradient>
<linearGradient id="paint2_linear_1_5080" x1="96" y1="154.068" x2="80" y2="170.068" gradientUnits="userSpaceOnUse">
<stop offset="0.005" stop-color="#FAFAFA"/>
<stop offset="1" stop-color="#E6E6E6"/>
</linearGradient>
<linearGradient id="paint3_linear_1_5080" x1="96" y1="154.068" x2="80" y2="170.068" gradientUnits="userSpaceOnUse">
<stop offset="0.005" stop-color="#CCCCCC"/>
<stop offset="1" stop-color="#E6E6E6"/>
</linearGradient>
<linearGradient id="paint4_linear_1_5080" x1="224" y1="90.0684" x2="208" y2="106.068" gradientUnits="userSpaceOnUse">
<stop offset="0.005" stop-color="#FAFAFA"/>
<stop offset="1" stop-color="#E6E6E6"/>
</linearGradient>
<linearGradient id="paint5_linear_1_5080" x1="224" y1="90.0684" x2="208" y2="106.068" gradientUnits="userSpaceOnUse">
<stop offset="0.005" stop-color="#CCCCCC"/>
<stop offset="1" stop-color="#E6E6E6"/>
</linearGradient>
<linearGradient id="paint6_linear_1_5080" x1="208" y1="186.068" x2="192" y2="202.068" gradientUnits="userSpaceOnUse">
<stop offset="0.005" stop-color="#FAFAFA"/>
<stop offset="1" stop-color="#E6E6E6"/>
</linearGradient>
<linearGradient id="paint7_linear_1_5080" x1="208" y1="186.068" x2="192" y2="202.068" gradientUnits="userSpaceOnUse">
<stop offset="0.005" stop-color="#CCCCCC"/>
<stop offset="1" stop-color="#E6E6E6"/>
</linearGradient>
<linearGradient id="paint8_linear_1_5080" x1="80" y1="266.068" x2="64" y2="282.068" gradientUnits="userSpaceOnUse">
<stop offset="0.005" stop-color="#FAFAFA"/>
<stop offset="1" stop-color="#E6E6E6"/>
</linearGradient>
<linearGradient id="paint9_linear_1_5080" x1="80" y1="266.068" x2="64" y2="282.068" gradientUnits="userSpaceOnUse">
<stop offset="0.005" stop-color="#CCCCCC"/>
<stop offset="1" stop-color="#E6E6E6"/>
</linearGradient>
<linearGradient id="paint10_linear_1_5080" x1="1104" y1="171.068" x2="1120" y2="187.068" gradientUnits="userSpaceOnUse">
<stop offset="0.005" stop-color="#FAFAFA"/>
<stop offset="1" stop-color="#E6E6E6"/>
</linearGradient>
<linearGradient id="paint11_linear_1_5080" x1="1104" y1="171.068" x2="1120" y2="187.068" gradientUnits="userSpaceOnUse">
<stop offset="0.005" stop-color="#CCCCCC"/>
<stop offset="1" stop-color="#E6E6E6"/>
</linearGradient>
<linearGradient id="paint12_linear_1_5080" x1="1152" y1="154.068" x2="1168" y2="170.068" gradientUnits="userSpaceOnUse">
<stop offset="0.005" stop-color="#FAFAFA"/>
<stop offset="1" stop-color="#E6E6E6"/>
</linearGradient>
<linearGradient id="paint13_linear_1_5080" x1="1152" y1="154.068" x2="1168" y2="170.068" gradientUnits="userSpaceOnUse">
<stop offset="0.005" stop-color="#CCCCCC"/>
<stop offset="1" stop-color="#E6E6E6"/>
</linearGradient>
<linearGradient id="paint14_linear_1_5080" x1="1024" y1="90.0684" x2="1040" y2="106.068" gradientUnits="userSpaceOnUse">
<stop offset="0.005" stop-color="#FAFAFA"/>
<stop offset="1" stop-color="#E6E6E6"/>
</linearGradient>
<linearGradient id="paint15_linear_1_5080" x1="1024" y1="90.0684" x2="1040" y2="106.068" gradientUnits="userSpaceOnUse">
<stop offset="0.005" stop-color="#CCCCCC"/>
<stop offset="1" stop-color="#E6E6E6"/>
</linearGradient>
<linearGradient id="paint16_linear_1_5080" x1="1040" y1="186.068" x2="1056" y2="202.068" gradientUnits="userSpaceOnUse">
<stop offset="0.005" stop-color="#FAFAFA"/>
<stop offset="1" stop-color="#E6E6E6"/>
</linearGradient>
<linearGradient id="paint17_linear_1_5080" x1="1040" y1="186.068" x2="1056" y2="202.068" gradientUnits="userSpaceOnUse">
<stop offset="0.005" stop-color="#CCCCCC"/>
<stop offset="1" stop-color="#E6E6E6"/>
</linearGradient>
<linearGradient id="paint18_linear_1_5080" x1="1168" y1="266.068" x2="1184" y2="282.068" gradientUnits="userSpaceOnUse">
<stop offset="0.005" stop-color="#FAFAFA"/>
<stop offset="1" stop-color="#E6E6E6"/>
</linearGradient>
<linearGradient id="paint19_linear_1_5080" x1="1168" y1="266.068" x2="1184" y2="282.068" gradientUnits="userSpaceOnUse">
<stop offset="0.005" stop-color="#CCCCCC"/>
<stop offset="1" stop-color="#E6E6E6"/>
</linearGradient>
<clipPath id="clip0_1_5080">
<rect width="288" height="256" fill="white" transform="matrix(-1 0 0 1 288 42.0684)"/>
</clipPath>
<clipPath id="clip1_1_5080">
<rect width="288" height="256" fill="white" transform="translate(960 42.0684)"/>
</clipPath>
</defs>
</svg>
