<svg width="1266" height="601" viewBox="0 0 1266 601" fill="none" xmlns="http://www.w3.org/2000/svg">
<g clip-path="url(#clip0_1_4835)">
<circle cx="632.5" cy="299.868" r="300" fill="black" fill-opacity="0.02"/>
<circle cx="632.5" cy="299.868" r="299.5" stroke="black" stroke-opacity="0.05"/>
<circle cx="632.5" cy="299.868" r="240" fill="black" fill-opacity="0.02"/>
<circle cx="632.5" cy="299.868" r="239.6" stroke="black" stroke-opacity="0.05" stroke-width="0.8"/>
<circle cx="632.5" cy="299.868" r="192" fill="black" fill-opacity="0.02"/>
<circle cx="632.5" cy="299.868" r="191.68" stroke="black" stroke-opacity="0.05" stroke-width="0.64"/>
<circle cx="632.5" cy="299.869" r="153.6" fill="black" fill-opacity="0.02"/>
<circle cx="632.5" cy="299.869" r="153.344" stroke="black" stroke-opacity="0.05" stroke-width="0.512"/>
<rect x="372" y="233.368" width="520" height="99" rx="49.5" fill="white"/>
<rect x="372" y="233.368" width="520" height="99" rx="49.5" stroke="#CCCCCC"/>
<ellipse cx="422.5" cy="282.868" rx="35" ry="34" fill="url(#paint0_radial_1_4835)"/>
<path d="M406.5 286.671H422.836M422.836 286.671H438.836M422.836 286.671V267.868M422.836 286.671L434.135 273.338M422.836 286.671L411.537 273.338" stroke="white" stroke-width="5"/>
<path d="M496.116 289.544C494.991 289.544 493.983 289.274 493.093 288.735C492.202 288.196 491.502 287.426 490.992 286.424C490.482 285.416 490.228 284.218 490.228 282.829C490.228 281.429 490.482 280.228 490.992 279.226C491.508 278.218 492.208 277.444 493.093 276.905C493.983 276.366 494.991 276.097 496.116 276.097C496.808 276.097 497.455 276.196 498.059 276.396C498.668 276.595 499.213 276.885 499.693 277.266C500.174 277.646 500.569 278.112 500.88 278.663C501.196 279.214 501.407 279.838 501.513 280.535H499.526C499.45 280.107 499.307 279.732 499.096 279.41C498.891 279.082 498.636 278.807 498.331 278.584C498.032 278.355 497.695 278.186 497.32 278.074C496.951 277.957 496.559 277.898 496.143 277.898C495.393 277.898 494.716 278.089 494.112 278.47C493.515 278.845 493.043 279.401 492.697 280.14C492.357 280.872 492.188 281.769 492.188 282.829C492.188 283.896 492.36 284.795 492.706 285.527C493.052 286.254 493.523 286.805 494.121 287.18C494.719 287.555 495.39 287.742 496.134 287.742C496.55 287.742 496.942 287.687 497.312 287.575C497.681 287.464 498.018 287.297 498.322 287.074C498.627 286.852 498.882 286.582 499.087 286.266C499.298 285.943 499.444 285.571 499.526 285.149H501.513C501.413 285.8 501.211 286.395 500.906 286.934C500.602 287.467 500.212 287.93 499.737 288.322C499.263 288.709 498.721 289.011 498.111 289.228C497.502 289.438 496.837 289.544 496.116 289.544ZM507.111 289.57C506.191 289.57 505.386 289.359 504.694 288.938C504.009 288.516 503.476 287.924 503.095 287.162C502.72 286.4 502.532 285.516 502.532 284.508C502.532 283.488 502.72 282.598 503.095 281.836C503.476 281.068 504.009 280.474 504.694 280.052C505.386 279.63 506.191 279.419 507.111 279.419C508.037 279.419 508.843 279.63 509.528 280.052C510.214 280.474 510.747 281.068 511.128 281.836C511.509 282.598 511.699 283.488 511.699 284.508C511.699 285.516 511.509 286.4 511.128 287.162C510.747 287.924 510.214 288.516 509.528 288.938C508.843 289.359 508.037 289.57 507.111 289.57ZM507.111 287.962C507.715 287.962 508.213 287.804 508.605 287.487C508.998 287.171 509.288 286.752 509.476 286.23C509.669 285.703 509.766 285.129 509.766 284.508C509.766 283.875 509.669 283.295 509.476 282.768C509.288 282.24 508.998 281.818 508.605 281.502C508.213 281.186 507.715 281.027 507.111 281.027C506.514 281.027 506.019 281.186 505.626 281.502C505.239 281.818 504.949 282.24 504.756 282.768C504.562 283.295 504.466 283.875 504.466 284.508C504.466 285.129 504.562 285.703 504.756 286.23C504.949 286.752 505.239 287.171 505.626 287.487C506.019 287.804 506.514 287.962 507.111 287.962ZM514.978 276.272V289.368H513.079V276.272H514.978ZM518.704 276.272V289.368H516.806V276.272H518.704ZM523.38 289.579C522.759 289.579 522.196 289.465 521.692 289.236C521.188 289.002 520.79 288.662 520.497 288.217C520.204 287.771 520.058 287.229 520.058 286.591C520.058 286.034 520.163 285.58 520.374 285.229C520.591 284.871 520.881 284.587 521.244 284.376C521.607 284.165 522.012 284.007 522.457 283.901C522.902 283.796 523.359 283.714 523.828 283.655C524.42 283.591 524.897 283.535 525.261 283.488C525.624 283.441 525.888 283.368 526.052 283.269C526.222 283.163 526.307 282.996 526.307 282.768V282.724C526.307 282.167 526.148 281.736 525.832 281.432C525.521 281.127 525.059 280.975 524.443 280.975C523.805 280.975 523.298 281.115 522.923 281.396C522.554 281.672 522.299 281.985 522.158 282.337L520.356 281.924C520.573 281.326 520.887 280.846 521.297 280.482C521.713 280.113 522.188 279.844 522.721 279.674C523.26 279.504 523.822 279.419 524.408 279.419C524.801 279.419 525.217 279.466 525.656 279.56C526.096 279.647 526.509 279.814 526.896 280.061C527.288 280.301 527.607 280.646 527.854 281.098C528.1 281.549 528.223 282.132 528.223 282.847V289.368H526.351V288.023H526.28C526.163 288.264 525.979 288.504 525.727 288.744C525.48 288.984 525.164 289.184 524.777 289.342C524.391 289.5 523.925 289.579 523.38 289.579ZM523.793 288.05C524.326 288.05 524.78 287.947 525.155 287.742C525.53 287.531 525.817 287.256 526.017 286.916C526.216 286.576 526.315 286.216 526.315 285.835V284.561C526.245 284.625 526.113 284.687 525.92 284.745C525.727 284.804 525.507 284.854 525.261 284.895C525.015 284.936 524.774 284.974 524.54 285.009C524.306 285.038 524.109 285.062 523.951 285.079C523.582 285.132 523.245 285.214 522.94 285.325C522.636 285.431 522.39 285.589 522.202 285.8C522.021 286.005 521.93 286.277 521.93 286.617C521.93 287.092 522.105 287.449 522.457 287.689C522.809 287.93 523.254 288.05 523.793 288.05ZM534.902 289.562C534.311 289.562 533.824 289.462 533.443 289.263C533.068 289.058 532.772 288.82 532.556 288.551C532.345 288.281 532.181 288.044 532.063 287.839H531.905V289.368H530.06V276.272H531.958V281.142H532.063C532.181 280.937 532.342 280.699 532.547 280.43C532.758 280.16 533.051 279.926 533.426 279.727C533.801 279.521 534.29 279.419 534.894 279.419C535.685 279.419 536.388 279.618 537.003 280.017C537.624 280.415 538.113 280.992 538.471 281.748C538.828 282.504 539.007 283.415 539.007 284.481C539.007 285.536 538.831 286.444 538.479 287.206C538.128 287.962 537.642 288.545 537.021 288.955C536.405 289.359 535.699 289.562 534.902 289.562ZM534.489 287.936C535.058 287.936 535.532 287.783 535.913 287.479C536.294 287.174 536.581 286.761 536.774 286.239C536.974 285.712 537.073 285.12 537.073 284.464C537.073 283.813 536.977 283.23 536.783 282.715C536.59 282.199 536.303 281.792 535.922 281.493C535.541 281.194 535.063 281.045 534.489 281.045C533.933 281.045 533.464 281.188 533.083 281.476C532.702 281.757 532.412 282.155 532.213 282.671C532.02 283.181 531.923 283.778 531.923 284.464C531.923 285.149 532.022 285.753 532.222 286.274C532.421 286.796 532.711 287.203 533.092 287.496C533.479 287.789 533.944 287.936 534.489 287.936ZM544.518 289.57C543.598 289.57 542.792 289.359 542.101 288.938C541.415 288.516 540.882 287.924 540.501 287.162C540.126 286.4 539.938 285.516 539.938 284.508C539.938 283.488 540.126 282.598 540.501 281.836C540.882 281.068 541.415 280.474 542.101 280.052C542.792 279.63 543.598 279.419 544.518 279.419C545.443 279.419 546.249 279.63 546.935 280.052C547.62 280.474 548.153 281.068 548.534 281.836C548.915 282.598 549.105 283.488 549.105 284.508C549.105 285.516 548.915 286.4 548.534 287.162C548.153 287.924 547.62 288.516 546.935 288.938C546.249 289.359 545.443 289.57 544.518 289.57ZM544.518 287.962C545.121 287.962 545.619 287.804 546.012 287.487C546.404 287.171 546.694 286.752 546.882 286.23C547.075 285.703 547.172 285.129 547.172 284.508C547.172 283.875 547.075 283.295 546.882 282.768C546.694 282.24 546.404 281.818 546.012 281.502C545.619 281.186 545.121 281.027 544.518 281.027C543.92 281.027 543.425 281.186 543.032 281.502C542.646 281.818 542.355 282.24 542.162 282.768C541.969 283.295 541.872 283.875 541.872 284.508C541.872 285.129 541.969 285.703 542.162 286.23C542.355 286.752 542.646 287.171 543.032 287.487C543.425 287.804 543.92 287.962 544.518 287.962ZM550.485 289.368V279.542H552.322V281.115H552.428C552.609 280.588 552.926 280.172 553.377 279.867C553.834 279.557 554.35 279.401 554.924 279.401C555.041 279.401 555.179 279.407 555.337 279.419C555.501 279.425 555.633 279.434 555.732 279.445V281.273C555.656 281.25 555.519 281.227 555.319 281.203C555.126 281.18 554.93 281.168 554.73 281.168C554.279 281.168 553.875 281.265 553.518 281.458C553.166 281.646 552.888 281.906 552.683 282.24C552.483 282.568 552.384 282.949 552.384 283.383V289.368H550.485ZM559.415 289.579C558.794 289.579 558.231 289.465 557.728 289.236C557.224 289.002 556.825 288.662 556.532 288.217C556.239 287.771 556.093 287.229 556.093 286.591C556.093 286.034 556.198 285.58 556.409 285.229C556.626 284.871 556.916 284.587 557.279 284.376C557.643 284.165 558.047 284.007 558.492 283.901C558.938 283.796 559.395 283.714 559.863 283.655C560.455 283.591 560.933 283.535 561.296 283.488C561.659 283.441 561.923 283.368 562.087 283.269C562.257 283.163 562.342 282.996 562.342 282.768V282.724C562.342 282.167 562.184 281.736 561.867 281.432C561.557 281.127 561.094 280.975 560.479 280.975C559.84 280.975 559.333 281.115 558.958 281.396C558.589 281.672 558.334 281.985 558.193 282.337L556.392 281.924C556.608 281.326 556.922 280.846 557.332 280.482C557.748 280.113 558.223 279.844 558.756 279.674C559.295 279.504 559.857 279.419 560.443 279.419C560.836 279.419 561.252 279.466 561.691 279.56C562.131 279.647 562.544 279.814 562.931 280.061C563.323 280.301 563.643 280.646 563.889 281.098C564.135 281.549 564.258 282.132 564.258 282.847V289.368H562.386V288.023H562.315C562.198 288.264 562.014 288.504 561.762 288.744C561.516 288.984 561.199 289.184 560.812 289.342C560.426 289.5 559.96 289.579 559.415 289.579ZM559.828 288.05C560.361 288.05 560.815 287.947 561.19 287.742C561.565 287.531 561.853 287.256 562.052 286.916C562.251 286.576 562.351 286.216 562.351 285.835V284.561C562.28 284.625 562.148 284.687 561.955 284.745C561.762 284.804 561.542 284.854 561.296 284.895C561.05 284.936 560.81 284.974 560.575 285.009C560.341 285.038 560.145 285.062 559.986 285.079C559.617 285.132 559.28 285.214 558.976 285.325C558.671 285.431 558.425 285.589 558.237 285.8C558.056 286.005 557.965 286.277 557.965 286.617C557.965 287.092 558.141 287.449 558.492 287.689C558.844 287.93 559.289 288.05 559.828 288.05ZM570.665 279.542V281.08H565.304V279.542H570.665ZM566.736 277.204H568.644V286.485C568.644 286.937 568.737 287.268 568.925 287.479C569.112 287.684 569.414 287.786 569.83 287.786C569.93 287.786 570.035 287.78 570.146 287.769C570.264 287.757 570.381 287.739 570.498 287.716L570.858 289.298C570.665 289.362 570.454 289.412 570.226 289.447C569.997 289.482 569.769 289.5 569.54 289.5C568.69 289.5 568.011 289.263 567.501 288.788C566.991 288.308 566.736 287.669 566.736 286.872V277.204ZM576.158 289.57C575.197 289.57 574.365 289.362 573.662 288.946C572.959 288.53 572.417 287.944 572.036 287.188C571.661 286.427 571.474 285.539 571.474 284.525C571.474 283.518 571.658 282.63 572.027 281.862C572.402 281.095 572.927 280.497 573.601 280.069C574.28 279.636 575.077 279.419 575.991 279.419C576.548 279.419 577.087 279.51 577.608 279.691C578.13 279.873 578.599 280.16 579.015 280.553C579.431 280.945 579.759 281.455 579.999 282.082C580.245 282.709 580.368 283.465 580.368 284.35V285.035H572.555V283.603H579.384L578.496 284.077C578.496 283.474 578.402 282.94 578.215 282.478C578.027 282.015 577.746 281.654 577.371 281.396C577.002 281.133 576.542 281.001 575.991 281.001C575.44 281.001 574.969 281.133 574.576 281.396C574.189 281.66 573.894 282.009 573.688 282.442C573.483 282.876 573.381 283.351 573.381 283.866V284.842C573.381 285.516 573.498 286.087 573.732 286.556C573.967 287.024 574.292 287.382 574.708 287.628C575.13 287.874 575.619 287.997 576.176 287.997C576.539 287.997 576.867 287.944 577.16 287.839C577.459 287.733 577.717 287.575 577.934 287.364C578.15 287.153 578.314 286.893 578.426 286.582L580.236 286.925C580.09 287.452 579.832 287.915 579.463 288.313C579.094 288.712 578.628 289.022 578.065 289.245C577.509 289.462 576.873 289.57 576.158 289.57ZM590.388 279.542V281.08H584.842V279.542H590.388ZM586.354 289.368V278.399C586.354 277.79 586.488 277.283 586.758 276.879C587.033 276.469 587.391 276.164 587.83 275.965C588.275 275.76 588.753 275.657 589.263 275.657C589.655 275.657 589.989 275.689 590.265 275.754C590.54 275.818 590.742 275.874 590.871 275.921L590.414 277.468C590.326 277.438 590.212 277.406 590.071 277.371C589.937 277.336 589.767 277.318 589.562 277.318C589.099 277.318 588.765 277.436 588.56 277.67C588.354 277.898 588.252 278.232 588.252 278.672V289.368H586.354ZM594.132 289.579C593.511 289.579 592.948 289.465 592.444 289.236C591.94 289.002 591.542 288.662 591.249 288.217C590.956 287.771 590.81 287.229 590.81 286.591C590.81 286.034 590.915 285.58 591.126 285.229C591.343 284.871 591.633 284.587 591.996 284.376C592.359 284.165 592.764 284.007 593.209 283.901C593.654 283.796 594.111 283.714 594.58 283.655C595.172 283.591 595.649 283.535 596.013 283.488C596.376 283.441 596.64 283.368 596.804 283.269C596.974 283.163 597.059 282.996 597.059 282.768V282.724C597.059 282.167 596.9 281.736 596.584 281.432C596.273 281.127 595.811 280.975 595.195 280.975C594.557 280.975 594.05 281.115 593.675 281.396C593.306 281.672 593.051 281.985 592.91 282.337L591.108 281.924C591.325 281.326 591.639 280.846 592.049 280.482C592.465 280.113 592.939 279.844 593.473 279.674C594.012 279.504 594.574 279.419 595.16 279.419C595.553 279.419 595.969 279.466 596.408 279.56C596.848 279.647 597.261 279.814 597.647 280.061C598.04 280.301 598.359 280.646 598.605 281.098C598.852 281.549 598.975 282.132 598.975 282.847V289.368H597.103V288.023H597.032C596.915 288.264 596.73 288.504 596.479 288.744C596.232 288.984 595.916 289.184 595.529 289.342C595.143 289.5 594.677 289.579 594.132 289.579ZM594.545 288.05C595.078 288.05 595.532 287.947 595.907 287.742C596.282 287.531 596.569 287.256 596.769 286.916C596.968 286.576 597.067 286.216 597.067 285.835V284.561C596.997 284.625 596.865 284.687 596.672 284.745C596.479 284.804 596.259 284.854 596.013 284.895C595.767 284.936 595.526 284.974 595.292 285.009C595.058 285.038 594.861 285.062 594.703 285.079C594.334 285.132 593.997 285.214 593.692 285.325C593.388 285.431 593.142 285.589 592.954 285.8C592.772 286.005 592.682 286.277 592.682 286.617C592.682 287.092 592.857 287.449 593.209 287.689C593.561 287.93 594.006 288.05 594.545 288.05ZM608.159 281.95L606.428 282.249C606.316 281.921 606.108 281.619 605.804 281.344C605.505 281.068 605.057 280.931 604.459 280.931C603.92 280.931 603.469 281.054 603.105 281.3C602.748 281.54 602.569 281.848 602.569 282.223C602.569 282.551 602.689 282.817 602.93 283.022C603.176 283.228 603.565 283.392 604.099 283.515L605.672 283.866C606.568 284.071 607.239 284.394 607.685 284.833C608.13 285.272 608.353 285.835 608.353 286.521C608.353 287.112 608.183 287.64 607.843 288.103C607.503 288.56 607.031 288.92 606.428 289.184C605.824 289.441 605.127 289.57 604.336 289.57C603.234 289.57 602.338 289.333 601.646 288.858C600.955 288.384 600.53 287.716 600.372 286.854L602.209 286.573C602.326 287.054 602.563 287.417 602.921 287.663C603.284 287.909 603.753 288.032 604.327 288.032C604.948 288.032 605.446 287.9 605.821 287.637C606.202 287.373 606.393 287.054 606.393 286.679C606.393 286.058 605.93 285.639 605.004 285.422L603.343 285.053C602.423 284.842 601.743 284.511 601.304 284.06C600.87 283.603 600.653 283.028 600.653 282.337C600.653 281.757 600.814 281.247 601.137 280.808C601.465 280.368 601.913 280.028 602.481 279.788C603.056 279.542 603.709 279.419 604.441 279.419C605.508 279.419 606.343 279.65 606.946 280.113C607.556 280.576 607.96 281.188 608.159 281.95ZM614.259 279.542V281.08H608.897V279.542H614.259ZM610.33 277.204H612.237V286.485C612.237 286.937 612.331 287.268 612.519 287.479C612.706 287.684 613.008 287.786 613.424 287.786C613.523 287.786 613.629 287.78 613.74 287.769C613.857 287.757 613.975 287.739 614.092 287.716L614.452 289.298C614.259 289.362 614.048 289.412 613.819 289.447C613.591 289.482 613.362 289.5 613.134 289.5C612.284 289.5 611.604 289.263 611.095 288.788C610.585 288.308 610.33 287.669 610.33 286.872V277.204ZM619.752 289.57C618.791 289.57 617.959 289.362 617.256 288.946C616.553 288.53 616.011 287.944 615.63 287.188C615.255 286.427 615.067 285.539 615.067 284.525C615.067 283.518 615.252 282.63 615.621 281.862C615.996 281.095 616.521 280.497 617.194 280.069C617.874 279.636 618.671 279.419 619.585 279.419C620.142 279.419 620.681 279.51 621.202 279.691C621.724 279.873 622.192 280.16 622.608 280.553C623.024 280.945 623.353 281.455 623.593 282.082C623.839 282.709 623.962 283.465 623.962 284.35V285.035H616.148V283.603H622.978L622.09 284.077C622.09 283.474 621.996 282.94 621.809 282.478C621.621 282.015 621.34 281.654 620.965 281.396C620.596 281.133 620.136 281.001 619.585 281.001C619.034 281.001 618.562 281.133 618.17 281.396C617.783 281.66 617.487 282.009 617.282 282.442C617.077 282.876 616.975 283.351 616.975 283.866V284.842C616.975 285.516 617.092 286.087 617.326 286.556C617.561 287.024 617.886 287.382 618.302 287.628C618.724 287.874 619.213 287.997 619.77 287.997C620.133 287.997 620.461 287.944 620.754 287.839C621.053 287.733 621.311 287.575 621.527 287.364C621.744 287.153 621.908 286.893 622.02 286.582L623.83 286.925C623.684 287.452 623.426 287.915 623.057 288.313C622.688 288.712 622.222 289.022 621.659 289.245C621.103 289.462 620.467 289.57 619.752 289.57ZM625.298 289.368V279.542H627.135V281.115H627.24C627.422 280.588 627.738 280.172 628.189 279.867C628.646 279.557 629.162 279.401 629.736 279.401C629.854 279.401 629.991 279.407 630.149 279.419C630.313 279.425 630.445 279.434 630.545 279.445V281.273C630.469 281.25 630.331 281.227 630.132 281.203C629.938 281.18 629.742 281.168 629.543 281.168C629.092 281.168 628.688 281.265 628.33 281.458C627.979 281.646 627.7 281.906 627.495 282.24C627.296 282.568 627.196 282.949 627.196 283.383V289.368H625.298ZM637.594 289.368L634.711 279.542H636.68L638.604 286.758H638.71L640.635 279.542H642.612L644.52 286.731H644.616L646.532 279.542H648.501L645.618 289.368H643.676L641.672 282.284H641.54L639.536 289.368H637.594ZM649.573 289.368V279.542H651.472V289.368H649.573ZM650.531 278.03C650.197 278.03 649.913 277.919 649.679 277.696C649.444 277.474 649.327 277.207 649.327 276.896C649.327 276.58 649.444 276.311 649.679 276.088C649.913 275.865 650.197 275.754 650.531 275.754C650.859 275.754 651.141 275.865 651.375 276.088C651.615 276.311 651.735 276.58 651.735 276.896C651.735 277.207 651.615 277.474 651.375 277.696C651.141 277.919 650.859 278.03 650.531 278.03ZM657.87 279.542V281.08H652.509V279.542H657.87ZM653.941 277.204H655.849V286.485C655.849 286.937 655.942 287.268 656.13 287.479C656.317 287.684 656.619 287.786 657.035 287.786C657.135 287.786 657.24 287.78 657.352 287.769C657.469 287.757 657.586 287.739 657.703 287.716L658.063 289.298C657.87 289.362 657.659 289.412 657.431 289.447C657.202 289.482 656.974 289.5 656.745 289.5C655.896 289.5 655.216 289.263 654.706 288.788C654.196 288.308 653.941 287.669 653.941 286.872V277.204ZM661.351 283.541V289.368H659.452V276.272H661.324V281.159H661.456C661.685 280.626 662.033 280.204 662.502 279.894C662.977 279.577 663.595 279.419 664.356 279.419C665.03 279.419 665.619 279.557 666.123 279.832C666.627 280.107 667.02 280.521 667.301 281.071C667.588 281.622 667.731 282.308 667.731 283.128V289.368H665.815V283.356C665.815 282.63 665.628 282.067 665.253 281.669C664.884 281.271 664.368 281.071 663.706 281.071C663.249 281.071 662.845 281.171 662.493 281.37C662.142 281.563 661.863 281.842 661.658 282.205C661.453 282.568 661.351 283.014 661.351 283.541ZM673.708 289.368V276.272H678.384C679.397 276.272 680.238 276.448 680.906 276.8C681.574 277.146 682.075 277.629 682.409 278.25C682.743 278.865 682.91 279.577 682.91 280.386C682.91 281.183 682.743 281.886 682.409 282.495C682.075 283.104 681.571 283.576 680.897 283.91C680.229 284.244 679.386 284.411 678.366 284.411H674.842V282.724H678.182C678.832 282.724 679.356 282.63 679.755 282.442C680.159 282.255 680.452 281.988 680.634 281.643C680.821 281.297 680.915 280.878 680.915 280.386C680.915 279.888 680.821 279.46 680.634 279.103C680.446 278.739 680.15 278.461 679.746 278.268C679.348 278.068 678.823 277.969 678.173 277.969H675.686V289.368H673.708ZM681.161 289.368L677.988 283.453H680.177L683.411 289.368H681.161ZM688.535 289.57C687.574 289.57 686.742 289.362 686.039 288.946C685.336 288.53 684.794 287.944 684.413 287.188C684.038 286.427 683.851 285.539 683.851 284.525C683.851 283.518 684.035 282.63 684.404 281.862C684.779 281.095 685.304 280.497 685.978 280.069C686.657 279.636 687.454 279.419 688.368 279.419C688.925 279.419 689.464 279.51 689.985 279.691C690.507 279.873 690.976 280.16 691.392 280.553C691.808 280.945 692.136 281.455 692.376 282.082C692.622 282.709 692.745 283.465 692.745 284.35V285.035H684.932V283.603H691.761L690.873 284.077C690.873 283.474 690.779 282.94 690.592 282.478C690.404 282.015 690.123 281.654 689.748 281.396C689.379 281.133 688.919 281.001 688.368 281.001C687.817 281.001 687.346 281.133 686.953 281.396C686.566 281.66 686.271 282.009 686.065 282.442C685.86 282.876 685.758 283.351 685.758 283.866V284.842C685.758 285.516 685.875 286.087 686.109 286.556C686.344 287.024 686.669 287.382 687.085 287.628C687.507 287.874 687.996 287.997 688.553 287.997C688.916 287.997 689.244 287.944 689.537 287.839C689.836 287.733 690.094 287.575 690.311 287.364C690.527 287.153 690.691 286.893 690.803 286.582L692.613 286.925C692.467 287.452 692.209 287.915 691.84 288.313C691.471 288.712 691.005 289.022 690.442 289.245C689.886 289.462 689.25 289.57 688.535 289.57ZM701.429 281.95L699.697 282.249C699.586 281.921 699.378 281.619 699.073 281.344C698.774 281.068 698.326 280.931 697.729 280.931C697.189 280.931 696.738 281.054 696.375 281.3C696.018 281.54 695.839 281.848 695.839 282.223C695.839 282.551 695.959 282.817 696.199 283.022C696.445 283.228 696.835 283.392 697.368 283.515L698.941 283.866C699.838 284.071 700.509 284.394 700.954 284.833C701.399 285.272 701.622 285.835 701.622 286.521C701.622 287.112 701.452 287.64 701.112 288.103C700.772 288.56 700.301 288.92 699.697 289.184C699.094 289.441 698.396 289.57 697.605 289.57C696.504 289.57 695.607 289.333 694.916 288.858C694.225 288.384 693.8 287.716 693.642 286.854L695.479 286.573C695.596 287.054 695.833 287.417 696.19 287.663C696.554 287.909 697.022 288.032 697.597 288.032C698.218 288.032 698.716 287.9 699.091 287.637C699.472 287.373 699.662 287.054 699.662 286.679C699.662 286.058 699.199 285.639 698.273 285.422L696.612 285.053C695.692 284.842 695.013 284.511 694.573 284.06C694.14 283.603 693.923 283.028 693.923 282.337C693.923 281.757 694.084 281.247 694.406 280.808C694.734 280.368 695.183 280.028 695.751 279.788C696.325 279.542 696.979 279.419 697.711 279.419C698.777 279.419 699.612 279.65 700.216 280.113C700.825 280.576 701.229 281.188 701.429 281.95ZM707.08 289.57C706.16 289.57 705.354 289.359 704.663 288.938C703.978 288.516 703.444 287.924 703.063 287.162C702.688 286.4 702.501 285.516 702.501 284.508C702.501 283.488 702.688 282.598 703.063 281.836C703.444 281.068 703.978 280.474 704.663 280.052C705.354 279.63 706.16 279.419 707.08 279.419C708.006 279.419 708.812 279.63 709.497 280.052C710.183 280.474 710.716 281.068 711.097 281.836C711.478 282.598 711.668 283.488 711.668 284.508C711.668 285.516 711.478 286.4 711.097 287.162C710.716 287.924 710.183 288.516 709.497 288.938C708.812 289.359 708.006 289.57 707.08 289.57ZM707.08 287.962C707.684 287.962 708.182 287.804 708.574 287.487C708.967 287.171 709.257 286.752 709.444 286.23C709.638 285.703 709.734 285.129 709.734 284.508C709.734 283.875 709.638 283.295 709.444 282.768C709.257 282.24 708.967 281.818 708.574 281.502C708.182 281.186 707.684 281.027 707.08 281.027C706.482 281.027 705.987 281.186 705.595 281.502C705.208 281.818 704.918 282.24 704.725 282.768C704.531 283.295 704.435 283.875 704.435 284.508C704.435 285.129 704.531 285.703 704.725 286.23C704.918 286.752 705.208 287.171 705.595 287.487C705.987 287.804 706.482 287.962 707.08 287.962ZM714.946 276.272V289.368H713.048V276.272H714.946ZM725.159 279.542L721.608 289.368H719.552L715.992 279.542H718.04L720.536 287.118H720.642L723.12 279.542H725.159ZM730.09 289.57C729.129 289.57 728.297 289.362 727.594 288.946C726.891 288.53 726.349 287.944 725.968 287.188C725.593 286.427 725.405 285.539 725.405 284.525C725.405 283.518 725.59 282.63 725.959 281.862C726.334 281.095 726.858 280.497 727.532 280.069C728.212 279.636 729.009 279.419 729.923 279.419C730.479 279.419 731.019 279.51 731.54 279.691C732.062 279.873 732.53 280.16 732.946 280.553C733.362 280.945 733.69 281.455 733.931 282.082C734.177 282.709 734.3 283.465 734.3 284.35V285.035H726.486V283.603H733.315L732.428 284.077C732.428 283.474 732.334 282.94 732.146 282.478C731.959 282.015 731.678 281.654 731.303 281.396C730.934 281.133 730.474 281.001 729.923 281.001C729.372 281.001 728.9 281.133 728.508 281.396C728.121 281.66 727.825 282.009 727.62 282.442C727.415 282.876 727.312 283.351 727.312 283.866V284.842C727.312 285.516 727.43 286.087 727.664 286.556C727.898 287.024 728.224 287.382 728.64 287.628C729.062 287.874 729.551 287.997 730.107 287.997C730.471 287.997 730.799 287.944 731.092 287.839C731.391 287.733 731.648 287.575 731.865 287.364C732.082 287.153 732.246 286.893 732.357 286.582L734.168 286.925C734.021 287.452 733.764 287.915 733.395 288.313C733.025 288.712 732.56 289.022 731.997 289.245C731.44 289.462 730.805 289.57 730.09 289.57ZM740.9 289.368H738.8L743.511 276.272H745.796L750.498 289.368H748.406L744.697 278.654H744.592L740.9 289.368ZM741.252 284.244H748.046V285.896H741.252V284.244ZM753.592 276.272V289.368H751.614V276.272H753.592ZM764.147 279.542V281.08H758.786V279.542H764.147ZM760.219 277.204H762.126V286.485C762.126 286.937 762.22 287.268 762.407 287.479C762.595 287.684 762.896 287.786 763.312 287.786C763.412 287.786 763.518 287.78 763.629 287.769C763.746 287.757 763.863 287.739 763.98 287.716L764.341 289.298C764.147 289.362 763.937 289.412 763.708 289.447C763.479 289.482 763.251 289.5 763.022 289.5C762.173 289.5 761.493 289.263 760.983 288.788C760.474 288.308 760.219 287.669 760.219 286.872V277.204ZM769.535 289.57C768.615 289.57 767.81 289.359 767.118 288.938C766.433 288.516 765.899 287.924 765.519 287.162C765.144 286.4 764.956 285.516 764.956 284.508C764.956 283.488 765.144 282.598 765.519 281.836C765.899 281.068 766.433 280.474 767.118 280.052C767.81 279.63 768.615 279.419 769.535 279.419C770.461 279.419 771.267 279.63 771.952 280.052C772.638 280.474 773.171 281.068 773.552 281.836C773.933 282.598 774.123 283.488 774.123 284.508C774.123 285.516 773.933 286.4 773.552 287.162C773.171 287.924 772.638 288.516 771.952 288.938C771.267 289.359 770.461 289.57 769.535 289.57ZM769.535 287.962C770.139 287.962 770.637 287.804 771.029 287.487C771.422 287.171 771.712 286.752 771.899 286.23C772.093 285.703 772.189 285.129 772.189 284.508C772.189 283.875 772.093 283.295 771.899 282.768C771.712 282.24 771.422 281.818 771.029 281.502C770.637 281.186 770.139 281.027 769.535 281.027C768.938 281.027 768.442 281.186 768.05 281.502C767.663 281.818 767.373 282.24 767.18 282.768C766.986 283.295 766.89 283.875 766.89 284.508C766.89 285.129 766.986 285.703 767.18 286.23C767.373 286.752 767.663 287.171 768.05 287.487C768.442 287.804 768.938 287.962 769.535 287.962ZM779.625 289.57C778.705 289.57 777.899 289.359 777.208 288.938C776.522 288.516 775.989 287.924 775.608 287.162C775.233 286.4 775.046 285.516 775.046 284.508C775.046 283.488 775.233 282.598 775.608 281.836C775.989 281.068 776.522 280.474 777.208 280.052C777.899 279.63 778.705 279.419 779.625 279.419C780.551 279.419 781.356 279.63 782.042 280.052C782.728 280.474 783.261 281.068 783.642 281.836C784.022 282.598 784.213 283.488 784.213 284.508C784.213 285.516 784.022 286.4 783.642 287.162C783.261 287.924 782.728 288.516 782.042 288.938C781.356 289.359 780.551 289.57 779.625 289.57ZM779.625 287.962C780.229 287.962 780.727 287.804 781.119 287.487C781.512 287.171 781.802 286.752 781.989 286.23C782.183 285.703 782.279 285.129 782.279 284.508C782.279 283.875 782.183 283.295 781.989 282.768C781.802 282.24 781.512 281.818 781.119 281.502C780.727 281.186 780.229 281.027 779.625 281.027C779.027 281.027 778.532 281.186 778.14 281.502C777.753 281.818 777.463 282.24 777.27 282.768C777.076 283.295 776.979 283.875 776.979 284.508C776.979 285.129 777.076 285.703 777.27 286.23C777.463 286.752 777.753 287.171 778.14 287.487C778.532 287.804 779.027 287.962 779.625 287.962ZM787.491 276.272V289.368H785.593V276.272H787.491Z" fill="black"/>
<path fill-rule="evenodd" clip-rule="evenodd" d="M857.466 272.869C857.997 272.85 858.449 273.249 858.497 273.778C858.632 275.26 858.484 276.481 858.06 277.467C857.627 278.472 856.934 279.166 856.107 279.62C855.046 280.202 853.779 280.376 852.589 280.402C852.914 281.548 852.725 282.593 852.101 283.391C851.275 284.446 849.771 284.871 848.554 284.263C847.342 283.657 846.477 283.666 845.828 283.911C845.141 284.171 844.511 284.764 843.93 285.67C842.91 287.262 842.265 289.442 841.715 291.296C841.627 291.593 841.542 291.883 841.458 292.159C841.305 292.659 840.794 292.958 840.284 292.844C839.774 292.731 839.437 292.244 839.511 291.727C839.946 288.684 841.344 284.122 844.154 280.244C846.981 276.342 851.283 273.082 857.466 272.869ZM845.404 281.944C846.62 281.576 847.975 281.737 849.448 282.474C849.731 282.615 850.226 282.541 850.526 282.158C850.747 281.876 851.005 281.177 850.169 279.923C849.959 279.608 849.945 279.202 850.132 278.873C850.319 278.545 850.676 278.35 851.053 278.37C852.665 278.454 854.136 278.42 855.145 277.866C855.609 277.612 855.979 277.244 856.223 276.676C856.405 276.253 856.531 275.688 856.544 274.933C851.653 275.408 848.178 278.098 845.773 281.417C845.647 281.591 845.524 281.767 845.404 281.944Z" fill="black"/>
<path d="M840.113 277.518C839.952 277.037 839.575 276.659 839.094 276.499C838.604 276.336 838.604 275.643 839.094 275.48C839.575 275.32 839.952 274.942 840.113 274.461C840.276 273.971 840.968 273.971 841.132 274.461C841.292 274.942 841.67 275.32 842.151 275.48C842.64 275.643 842.64 276.336 842.151 276.499C841.67 276.659 841.292 277.037 841.132 277.518C840.968 278.008 840.276 278.008 840.113 277.518Z" fill="black"/>
<path d="M849.094 289.499C849.575 289.659 849.952 290.037 850.113 290.518C850.276 291.008 850.968 291.008 851.132 290.518C851.292 290.037 851.67 289.659 852.151 289.499C852.64 289.336 852.64 288.643 852.151 288.48C851.669 288.32 851.292 287.942 851.132 287.461C850.968 286.971 850.276 286.971 850.113 287.461C849.952 287.942 849.575 288.32 849.094 288.48C848.604 288.643 848.604 289.336 849.094 289.499Z" fill="black"/>
</g>
<g clip-path="url(#clip1_1_4835)">
<path d="M148 308.568H156C157.933 308.568 159.5 310.135 159.5 312.068V320.068C159.5 322.001 157.933 323.568 156 323.568H148C146.067 323.568 144.5 322.001 144.5 320.068V312.068C144.5 310.135 146.067 308.568 148 308.568Z" stroke="black" stroke-opacity="0.1"/>
<path d="M132 292.068H140C142.209 292.068 144 293.859 144 296.068V304.068C144 306.277 142.209 308.068 140 308.068H132C129.791 308.068 128 306.277 128 304.068V296.068C128 293.859 129.791 292.068 132 292.068Z" fill="url(#paint1_linear_1_4835)" fill-opacity="0.1"/>
<path d="M132 292.568H140C141.933 292.568 143.5 294.135 143.5 296.068V304.068C143.5 306.001 141.933 307.568 140 307.568H132C130.067 307.568 128.5 306.001 128.5 304.068V296.068C128.5 294.135 130.067 292.568 132 292.568Z" stroke="url(#paint2_linear_1_4835)" stroke-opacity="0.15"/>
<path d="M100 323.568H108C109.933 323.568 111.5 325.135 111.5 327.068V335.068C111.5 337.001 109.933 338.568 108 338.568H100C98.067 338.568 96.5 337.001 96.5 335.068V327.068C96.5 325.135 98.067 323.568 100 323.568Z" stroke="black" stroke-opacity="0.1"/>
<path d="M84 307.568H92C93.933 307.568 95.5 309.135 95.5 311.068V319.068C95.5 321.001 93.933 322.568 92 322.568H84C82.067 322.568 80.5 321.001 80.5 319.068V311.068C80.5 309.135 82.067 307.568 84 307.568Z" stroke="black" stroke-opacity="0.1"/>
<path d="M52 307.068H60C62.2091 307.068 64 308.859 64 311.068V319.068C64 321.277 62.2091 323.068 60 323.068H52C49.7909 323.068 48 321.277 48 319.068V311.068C48 308.859 49.7909 307.068 52 307.068Z" fill="#CCCCCC" fill-opacity="0.1"/>
<path d="M52 307.568H60C61.933 307.568 63.5 309.135 63.5 311.068V319.068C63.5 321.001 61.933 322.568 60 322.568H52C50.067 322.568 48.5 321.001 48.5 319.068V311.068C48.5 309.135 50.067 307.568 52 307.568Z" stroke="black" stroke-opacity="0.1"/>
<path d="M68 291.568H76C77.933 291.568 79.5 293.135 79.5 295.068V303.068C79.5 305.001 77.933 306.568 76 306.568H68C66.067 306.568 64.5 305.001 64.5 303.068V295.068C64.5 293.135 66.067 291.568 68 291.568Z" stroke="black" stroke-opacity="0.1"/>
<path d="M84 275.068H92C94.2091 275.068 96 276.859 96 279.068V287.068C96 289.277 94.2091 291.068 92 291.068H84C81.7909 291.068 80 289.277 80 287.068V279.068C80 276.859 81.7909 275.068 84 275.068Z" fill="url(#paint3_linear_1_4835)" fill-opacity="0.1"/>
<path d="M84 275.568H92C93.933 275.568 95.5 277.135 95.5 279.068V287.068C95.5 289.001 93.933 290.568 92 290.568H84C82.067 290.568 80.5 289.001 80.5 287.068V279.068C80.5 277.135 82.067 275.568 84 275.568Z" stroke="url(#paint4_linear_1_4835)" stroke-opacity="0.15"/>
<path d="M100 259.568H108C109.933 259.568 111.5 261.135 111.5 263.068V271.068C111.5 273.001 109.933 274.568 108 274.568H100C98.067 274.568 96.5 273.001 96.5 271.068V263.068C96.5 261.135 98.067 259.568 100 259.568Z" stroke="black" stroke-opacity="0.1"/>
<path d="M116 243.568H124C125.933 243.568 127.5 245.135 127.5 247.068V255.068C127.5 257.001 125.933 258.568 124 258.568H116C114.067 258.568 112.5 257.001 112.5 255.068V247.068C112.5 245.135 114.067 243.568 116 243.568Z" stroke="black" stroke-opacity="0.1"/>
<path d="M180 243.568H188C189.933 243.568 191.5 245.135 191.5 247.068V255.068C191.5 257.001 189.933 258.568 188 258.568H180C178.067 258.568 176.5 257.001 176.5 255.068V247.068C176.5 245.135 178.067 243.568 180 243.568Z" stroke="black" stroke-opacity="0.1"/>
<path d="M164 227.568H172C173.933 227.568 175.5 229.135 175.5 231.068V239.068C175.5 241.001 173.933 242.568 172 242.568H164C162.067 242.568 160.5 241.001 160.5 239.068V231.068C160.5 229.135 162.067 227.568 164 227.568Z" stroke="black" stroke-opacity="0.1"/>
<path d="M228 259.568H236C237.933 259.568 239.5 261.135 239.5 263.068V271.068C239.5 273.001 237.933 274.568 236 274.568H228C226.067 274.568 224.5 273.001 224.5 271.068V263.068C224.5 261.135 226.067 259.568 228 259.568Z" stroke="black" stroke-opacity="0.1"/>
<path d="M212 211.068H220C222.209 211.068 224 212.859 224 215.068V223.068C224 225.277 222.209 227.068 220 227.068H212C209.791 227.068 208 225.277 208 223.068V215.068C208 212.859 209.791 211.068 212 211.068Z" fill="url(#paint5_linear_1_4835)" fill-opacity="0.1"/>
<path d="M212 211.568H220C221.933 211.568 223.5 213.135 223.5 215.068V223.068C223.5 225.001 221.933 226.568 220 226.568H212C210.067 226.568 208.5 225.001 208.5 223.068V215.068C208.5 213.135 210.067 211.568 212 211.568Z" stroke="url(#paint6_linear_1_4835)" stroke-opacity="0.15"/>
<path d="M228 195.568H236C237.933 195.568 239.5 197.135 239.5 199.068V207.068C239.5 209.001 237.933 210.568 236 210.568H228C226.067 210.568 224.5 209.001 224.5 207.068V199.068C224.5 197.135 226.067 195.568 228 195.568Z" stroke="black" stroke-opacity="0.1"/>
<path d="M276 211.568H284C285.933 211.568 287.5 213.135 287.5 215.068V223.068C287.5 225.001 285.933 226.568 284 226.568H276C274.067 226.568 272.5 225.001 272.5 223.068V215.068C272.5 213.135 274.067 211.568 276 211.568Z" stroke="black" stroke-opacity="0.1"/>
<path d="M260 163.568H268C269.933 163.568 271.5 165.135 271.5 167.068V175.068C271.5 177.001 269.933 178.568 268 178.568H260C258.067 178.568 256.5 177.001 256.5 175.068V167.068C256.5 165.135 258.067 163.568 260 163.568Z" stroke="black" stroke-opacity="0.1"/>
<path d="M52 275.568H60C61.933 275.568 63.5 277.135 63.5 279.068V287.068C63.5 289.001 61.933 290.568 60 290.568H52C50.067 290.568 48.5 289.001 48.5 287.068V279.068C48.5 277.135 50.067 275.568 52 275.568Z" stroke="black" stroke-opacity="0.1"/>
<path d="M36 259.568H44C45.933 259.568 47.5 261.135 47.5 263.068V271.068C47.5 273.001 45.933 274.568 44 274.568H36C34.067 274.568 32.5 273.001 32.5 271.068V263.068C32.5 261.135 34.067 259.568 36 259.568Z" stroke="black" stroke-opacity="0.1"/>
<path d="M84 339.568H92C93.933 339.568 95.5 341.135 95.5 343.068V351.068C95.5 353.001 93.933 354.568 92 354.568H84C82.067 354.568 80.5 353.001 80.5 351.068V343.068C80.5 341.135 82.067 339.568 84 339.568Z" stroke="black" stroke-opacity="0.1"/>
<path d="M148 355.568H156C157.933 355.568 159.5 357.135 159.5 359.068V367.068C159.5 369.001 157.933 370.568 156 370.568H148C146.067 370.568 144.5 369.001 144.5 367.068V359.068C144.5 357.135 146.067 355.568 148 355.568Z" stroke="black" stroke-opacity="0.1"/>
<path d="M180 339.568H188C189.933 339.568 191.5 341.135 191.5 343.068V351.068C191.5 353.001 189.933 354.568 188 354.568H180C178.067 354.568 176.5 353.001 176.5 351.068V343.068C176.5 341.135 178.067 339.568 180 339.568Z" stroke="black" stroke-opacity="0.1"/>
<path d="M260 323.568H268C269.933 323.568 271.5 325.135 271.5 327.068V335.068C271.5 337.001 269.933 338.568 268 338.568H260C258.067 338.568 256.5 337.001 256.5 335.068V327.068C256.5 325.135 258.067 323.568 260 323.568Z" stroke="black" stroke-opacity="0.1"/>
<path d="M212 339.568H220C221.933 339.568 223.5 341.135 223.5 343.068V351.068C223.5 353.001 221.933 354.568 220 354.568H212C210.067 354.568 208.5 353.001 208.5 351.068V343.068C208.5 341.135 210.067 339.568 212 339.568Z" stroke="black" stroke-opacity="0.1"/>
<path d="M228 323.568H236C237.933 323.568 239.5 325.135 239.5 327.068V335.068C239.5 337.001 237.933 338.568 236 338.568H228C226.067 338.568 224.5 337.001 224.5 335.068V327.068C224.5 325.135 226.067 323.568 228 323.568Z" stroke="black" stroke-opacity="0.1"/>
<path d="M212 291.568H220C221.933 291.568 223.5 293.135 223.5 295.068V303.068C223.5 305.001 221.933 306.568 220 306.568H212C210.067 306.568 208.5 305.001 208.5 303.068V295.068C208.5 293.135 210.067 291.568 212 291.568Z" stroke="black" stroke-opacity="0.1"/>
<path d="M196 307.068H204C206.209 307.068 208 308.859 208 311.068V319.068C208 321.277 206.209 323.068 204 323.068H196C193.791 323.068 192 321.277 192 319.068V311.068C192 308.859 193.791 307.068 196 307.068Z" fill="url(#paint7_linear_1_4835)" fill-opacity="0.1"/>
<path d="M196 307.568H204C205.933 307.568 207.5 309.135 207.5 311.068V319.068C207.5 321.001 205.933 322.568 204 322.568H196C194.067 322.568 192.5 321.001 192.5 319.068V311.068C192.5 309.135 194.067 307.568 196 307.568Z" stroke="url(#paint8_linear_1_4835)" stroke-opacity="0.15"/>
<path d="M180 291.568H188C189.933 291.568 191.5 293.135 191.5 295.068V303.068C191.5 305.001 189.933 306.568 188 306.568H180C178.067 306.568 176.5 305.001 176.5 303.068V295.068C176.5 293.135 178.067 291.568 180 291.568Z" stroke="black" stroke-opacity="0.1"/>
<path d="M244 275.568H252C253.933 275.568 255.5 277.135 255.5 279.068V287.068C255.5 289.001 253.933 290.568 252 290.568H244C242.067 290.568 240.5 289.001 240.5 287.068V279.068C240.5 277.135 242.067 275.568 244 275.568Z" stroke="black" stroke-opacity="0.1"/>
<path d="M68 355.568H76C77.933 355.568 79.5 357.135 79.5 359.068V367.068C79.5 369.001 77.933 370.568 76 370.568H68C66.067 370.568 64.5 369.001 64.5 367.068V359.068C64.5 357.135 66.067 355.568 68 355.568Z" stroke="black" stroke-opacity="0.1"/>
<path d="M36 355.068H44C46.2091 355.068 48 356.859 48 359.068V367.068C48 369.277 46.2091 371.068 44 371.068H36C33.7909 371.068 32 369.277 32 367.068V359.068C32 356.859 33.7909 355.068 36 355.068Z" fill="#CCCCCC" fill-opacity="0.1"/>
<path d="M36 355.568H44C45.933 355.568 47.5 357.135 47.5 359.068V367.068C47.5 369.001 45.933 370.568 44 370.568H36C34.067 370.568 32.5 369.001 32.5 367.068V359.068C32.5 357.135 34.067 355.568 36 355.568Z" stroke="black" stroke-opacity="0.1"/>
<path d="M52 371.568H60C61.933 371.568 63.5 373.135 63.5 375.068V383.068C63.5 385.001 61.933 386.568 60 386.568H52C50.067 386.568 48.5 385.001 48.5 383.068V375.068C48.5 373.135 50.067 371.568 52 371.568Z" stroke="black" stroke-opacity="0.1"/>
<path d="M68 387.068H76C78.2091 387.068 80 388.859 80 391.068V399.068C80 401.277 78.2091 403.068 76 403.068H68C65.7909 403.068 64 401.277 64 399.068V391.068C64 388.859 65.7909 387.068 68 387.068Z" fill="url(#paint9_linear_1_4835)" fill-opacity="0.1"/>
<path d="M68 387.568H76C77.933 387.568 79.5 389.135 79.5 391.068V399.068C79.5 401.001 77.933 402.568 76 402.568H68C66.067 402.568 64.5 401.001 64.5 399.068V391.068C64.5 389.135 66.067 387.568 68 387.568Z" stroke="url(#paint10_linear_1_4835)" stroke-opacity="0.15"/>
<path d="M84 403.568H92C93.933 403.568 95.5 405.135 95.5 407.068V415.068C95.5 417.001 93.933 418.568 92 418.568H84C82.067 418.568 80.5 417.001 80.5 415.068V407.068C80.5 405.135 82.067 403.568 84 403.568Z" stroke="black" stroke-opacity="0.1"/>
<path d="M4 355.568H12C13.933 355.568 15.5 357.135 15.5 359.068V367.068C15.5 369.001 13.933 370.568 12 370.568H4C2.067 370.568 0.5 369.001 0.5 367.068V359.068C0.5 357.135 2.067 355.568 4 355.568Z" stroke="black" stroke-opacity="0.1"/>
<path d="M116 371.568H124C125.933 371.568 127.5 373.135 127.5 375.068V383.068C127.5 385.001 125.933 386.568 124 386.568H116C114.067 386.568 112.5 385.001 112.5 383.068V375.068C112.5 373.135 114.067 371.568 116 371.568Z" stroke="black" stroke-opacity="0.1"/>
<path d="M132 387.568H140C141.933 387.568 143.5 389.135 143.5 391.068V399.068C143.5 401.001 141.933 402.568 140 402.568H132C130.067 402.568 128.5 401.001 128.5 399.068V391.068C128.5 389.135 130.067 387.568 132 387.568Z" stroke="black" stroke-opacity="0.1"/>
<path d="M148 403.068H156C158.209 403.068 160 404.859 160 407.068V415.068C160 417.277 158.209 419.068 156 419.068H148C145.791 419.068 144 417.277 144 415.068V407.068C144 404.859 145.791 403.068 148 403.068Z" fill="#CCCCCC" fill-opacity="0.1"/>
<path d="M148 403.568H156C157.933 403.568 159.5 405.135 159.5 407.068V415.068C159.5 417.001 157.933 418.568 156 418.568H148C146.067 418.568 144.5 417.001 144.5 415.068V407.068C144.5 405.135 146.067 403.568 148 403.568Z" stroke="black" stroke-opacity="0.1"/>
</g>
<g clip-path="url(#clip2_1_4835)">
<path d="M1095.01 308.568H1086.04C1083.87 308.568 1082.12 310.135 1082.12 312.068V320.068C1082.12 322.001 1083.87 323.568 1086.04 323.568H1095.01C1097.18 323.568 1098.94 322.001 1098.94 320.068V312.068C1098.94 310.135 1097.18 308.568 1095.01 308.568Z" stroke="black" stroke-opacity="0.1"/>
<path d="M1112.96 292.068H1103.99C1101.51 292.068 1099.5 293.859 1099.5 296.068V304.068C1099.5 306.277 1101.51 308.068 1103.99 308.068H1112.96C1115.44 308.068 1117.44 306.277 1117.44 304.068V296.068C1117.44 293.859 1115.44 292.068 1112.96 292.068Z" fill="url(#paint11_linear_1_4835)" fill-opacity="0.1"/>
<path d="M1112.96 292.568H1103.99C1101.82 292.568 1100.06 294.135 1100.06 296.068V304.068C1100.06 306.001 1101.82 307.568 1103.99 307.568H1112.96C1115.13 307.568 1116.88 306.001 1116.88 304.068V296.068C1116.88 294.135 1115.13 292.568 1112.96 292.568Z" stroke="url(#paint12_linear_1_4835)" stroke-opacity="0.15"/>
<path d="M1148.85 323.568H1139.87C1137.71 323.568 1135.95 325.135 1135.95 327.068V335.068C1135.95 337.001 1137.71 338.568 1139.87 338.568H1148.85C1151.02 338.568 1152.77 337.001 1152.77 335.068V327.068C1152.77 325.135 1151.02 323.568 1148.85 323.568Z" stroke="black" stroke-opacity="0.1"/>
<path d="M1166.79 307.568H1157.82C1155.65 307.568 1153.89 309.135 1153.89 311.068V319.068C1153.89 321.001 1155.65 322.568 1157.82 322.568H1166.79C1168.96 322.568 1170.72 321.001 1170.72 319.068V311.068C1170.72 309.135 1168.96 307.568 1166.79 307.568Z" stroke="black" stroke-opacity="0.1"/>
<path d="M1202.68 307.068H1193.71C1191.23 307.068 1189.22 308.859 1189.22 311.068V319.068C1189.22 321.277 1191.23 323.068 1193.71 323.068H1202.68C1205.16 323.068 1207.17 321.277 1207.17 319.068V311.068C1207.17 308.859 1205.16 307.068 1202.68 307.068Z" fill="#CCCCCC" fill-opacity="0.1"/>
<path d="M1202.68 307.568H1193.71C1191.54 307.568 1189.78 309.135 1189.78 311.068V319.068C1189.78 321.001 1191.54 322.568 1193.71 322.568H1202.68C1204.85 322.568 1206.61 321.001 1206.61 319.068V311.068C1206.61 309.135 1204.85 307.568 1202.68 307.568Z" stroke="black" stroke-opacity="0.1"/>
<path d="M1184.74 291.568H1175.76C1173.6 291.568 1171.84 293.135 1171.84 295.068V303.068C1171.84 305.001 1173.6 306.568 1175.76 306.568H1184.74C1186.9 306.568 1188.66 305.001 1188.66 303.068V295.068C1188.66 293.135 1186.9 291.568 1184.74 291.568Z" stroke="black" stroke-opacity="0.1"/>
<path d="M1166.79 275.068H1157.82C1155.34 275.068 1153.33 276.859 1153.33 279.068V287.068C1153.33 289.277 1155.34 291.068 1157.82 291.068H1166.79C1169.27 291.068 1171.28 289.277 1171.28 287.068V279.068C1171.28 276.859 1169.27 275.068 1166.79 275.068Z" fill="url(#paint13_linear_1_4835)" fill-opacity="0.1"/>
<path d="M1166.79 275.568H1157.82C1155.65 275.568 1153.89 277.135 1153.89 279.068V287.068C1153.89 289.001 1155.65 290.568 1157.82 290.568H1166.79C1168.96 290.568 1170.72 289.001 1170.72 287.068V279.068C1170.72 277.135 1168.96 275.568 1166.79 275.568Z" stroke="url(#paint14_linear_1_4835)" stroke-opacity="0.15"/>
<path d="M1148.85 259.568H1139.87C1137.71 259.568 1135.95 261.135 1135.95 263.068V271.068C1135.95 273.001 1137.71 274.568 1139.87 274.568H1148.85C1151.02 274.568 1152.77 273.001 1152.77 271.068V263.068C1152.77 261.135 1151.02 259.568 1148.85 259.568Z" stroke="black" stroke-opacity="0.1"/>
<path d="M1130.9 243.568H1121.93C1119.76 243.568 1118.01 245.135 1118.01 247.068V255.068C1118.01 257.001 1119.76 258.568 1121.93 258.568H1130.9C1133.07 258.568 1134.83 257.001 1134.83 255.068V247.068C1134.83 245.135 1133.07 243.568 1130.9 243.568Z" stroke="black" stroke-opacity="0.1"/>
<path d="M1059.12 243.568H1050.15C1047.98 243.568 1046.23 245.135 1046.23 247.068V255.068C1046.23 257.001 1047.98 258.568 1050.15 258.568H1059.12C1061.29 258.568 1063.05 257.001 1063.05 255.068V247.068C1063.05 245.135 1061.29 243.568 1059.12 243.568Z" stroke="black" stroke-opacity="0.1"/>
<path d="M1077.07 227.568H1068.1C1065.93 227.568 1064.17 229.135 1064.17 231.068V239.068C1064.17 241.001 1065.93 242.568 1068.1 242.568H1077.07C1079.24 242.568 1080.99 241.001 1080.99 239.068V231.068C1080.99 229.135 1079.24 227.568 1077.07 227.568Z" stroke="black" stroke-opacity="0.1"/>
<path d="M1005.29 259.568H996.319C994.152 259.568 992.394 261.135 992.394 263.068V271.068C992.394 273.001 994.152 274.568 996.319 274.568H1005.29C1007.46 274.568 1009.22 273.001 1009.22 271.068V263.068C1009.22 261.135 1007.46 259.568 1005.29 259.568Z" stroke="black" stroke-opacity="0.1"/>
<path d="M1023.24 211.068H1014.26C1011.79 211.068 1009.78 212.859 1009.78 215.068V223.068C1009.78 225.277 1011.79 227.068 1014.26 227.068H1023.24C1025.71 227.068 1027.72 225.277 1027.72 223.068V215.068C1027.72 212.859 1025.71 211.068 1023.24 211.068Z" fill="url(#paint15_linear_1_4835)" fill-opacity="0.1"/>
<path d="M1023.24 211.568H1014.26C1012.1 211.568 1010.34 213.135 1010.34 215.068V223.068C1010.34 225.001 1012.1 226.568 1014.26 226.568H1023.24C1025.4 226.568 1027.16 225.001 1027.16 223.068V215.068C1027.16 213.135 1025.4 211.568 1023.24 211.568Z" stroke="url(#paint16_linear_1_4835)" stroke-opacity="0.15"/>
<path d="M1005.29 195.568H996.319C994.152 195.568 992.394 197.135 992.394 199.068V207.068C992.394 209.001 994.152 210.568 996.319 210.568H1005.29C1007.46 210.568 1009.22 209.001 1009.22 207.068V199.068C1009.22 197.135 1007.46 195.568 1005.29 195.568Z" stroke="black" stroke-opacity="0.1"/>
<path d="M951.458 211.568H942.486C940.318 211.568 938.561 213.135 938.561 215.068V223.068C938.561 225.001 940.318 226.568 942.486 226.568H951.458C953.626 226.568 955.384 225.001 955.384 223.068V215.068C955.384 213.135 953.626 211.568 951.458 211.568Z" stroke="black" stroke-opacity="0.1"/>
<path d="M969.403 163.568H960.431C958.263 163.568 956.505 165.135 956.505 167.068V175.068C956.505 177.001 958.263 178.568 960.431 178.568H969.403C971.571 178.568 973.328 177.001 973.328 175.068V167.068C973.328 165.135 971.571 163.568 969.403 163.568Z" stroke="black" stroke-opacity="0.1"/>
<path d="M1202.68 275.568H1193.71C1191.54 275.568 1189.78 277.135 1189.78 279.068V287.068C1189.78 289.001 1191.54 290.568 1193.71 290.568H1202.68C1204.85 290.568 1206.61 289.001 1206.61 287.068V279.068C1206.61 277.135 1204.85 275.568 1202.68 275.568Z" stroke="black" stroke-opacity="0.1"/>
<path d="M1220.62 259.568H1211.65C1209.48 259.568 1207.73 261.135 1207.73 263.068V271.068C1207.73 273.001 1209.48 274.568 1211.65 274.568H1220.62C1222.79 274.568 1224.55 273.001 1224.55 271.068V263.068C1224.55 261.135 1222.79 259.568 1220.62 259.568Z" stroke="black" stroke-opacity="0.1"/>
<path d="M1166.79 339.568H1157.82C1155.65 339.568 1153.89 341.135 1153.89 343.068V351.068C1153.89 353.001 1155.65 354.568 1157.82 354.568H1166.79C1168.96 354.568 1170.72 353.001 1170.72 351.068V343.068C1170.72 341.135 1168.96 339.568 1166.79 339.568Z" stroke="black" stroke-opacity="0.1"/>
<path d="M1095.01 355.568H1086.04C1083.87 355.568 1082.12 357.135 1082.12 359.068V367.068C1082.12 369.001 1083.87 370.568 1086.04 370.568H1095.01C1097.18 370.568 1098.94 369.001 1098.94 367.068V359.068C1098.94 357.135 1097.18 355.568 1095.01 355.568Z" stroke="black" stroke-opacity="0.1"/>
<path d="M1059.12 339.568H1050.15C1047.98 339.568 1046.23 341.135 1046.23 343.068V351.068C1046.23 353.001 1047.98 354.568 1050.15 354.568H1059.12C1061.29 354.568 1063.05 353.001 1063.05 351.068V343.068C1063.05 341.135 1061.29 339.568 1059.12 339.568Z" stroke="black" stroke-opacity="0.1"/>
<path d="M969.403 323.568H960.431C958.263 323.568 956.505 325.135 956.505 327.068V335.068C956.505 337.001 958.263 338.568 960.431 338.568H969.403C971.571 338.568 973.328 337.001 973.328 335.068V327.068C973.328 325.135 971.571 323.568 969.403 323.568Z" stroke="black" stroke-opacity="0.1"/>
<path d="M1023.24 339.568H1014.26C1012.1 339.568 1010.34 341.135 1010.34 343.068V351.068C1010.34 353.001 1012.1 354.568 1014.26 354.568H1023.24C1025.4 354.568 1027.16 353.001 1027.16 351.068V343.068C1027.16 341.135 1025.4 339.568 1023.24 339.568Z" stroke="black" stroke-opacity="0.1"/>
<path d="M1005.29 323.568H996.319C994.152 323.568 992.394 325.135 992.394 327.068V335.068C992.394 337.001 994.152 338.568 996.319 338.568H1005.29C1007.46 338.568 1009.22 337.001 1009.22 335.068V327.068C1009.22 325.135 1007.46 323.568 1005.29 323.568Z" stroke="black" stroke-opacity="0.1"/>
<path d="M1023.24 291.568H1014.26C1012.1 291.568 1010.34 293.135 1010.34 295.068V303.068C1010.34 305.001 1012.1 306.568 1014.26 306.568H1023.24C1025.4 306.568 1027.16 305.001 1027.16 303.068V295.068C1027.16 293.135 1025.4 291.568 1023.24 291.568Z" stroke="black" stroke-opacity="0.1"/>
<path d="M1041.18 307.068H1032.21C1029.73 307.068 1027.72 308.859 1027.72 311.068V319.068C1027.72 321.277 1029.73 323.068 1032.21 323.068H1041.18C1043.66 323.068 1045.67 321.277 1045.67 319.068V311.068C1045.67 308.859 1043.66 307.068 1041.18 307.068Z" fill="url(#paint17_linear_1_4835)" fill-opacity="0.1"/>
<path d="M1041.18 307.568H1032.21C1030.04 307.568 1028.28 309.135 1028.28 311.068V319.068C1028.28 321.001 1030.04 322.568 1032.21 322.568H1041.18C1043.35 322.568 1045.11 321.001 1045.11 319.068V311.068C1045.11 309.135 1043.35 307.568 1041.18 307.568Z" stroke="url(#paint18_linear_1_4835)" stroke-opacity="0.15"/>
<path d="M1059.12 291.568H1050.15C1047.98 291.568 1046.23 293.135 1046.23 295.068V303.068C1046.23 305.001 1047.98 306.568 1050.15 306.568H1059.12C1061.29 306.568 1063.05 305.001 1063.05 303.068V295.068C1063.05 293.135 1061.29 291.568 1059.12 291.568Z" stroke="black" stroke-opacity="0.1"/>
<path d="M987.347 275.568H978.375C976.207 275.568 974.45 277.135 974.45 279.068V287.068C974.45 289.001 976.207 290.568 978.375 290.568H987.347C989.515 290.568 991.273 289.001 991.273 287.068V279.068C991.273 277.135 989.515 275.568 987.347 275.568Z" stroke="black" stroke-opacity="0.1"/>
<path d="M1184.74 355.568H1175.76C1173.6 355.568 1171.84 357.135 1171.84 359.068V367.068C1171.84 369.001 1173.6 370.568 1175.76 370.568H1184.74C1186.9 370.568 1188.66 369.001 1188.66 367.068V359.068C1188.66 357.135 1186.9 355.568 1184.74 355.568Z" stroke="black" stroke-opacity="0.1"/>
<path d="M1220.62 355.068H1211.65C1209.18 355.068 1207.17 356.859 1207.17 359.068V367.068C1207.17 369.277 1209.18 371.068 1211.65 371.068H1220.62C1223.1 371.068 1225.11 369.277 1225.11 367.068V359.068C1225.11 356.859 1223.1 355.068 1220.62 355.068Z" fill="#CCCCCC" fill-opacity="0.1"/>
<path d="M1220.62 355.568H1211.65C1209.48 355.568 1207.73 357.135 1207.73 359.068V367.068C1207.73 369.001 1209.48 370.568 1211.65 370.568H1220.62C1222.79 370.568 1224.55 369.001 1224.55 367.068V359.068C1224.55 357.135 1222.79 355.568 1220.62 355.568Z" stroke="black" stroke-opacity="0.1"/>
<path d="M1202.68 371.568H1193.71C1191.54 371.568 1189.78 373.135 1189.78 375.068V383.068C1189.78 385.001 1191.54 386.568 1193.71 386.568H1202.68C1204.85 386.568 1206.61 385.001 1206.61 383.068V375.068C1206.61 373.135 1204.85 371.568 1202.68 371.568Z" stroke="black" stroke-opacity="0.1"/>
<path d="M1184.74 387.068H1175.76C1173.29 387.068 1171.28 388.859 1171.28 391.068V399.068C1171.28 401.277 1173.29 403.068 1175.76 403.068H1184.74C1187.21 403.068 1189.22 401.277 1189.22 399.068V391.068C1189.22 388.859 1187.21 387.068 1184.74 387.068Z" fill="url(#paint19_linear_1_4835)" fill-opacity="0.1"/>
<path d="M1184.74 387.568H1175.76C1173.6 387.568 1171.84 389.135 1171.84 391.068V399.068C1171.84 401.001 1173.6 402.568 1175.76 402.568H1184.74C1186.9 402.568 1188.66 401.001 1188.66 399.068V391.068C1188.66 389.135 1186.9 387.568 1184.74 387.568Z" stroke="url(#paint20_linear_1_4835)" stroke-opacity="0.15"/>
<path d="M1166.79 403.568H1157.82C1155.65 403.568 1153.89 405.135 1153.89 407.068V415.068C1153.89 417.001 1155.65 418.568 1157.82 418.568H1166.79C1168.96 418.568 1170.72 417.001 1170.72 415.068V407.068C1170.72 405.135 1168.96 403.568 1166.79 403.568Z" stroke="black" stroke-opacity="0.1"/>
<path d="M1256.51 355.568H1247.54C1245.37 355.568 1243.62 357.135 1243.62 359.068V367.068C1243.62 369.001 1245.37 370.568 1247.54 370.568H1256.51C1258.68 370.568 1260.44 369.001 1260.44 367.068V359.068C1260.44 357.135 1258.68 355.568 1256.51 355.568Z" stroke="black" stroke-opacity="0.1"/>
<path d="M1130.9 371.568H1121.93C1119.76 371.568 1118.01 373.135 1118.01 375.068V383.068C1118.01 385.001 1119.76 386.568 1121.93 386.568H1130.9C1133.07 386.568 1134.83 385.001 1134.83 383.068V375.068C1134.83 373.135 1133.07 371.568 1130.9 371.568Z" stroke="black" stroke-opacity="0.1"/>
<path d="M1112.96 387.568H1103.99C1101.82 387.568 1100.06 389.135 1100.06 391.068V399.068C1100.06 401.001 1101.82 402.568 1103.99 402.568H1112.96C1115.13 402.568 1116.88 401.001 1116.88 399.068V391.068C1116.88 389.135 1115.13 387.568 1112.96 387.568Z" stroke="black" stroke-opacity="0.1"/>
<path d="M1095.01 403.068H1086.04C1083.56 403.068 1081.56 404.859 1081.56 407.068V415.068C1081.56 417.277 1083.56 419.068 1086.04 419.068H1095.01C1097.49 419.068 1099.5 417.277 1099.5 415.068V407.068C1099.5 404.859 1097.49 403.068 1095.01 403.068Z" fill="#CCCCCC" fill-opacity="0.1"/>
<path d="M1095.01 403.568H1086.04C1083.87 403.568 1082.12 405.135 1082.12 407.068V415.068C1082.12 417.001 1083.87 418.568 1086.04 418.568H1095.01C1097.18 418.568 1098.94 417.001 1098.94 415.068V407.068C1098.94 405.135 1097.18 403.568 1095.01 403.568Z" stroke="black" stroke-opacity="0.1"/>
</g>
<defs>
<radialGradient id="paint0_radial_1_4835" cx="0" cy="0" r="1" gradientUnits="userSpaceOnUse" gradientTransform="translate(444.5 268.368) rotate(114.399) scale(53.2565 54.8228)">
<stop/>
<stop offset="1" stop-color="#333333"/>
</radialGradient>
<linearGradient id="paint1_linear_1_4835" x1="144" y1="292.068" x2="128" y2="308.068" gradientUnits="userSpaceOnUse">
<stop offset="0.005" stop-color="#FAFAFA"/>
<stop offset="1" stop-color="#E6E6E6"/>
</linearGradient>
<linearGradient id="paint2_linear_1_4835" x1="144" y1="292.068" x2="128" y2="308.068" gradientUnits="userSpaceOnUse">
<stop offset="0.005" stop-color="#CCCCCC"/>
<stop offset="1" stop-color="#E6E6E6"/>
</linearGradient>
<linearGradient id="paint3_linear_1_4835" x1="96" y1="275.068" x2="80" y2="291.068" gradientUnits="userSpaceOnUse">
<stop offset="0.005" stop-color="#FAFAFA"/>
<stop offset="1" stop-color="#E6E6E6"/>
</linearGradient>
<linearGradient id="paint4_linear_1_4835" x1="96" y1="275.068" x2="80" y2="291.068" gradientUnits="userSpaceOnUse">
<stop offset="0.005" stop-color="#CCCCCC"/>
<stop offset="1" stop-color="#E6E6E6"/>
</linearGradient>
<linearGradient id="paint5_linear_1_4835" x1="224" y1="211.068" x2="208" y2="227.068" gradientUnits="userSpaceOnUse">
<stop offset="0.005" stop-color="#FAFAFA"/>
<stop offset="1" stop-color="#E6E6E6"/>
</linearGradient>
<linearGradient id="paint6_linear_1_4835" x1="224" y1="211.068" x2="208" y2="227.068" gradientUnits="userSpaceOnUse">
<stop offset="0.005" stop-color="#CCCCCC"/>
<stop offset="1" stop-color="#E6E6E6"/>
</linearGradient>
<linearGradient id="paint7_linear_1_4835" x1="208" y1="307.068" x2="192" y2="323.068" gradientUnits="userSpaceOnUse">
<stop offset="0.005" stop-color="#FAFAFA"/>
<stop offset="1" stop-color="#E6E6E6"/>
</linearGradient>
<linearGradient id="paint8_linear_1_4835" x1="208" y1="307.068" x2="192" y2="323.068" gradientUnits="userSpaceOnUse">
<stop offset="0.005" stop-color="#CCCCCC"/>
<stop offset="1" stop-color="#E6E6E6"/>
</linearGradient>
<linearGradient id="paint9_linear_1_4835" x1="80" y1="387.068" x2="64" y2="403.068" gradientUnits="userSpaceOnUse">
<stop offset="0.005" stop-color="#FAFAFA"/>
<stop offset="1" stop-color="#E6E6E6"/>
</linearGradient>
<linearGradient id="paint10_linear_1_4835" x1="80" y1="387.068" x2="64" y2="403.068" gradientUnits="userSpaceOnUse">
<stop offset="0.005" stop-color="#CCCCCC"/>
<stop offset="1" stop-color="#E6E6E6"/>
</linearGradient>
<linearGradient id="paint11_linear_1_4835" x1="1099.5" y1="292.068" x2="1115.4" y2="309.895" gradientUnits="userSpaceOnUse">
<stop offset="0.005" stop-color="#FAFAFA"/>
<stop offset="1" stop-color="#E6E6E6"/>
</linearGradient>
<linearGradient id="paint12_linear_1_4835" x1="1099.5" y1="292.068" x2="1115.4" y2="309.895" gradientUnits="userSpaceOnUse">
<stop offset="0.005" stop-color="#CCCCCC"/>
<stop offset="1" stop-color="#E6E6E6"/>
</linearGradient>
<linearGradient id="paint13_linear_1_4835" x1="1153.33" y1="275.068" x2="1169.23" y2="292.895" gradientUnits="userSpaceOnUse">
<stop offset="0.005" stop-color="#FAFAFA"/>
<stop offset="1" stop-color="#E6E6E6"/>
</linearGradient>
<linearGradient id="paint14_linear_1_4835" x1="1153.33" y1="275.068" x2="1169.23" y2="292.895" gradientUnits="userSpaceOnUse">
<stop offset="0.005" stop-color="#CCCCCC"/>
<stop offset="1" stop-color="#E6E6E6"/>
</linearGradient>
<linearGradient id="paint15_linear_1_4835" x1="1009.78" y1="211.068" x2="1025.67" y2="228.895" gradientUnits="userSpaceOnUse">
<stop offset="0.005" stop-color="#FAFAFA"/>
<stop offset="1" stop-color="#E6E6E6"/>
</linearGradient>
<linearGradient id="paint16_linear_1_4835" x1="1009.78" y1="211.068" x2="1025.67" y2="228.895" gradientUnits="userSpaceOnUse">
<stop offset="0.005" stop-color="#CCCCCC"/>
<stop offset="1" stop-color="#E6E6E6"/>
</linearGradient>
<linearGradient id="paint17_linear_1_4835" x1="1027.72" y1="307.068" x2="1043.62" y2="324.895" gradientUnits="userSpaceOnUse">
<stop offset="0.005" stop-color="#FAFAFA"/>
<stop offset="1" stop-color="#E6E6E6"/>
</linearGradient>
<linearGradient id="paint18_linear_1_4835" x1="1027.72" y1="307.068" x2="1043.62" y2="324.895" gradientUnits="userSpaceOnUse">
<stop offset="0.005" stop-color="#CCCCCC"/>
<stop offset="1" stop-color="#E6E6E6"/>
</linearGradient>
<linearGradient id="paint19_linear_1_4835" x1="1171.28" y1="387.068" x2="1187.17" y2="404.895" gradientUnits="userSpaceOnUse">
<stop offset="0.005" stop-color="#FAFAFA"/>
<stop offset="1" stop-color="#E6E6E6"/>
</linearGradient>
<linearGradient id="paint20_linear_1_4835" x1="1171.28" y1="387.068" x2="1187.17" y2="404.895" gradientUnits="userSpaceOnUse">
<stop offset="0.005" stop-color="#CCCCCC"/>
<stop offset="1" stop-color="#E6E6E6"/>
</linearGradient>
<clipPath id="clip0_1_4835">
<rect width="747" height="600" fill="white" transform="translate(259 0.0683594)"/>
</clipPath>
<clipPath id="clip1_1_4835">
<rect width="288" height="256" fill="white" transform="matrix(-1 0 0 1 288 163.068)"/>
</clipPath>
<clipPath id="clip2_1_4835">
<rect width="323" height="256" fill="white" transform="translate(938 163.068)"/>
</clipPath>
</defs>
</svg>
