<svg width="56" height="57" viewBox="0 0 56 57" fill="none" xmlns="http://www.w3.org/2000/svg">
<path fill-rule="evenodd" clip-rule="evenodd" d="M36.9664 18.8688C37.4965 18.8505 37.9487 19.2494 37.9967 19.7776C38.1315 21.2603 37.9842 22.4813 37.56 23.4667C37.1274 24.4717 36.4344 25.1661 35.6067 25.62C34.546 26.2016 33.2786 26.3757 32.0889 26.4023C32.4141 27.5477 32.2248 28.5935 31.6009 29.3907C30.7753 30.4456 29.2712 30.8714 28.0536 30.2626C26.8419 29.6567 25.9774 29.6658 25.328 29.9113C24.6413 30.171 24.0111 30.7641 23.4303 31.6703C22.4103 33.2617 21.7645 35.4421 21.2155 37.296C21.1274 37.5934 21.0418 37.8826 20.9575 38.1593C20.8054 38.6592 20.294 38.9577 19.7839 38.8444C19.2738 38.731 18.937 38.244 19.0109 37.7268C19.4456 34.684 20.8437 30.1221 23.6536 26.244C26.481 22.3415 30.7828 19.082 36.9664 18.8688ZM24.9039 27.9442C26.1195 27.5757 27.4753 27.7373 28.9481 28.4737C29.2305 28.615 29.7264 28.5408 30.0258 28.1581C30.2469 27.8757 30.5052 27.1775 29.6688 25.9229C29.459 25.6082 29.4447 25.202 29.6319 24.8733C29.8191 24.5446 30.1757 24.3497 30.5534 24.3696C32.1652 24.4544 33.6358 24.4198 34.645 23.8664C35.1089 23.6119 35.4785 23.2438 35.723 22.6759C35.9049 22.2532 36.0307 21.6882 36.044 20.9325C31.1535 21.4082 27.678 24.0982 25.2731 27.4174C25.147 27.5915 25.024 27.7672 24.9039 27.9442Z" fill="black"/>
<path d="M19.6127 23.5179C19.4524 23.0368 19.0749 22.6593 18.5938 22.499C18.1042 22.3358 18.1042 21.6432 18.5938 21.48C19.0749 21.3197 19.4524 20.9422 19.6127 20.4611C19.7759 19.9715 20.4685 19.9715 20.6317 20.4611C20.792 20.9422 21.1695 21.3197 21.6506 21.48C22.1402 21.6432 22.1402 22.3358 21.6506 22.499C21.1695 22.6593 20.792 23.0368 20.6317 23.5179C20.4685 24.0075 19.7759 24.0075 19.6127 23.5179Z" fill="black"/>
<path d="M28.5937 35.499C29.0748 35.6593 29.4523 36.0368 29.6127 36.5179C29.7759 37.0075 30.4684 37.0075 30.6316 36.5179C30.792 36.0368 31.1695 35.6593 31.6506 35.499C32.1402 35.3358 32.1402 34.6432 31.6506 34.48C31.1695 34.3197 30.792 33.9422 30.6316 33.4611C30.4684 32.9715 29.7759 32.9715 29.6127 33.4611C29.4523 33.9422 29.0748 34.3197 28.5937 34.48C28.1041 34.6432 28.1041 35.3358 28.5937 35.499Z" fill="black"/>
</svg>
