<svg width="748" height="601" viewBox="0 0 748 601" fill="none" xmlns="http://www.w3.org/2000/svg">
<g clip-path="url(#clip0_1_4836)">
<circle cx="374" cy="299.868" r="300" fill="black" fill-opacity="0.02"/>
<circle cx="374" cy="299.868" r="299.5" stroke="black" stroke-opacity="0.05"/>
<circle cx="374" cy="299.868" r="240" fill="black" fill-opacity="0.02"/>
<circle cx="374" cy="299.868" r="239.6" stroke="black" stroke-opacity="0.05" stroke-width="0.8"/>
<circle cx="374" cy="299.868" r="192" fill="black" fill-opacity="0.02"/>
<circle cx="374" cy="299.868" r="191.68" stroke="black" stroke-opacity="0.05" stroke-width="0.64"/>
<circle cx="374" cy="299.869" r="153.6" fill="black" fill-opacity="0.02"/>
<circle cx="374" cy="299.869" r="153.344" stroke="black" stroke-opacity="0.05" stroke-width="0.512"/>
<rect x="113.5" y="233.368" width="520" height="99" rx="49.5" fill="white"/>
<rect x="113.5" y="233.368" width="520" height="99" rx="49.5" stroke="#CCCCCC"/>
<ellipse cx="164" cy="282.868" rx="35" ry="34" fill="url(#paint0_radial_1_4836)"/>
<path d="M148 286.671H164.336M164.336 286.671H180.336M164.336 286.671V267.868M164.336 286.671L175.635 273.338M164.336 286.671L153.037 273.338" stroke="white" stroke-width="5"/>
<path d="M237.616 289.544C236.491 289.544 235.483 289.274 234.593 288.735C233.702 288.196 233.002 287.426 232.492 286.424C231.982 285.416 231.728 284.218 231.728 282.829C231.728 281.429 231.982 280.228 232.492 279.226C233.008 278.218 233.708 277.444 234.593 276.905C235.483 276.366 236.491 276.097 237.616 276.097C238.308 276.097 238.955 276.196 239.559 276.396C240.168 276.595 240.713 276.885 241.193 277.266C241.674 277.646 242.069 278.112 242.38 278.663C242.696 279.214 242.907 279.838 243.013 280.535H241.026C240.95 280.107 240.807 279.732 240.596 279.41C240.391 279.082 240.136 278.807 239.831 278.584C239.532 278.355 239.195 278.186 238.82 278.074C238.451 277.957 238.059 277.898 237.643 277.898C236.893 277.898 236.216 278.089 235.612 278.47C235.015 278.845 234.543 279.401 234.197 280.14C233.857 280.872 233.688 281.769 233.688 282.829C233.688 283.896 233.86 284.795 234.206 285.527C234.552 286.254 235.023 286.805 235.621 287.18C236.219 287.555 236.89 287.742 237.634 287.742C238.05 287.742 238.442 287.687 238.812 287.575C239.181 287.464 239.518 287.297 239.822 287.074C240.127 286.852 240.382 286.582 240.587 286.266C240.798 285.943 240.944 285.571 241.026 285.149H243.013C242.913 285.8 242.711 286.395 242.406 286.934C242.102 287.467 241.712 287.93 241.237 288.322C240.763 288.709 240.221 289.011 239.611 289.228C239.002 289.438 238.337 289.544 237.616 289.544ZM248.611 289.57C247.691 289.57 246.886 289.359 246.194 288.938C245.509 288.516 244.976 287.924 244.595 287.162C244.22 286.4 244.032 285.516 244.032 284.508C244.032 283.488 244.22 282.598 244.595 281.836C244.976 281.068 245.509 280.474 246.194 280.052C246.886 279.63 247.691 279.419 248.611 279.419C249.537 279.419 250.343 279.63 251.028 280.052C251.714 280.474 252.247 281.068 252.628 281.836C253.009 282.598 253.199 283.488 253.199 284.508C253.199 285.516 253.009 286.4 252.628 287.162C252.247 287.924 251.714 288.516 251.028 288.938C250.343 289.359 249.537 289.57 248.611 289.57ZM248.611 287.962C249.215 287.962 249.713 287.804 250.105 287.487C250.498 287.171 250.788 286.752 250.976 286.23C251.169 285.703 251.266 285.129 251.266 284.508C251.266 283.875 251.169 283.295 250.976 282.768C250.788 282.24 250.498 281.818 250.105 281.502C249.713 281.186 249.215 281.027 248.611 281.027C248.014 281.027 247.519 281.186 247.126 281.502C246.739 281.818 246.449 282.24 246.256 282.768C246.062 283.295 245.966 283.875 245.966 284.508C245.966 285.129 246.062 285.703 246.256 286.23C246.449 286.752 246.739 287.171 247.126 287.487C247.519 287.804 248.014 287.962 248.611 287.962ZM256.478 276.272V289.368H254.579V276.272H256.478ZM260.204 276.272V289.368H258.306V276.272H260.204ZM264.88 289.579C264.259 289.579 263.696 289.465 263.192 289.236C262.688 289.002 262.29 288.662 261.997 288.217C261.704 287.771 261.558 287.229 261.558 286.591C261.558 286.034 261.663 285.58 261.874 285.229C262.091 284.871 262.381 284.587 262.744 284.376C263.107 284.165 263.512 284.007 263.957 283.901C264.402 283.796 264.859 283.714 265.328 283.655C265.92 283.591 266.397 283.535 266.761 283.488C267.124 283.441 267.388 283.368 267.552 283.269C267.722 283.163 267.807 282.996 267.807 282.768V282.724C267.807 282.167 267.648 281.736 267.332 281.432C267.021 281.127 266.559 280.975 265.943 280.975C265.305 280.975 264.798 281.115 264.423 281.396C264.054 281.672 263.799 281.985 263.658 282.337L261.856 281.924C262.073 281.326 262.387 280.846 262.797 280.482C263.213 280.113 263.688 279.844 264.221 279.674C264.76 279.504 265.322 279.419 265.908 279.419C266.301 279.419 266.717 279.466 267.156 279.56C267.596 279.647 268.009 279.814 268.396 280.061C268.788 280.301 269.107 280.646 269.354 281.098C269.6 281.549 269.723 282.132 269.723 282.847V289.368H267.851V288.023H267.78C267.663 288.264 267.479 288.504 267.227 288.744C266.98 288.984 266.664 289.184 266.277 289.342C265.891 289.5 265.425 289.579 264.88 289.579ZM265.293 288.05C265.826 288.05 266.28 287.947 266.655 287.742C267.03 287.531 267.317 287.256 267.517 286.916C267.716 286.576 267.815 286.216 267.815 285.835V284.561C267.745 284.625 267.613 284.687 267.42 284.745C267.227 284.804 267.007 284.854 266.761 284.895C266.515 284.936 266.274 284.974 266.04 285.009C265.806 285.038 265.609 285.062 265.451 285.079C265.082 285.132 264.745 285.214 264.44 285.325C264.136 285.431 263.89 285.589 263.702 285.8C263.521 286.005 263.43 286.277 263.43 286.617C263.43 287.092 263.605 287.449 263.957 287.689C264.309 287.93 264.754 288.05 265.293 288.05ZM276.402 289.562C275.811 289.562 275.324 289.462 274.943 289.263C274.568 289.058 274.272 288.82 274.056 288.551C273.845 288.281 273.681 288.044 273.563 287.839H273.405V289.368H271.56V276.272H273.458V281.142H273.563C273.681 280.937 273.842 280.699 274.047 280.43C274.258 280.16 274.551 279.926 274.926 279.727C275.301 279.521 275.79 279.419 276.394 279.419C277.185 279.419 277.888 279.618 278.503 280.017C279.124 280.415 279.613 280.992 279.971 281.748C280.328 282.504 280.507 283.415 280.507 284.481C280.507 285.536 280.331 286.444 279.979 287.206C279.628 287.962 279.142 288.545 278.521 288.955C277.905 289.359 277.199 289.562 276.402 289.562ZM275.989 287.936C276.558 287.936 277.032 287.783 277.413 287.479C277.794 287.174 278.081 286.761 278.274 286.239C278.474 285.712 278.573 285.12 278.573 284.464C278.573 283.813 278.477 283.23 278.283 282.715C278.09 282.199 277.803 281.792 277.422 281.493C277.041 281.194 276.563 281.045 275.989 281.045C275.433 281.045 274.964 281.188 274.583 281.476C274.202 281.757 273.912 282.155 273.713 282.671C273.52 283.181 273.423 283.778 273.423 284.464C273.423 285.149 273.522 285.753 273.722 286.274C273.921 286.796 274.211 287.203 274.592 287.496C274.979 287.789 275.444 287.936 275.989 287.936ZM286.018 289.57C285.098 289.57 284.292 289.359 283.601 288.938C282.915 288.516 282.382 287.924 282.001 287.162C281.626 286.4 281.438 285.516 281.438 284.508C281.438 283.488 281.626 282.598 282.001 281.836C282.382 281.068 282.915 280.474 283.601 280.052C284.292 279.63 285.098 279.419 286.018 279.419C286.943 279.419 287.749 279.63 288.435 280.052C289.12 280.474 289.653 281.068 290.034 281.836C290.415 282.598 290.605 283.488 290.605 284.508C290.605 285.516 290.415 286.4 290.034 287.162C289.653 287.924 289.12 288.516 288.435 288.938C287.749 289.359 286.943 289.57 286.018 289.57ZM286.018 287.962C286.621 287.962 287.119 287.804 287.512 287.487C287.904 287.171 288.194 286.752 288.382 286.23C288.575 285.703 288.672 285.129 288.672 284.508C288.672 283.875 288.575 283.295 288.382 282.768C288.194 282.24 287.904 281.818 287.512 281.502C287.119 281.186 286.621 281.027 286.018 281.027C285.42 281.027 284.925 281.186 284.532 281.502C284.146 281.818 283.855 282.24 283.662 282.768C283.469 283.295 283.372 283.875 283.372 284.508C283.372 285.129 283.469 285.703 283.662 286.23C283.855 286.752 284.146 287.171 284.532 287.487C284.925 287.804 285.42 287.962 286.018 287.962ZM291.985 289.368V279.542H293.822V281.115H293.928C294.109 280.588 294.426 280.172 294.877 279.867C295.334 279.557 295.85 279.401 296.424 279.401C296.541 279.401 296.679 279.407 296.837 279.419C297.001 279.425 297.133 279.434 297.232 279.445V281.273C297.156 281.25 297.019 281.227 296.819 281.203C296.626 281.18 296.43 281.168 296.23 281.168C295.779 281.168 295.375 281.265 295.018 281.458C294.666 281.646 294.388 281.906 294.183 282.24C293.983 282.568 293.884 282.949 293.884 283.383V289.368H291.985ZM300.915 289.579C300.294 289.579 299.731 289.465 299.228 289.236C298.724 289.002 298.325 288.662 298.032 288.217C297.739 287.771 297.593 287.229 297.593 286.591C297.593 286.034 297.698 285.58 297.909 285.229C298.126 284.871 298.416 284.587 298.779 284.376C299.143 284.165 299.547 284.007 299.992 283.901C300.438 283.796 300.895 283.714 301.363 283.655C301.955 283.591 302.433 283.535 302.796 283.488C303.159 283.441 303.423 283.368 303.587 283.269C303.757 283.163 303.842 282.996 303.842 282.768V282.724C303.842 282.167 303.684 281.736 303.367 281.432C303.057 281.127 302.594 280.975 301.979 280.975C301.34 280.975 300.833 281.115 300.458 281.396C300.089 281.672 299.834 281.985 299.693 282.337L297.892 281.924C298.108 281.326 298.422 280.846 298.832 280.482C299.248 280.113 299.723 279.844 300.256 279.674C300.795 279.504 301.357 279.419 301.943 279.419C302.336 279.419 302.752 279.466 303.191 279.56C303.631 279.647 304.044 279.814 304.431 280.061C304.823 280.301 305.143 280.646 305.389 281.098C305.635 281.549 305.758 282.132 305.758 282.847V289.368H303.886V288.023H303.815C303.698 288.264 303.514 288.504 303.262 288.744C303.016 288.984 302.699 289.184 302.312 289.342C301.926 289.5 301.46 289.579 300.915 289.579ZM301.328 288.05C301.861 288.05 302.315 287.947 302.69 287.742C303.065 287.531 303.353 287.256 303.552 286.916C303.751 286.576 303.851 286.216 303.851 285.835V284.561C303.78 284.625 303.648 284.687 303.455 284.745C303.262 284.804 303.042 284.854 302.796 284.895C302.55 284.936 302.31 284.974 302.075 285.009C301.841 285.038 301.645 285.062 301.486 285.079C301.117 285.132 300.78 285.214 300.476 285.325C300.171 285.431 299.925 285.589 299.737 285.8C299.556 286.005 299.465 286.277 299.465 286.617C299.465 287.092 299.641 287.449 299.992 287.689C300.344 287.93 300.789 288.05 301.328 288.05ZM312.165 279.542V281.08H306.804V279.542H312.165ZM308.236 277.204H310.144V286.485C310.144 286.937 310.237 287.268 310.425 287.479C310.612 287.684 310.914 287.786 311.33 287.786C311.43 287.786 311.535 287.78 311.646 287.769C311.764 287.757 311.881 287.739 311.998 287.716L312.358 289.298C312.165 289.362 311.954 289.412 311.726 289.447C311.497 289.482 311.269 289.5 311.04 289.5C310.19 289.5 309.511 289.263 309.001 288.788C308.491 288.308 308.236 287.669 308.236 286.872V277.204ZM317.658 289.57C316.697 289.57 315.865 289.362 315.162 288.946C314.459 288.53 313.917 287.944 313.536 287.188C313.161 286.427 312.974 285.539 312.974 284.525C312.974 283.518 313.158 282.63 313.527 281.862C313.902 281.095 314.427 280.497 315.101 280.069C315.78 279.636 316.577 279.419 317.491 279.419C318.048 279.419 318.587 279.51 319.108 279.691C319.63 279.873 320.099 280.16 320.515 280.553C320.931 280.945 321.259 281.455 321.499 282.082C321.745 282.709 321.868 283.465 321.868 284.35V285.035H314.055V283.603H320.884L319.996 284.077C319.996 283.474 319.902 282.94 319.715 282.478C319.527 282.015 319.246 281.654 318.871 281.396C318.502 281.133 318.042 281.001 317.491 281.001C316.94 281.001 316.469 281.133 316.076 281.396C315.689 281.66 315.394 282.009 315.188 282.442C314.983 282.876 314.881 283.351 314.881 283.866V284.842C314.881 285.516 314.998 286.087 315.232 286.556C315.467 287.024 315.792 287.382 316.208 287.628C316.63 287.874 317.119 287.997 317.676 287.997C318.039 287.997 318.367 287.944 318.66 287.839C318.959 287.733 319.217 287.575 319.434 287.364C319.65 287.153 319.814 286.893 319.926 286.582L321.736 286.925C321.59 287.452 321.332 287.915 320.963 288.313C320.594 288.712 320.128 289.022 319.565 289.245C319.009 289.462 318.373 289.57 317.658 289.57ZM331.888 279.542V281.08H326.342V279.542H331.888ZM327.854 289.368V278.399C327.854 277.79 327.988 277.283 328.258 276.879C328.533 276.469 328.891 276.164 329.33 275.965C329.775 275.76 330.253 275.657 330.763 275.657C331.155 275.657 331.489 275.689 331.765 275.754C332.04 275.818 332.242 275.874 332.371 275.921L331.914 277.468C331.826 277.438 331.712 277.406 331.571 277.371C331.437 277.336 331.267 277.318 331.062 277.318C330.599 277.318 330.265 277.436 330.06 277.67C329.854 277.898 329.752 278.232 329.752 278.672V289.368H327.854ZM335.632 289.579C335.011 289.579 334.448 289.465 333.944 289.236C333.44 289.002 333.042 288.662 332.749 288.217C332.456 287.771 332.31 287.229 332.31 286.591C332.31 286.034 332.415 285.58 332.626 285.229C332.843 284.871 333.133 284.587 333.496 284.376C333.859 284.165 334.264 284.007 334.709 283.901C335.154 283.796 335.611 283.714 336.08 283.655C336.672 283.591 337.149 283.535 337.513 283.488C337.876 283.441 338.14 283.368 338.304 283.269C338.474 283.163 338.559 282.996 338.559 282.768V282.724C338.559 282.167 338.4 281.736 338.084 281.432C337.773 281.127 337.311 280.975 336.695 280.975C336.057 280.975 335.55 281.115 335.175 281.396C334.806 281.672 334.551 281.985 334.41 282.337L332.608 281.924C332.825 281.326 333.139 280.846 333.549 280.482C333.965 280.113 334.439 279.844 334.973 279.674C335.512 279.504 336.074 279.419 336.66 279.419C337.053 279.419 337.469 279.466 337.908 279.56C338.348 279.647 338.761 279.814 339.147 280.061C339.54 280.301 339.859 280.646 340.105 281.098C340.352 281.549 340.475 282.132 340.475 282.847V289.368H338.603V288.023H338.532C338.415 288.264 338.23 288.504 337.979 288.744C337.732 288.984 337.416 289.184 337.029 289.342C336.643 289.5 336.177 289.579 335.632 289.579ZM336.045 288.05C336.578 288.05 337.032 287.947 337.407 287.742C337.782 287.531 338.069 287.256 338.269 286.916C338.468 286.576 338.567 286.216 338.567 285.835V284.561C338.497 284.625 338.365 284.687 338.172 284.745C337.979 284.804 337.759 284.854 337.513 284.895C337.267 284.936 337.026 284.974 336.792 285.009C336.558 285.038 336.361 285.062 336.203 285.079C335.834 285.132 335.497 285.214 335.192 285.325C334.888 285.431 334.642 285.589 334.454 285.8C334.272 286.005 334.182 286.277 334.182 286.617C334.182 287.092 334.357 287.449 334.709 287.689C335.061 287.93 335.506 288.05 336.045 288.05ZM349.659 281.95L347.928 282.249C347.816 281.921 347.608 281.619 347.304 281.344C347.005 281.068 346.557 280.931 345.959 280.931C345.42 280.931 344.969 281.054 344.605 281.3C344.248 281.54 344.069 281.848 344.069 282.223C344.069 282.551 344.189 282.817 344.43 283.022C344.676 283.228 345.065 283.392 345.599 283.515L347.172 283.866C348.068 284.071 348.739 284.394 349.185 284.833C349.63 285.272 349.853 285.835 349.853 286.521C349.853 287.112 349.683 287.64 349.343 288.103C349.003 288.56 348.531 288.92 347.928 289.184C347.324 289.441 346.627 289.57 345.836 289.57C344.734 289.57 343.838 289.333 343.146 288.858C342.455 288.384 342.03 287.716 341.872 286.854L343.709 286.573C343.826 287.054 344.063 287.417 344.421 287.663C344.784 287.909 345.253 288.032 345.827 288.032C346.448 288.032 346.946 287.9 347.321 287.637C347.702 287.373 347.893 287.054 347.893 286.679C347.893 286.058 347.43 285.639 346.504 285.422L344.843 285.053C343.923 284.842 343.243 284.511 342.804 284.06C342.37 283.603 342.153 283.028 342.153 282.337C342.153 281.757 342.314 281.247 342.637 280.808C342.965 280.368 343.413 280.028 343.981 279.788C344.556 279.542 345.209 279.419 345.941 279.419C347.008 279.419 347.843 279.65 348.446 280.113C349.056 280.576 349.46 281.188 349.659 281.95ZM355.759 279.542V281.08H350.397V279.542H355.759ZM351.83 277.204H353.737V286.485C353.737 286.937 353.831 287.268 354.019 287.479C354.206 287.684 354.508 287.786 354.924 287.786C355.023 287.786 355.129 287.78 355.24 287.769C355.357 287.757 355.475 287.739 355.592 287.716L355.952 289.298C355.759 289.362 355.548 289.412 355.319 289.447C355.091 289.482 354.862 289.5 354.634 289.5C353.784 289.5 353.104 289.263 352.595 288.788C352.085 288.308 351.83 287.669 351.83 286.872V277.204ZM361.252 289.57C360.291 289.57 359.459 289.362 358.756 288.946C358.053 288.53 357.511 287.944 357.13 287.188C356.755 286.427 356.567 285.539 356.567 284.525C356.567 283.518 356.752 282.63 357.121 281.862C357.496 281.095 358.021 280.497 358.694 280.069C359.374 279.636 360.171 279.419 361.085 279.419C361.642 279.419 362.181 279.51 362.702 279.691C363.224 279.873 363.692 280.16 364.108 280.553C364.524 280.945 364.853 281.455 365.093 282.082C365.339 282.709 365.462 283.465 365.462 284.35V285.035H357.648V283.603H364.478L363.59 284.077C363.59 283.474 363.496 282.94 363.309 282.478C363.121 282.015 362.84 281.654 362.465 281.396C362.096 281.133 361.636 281.001 361.085 281.001C360.534 281.001 360.062 281.133 359.67 281.396C359.283 281.66 358.987 282.009 358.782 282.442C358.577 282.876 358.475 283.351 358.475 283.866V284.842C358.475 285.516 358.592 286.087 358.826 286.556C359.061 287.024 359.386 287.382 359.802 287.628C360.224 287.874 360.713 287.997 361.27 287.997C361.633 287.997 361.961 287.944 362.254 287.839C362.553 287.733 362.811 287.575 363.027 287.364C363.244 287.153 363.408 286.893 363.52 286.582L365.33 286.925C365.184 287.452 364.926 287.915 364.557 288.313C364.188 288.712 363.722 289.022 363.159 289.245C362.603 289.462 361.967 289.57 361.252 289.57ZM366.798 289.368V279.542H368.635V281.115H368.74C368.922 280.588 369.238 280.172 369.689 279.867C370.146 279.557 370.662 279.401 371.236 279.401C371.354 279.401 371.491 279.407 371.649 279.419C371.813 279.425 371.945 279.434 372.045 279.445V281.273C371.969 281.25 371.831 281.227 371.632 281.203C371.438 281.18 371.242 281.168 371.043 281.168C370.592 281.168 370.188 281.265 369.83 281.458C369.479 281.646 369.2 281.906 368.995 282.24C368.796 282.568 368.696 282.949 368.696 283.383V289.368H366.798ZM379.094 289.368L376.211 279.542H378.18L380.104 286.758H380.21L382.135 279.542H384.112L386.02 286.731H386.116L388.032 279.542H390.001L387.118 289.368H385.176L383.172 282.284H383.04L381.036 289.368H379.094ZM391.073 289.368V279.542H392.972V289.368H391.073ZM392.031 278.03C391.697 278.03 391.413 277.919 391.179 277.696C390.944 277.474 390.827 277.207 390.827 276.896C390.827 276.58 390.944 276.311 391.179 276.088C391.413 275.865 391.697 275.754 392.031 275.754C392.359 275.754 392.641 275.865 392.875 276.088C393.115 276.311 393.235 276.58 393.235 276.896C393.235 277.207 393.115 277.474 392.875 277.696C392.641 277.919 392.359 278.03 392.031 278.03ZM399.37 279.542V281.08H394.009V279.542H399.37ZM395.441 277.204H397.349V286.485C397.349 286.937 397.442 287.268 397.63 287.479C397.817 287.684 398.119 287.786 398.535 287.786C398.635 287.786 398.74 287.78 398.852 287.769C398.969 287.757 399.086 287.739 399.203 287.716L399.563 289.298C399.37 289.362 399.159 289.412 398.931 289.447C398.702 289.482 398.474 289.5 398.245 289.5C397.396 289.5 396.716 289.263 396.206 288.788C395.696 288.308 395.441 287.669 395.441 286.872V277.204ZM402.851 283.541V289.368H400.952V276.272H402.824V281.159H402.956C403.185 280.626 403.533 280.204 404.002 279.894C404.477 279.577 405.095 279.419 405.856 279.419C406.53 279.419 407.119 279.557 407.623 279.832C408.127 280.107 408.52 280.521 408.801 281.071C409.088 281.622 409.231 282.308 409.231 283.128V289.368H407.315V283.356C407.315 282.63 407.128 282.067 406.753 281.669C406.384 281.271 405.868 281.071 405.206 281.071C404.749 281.071 404.345 281.171 403.993 281.37C403.642 281.563 403.363 281.842 403.158 282.205C402.953 282.568 402.851 283.014 402.851 283.541ZM415.208 289.368V276.272H419.884C420.897 276.272 421.738 276.448 422.406 276.8C423.074 277.146 423.575 277.629 423.909 278.25C424.243 278.865 424.41 279.577 424.41 280.386C424.41 281.183 424.243 281.886 423.909 282.495C423.575 283.104 423.071 283.576 422.397 283.91C421.729 284.244 420.886 284.411 419.866 284.411H416.342V282.724H419.682C420.332 282.724 420.856 282.63 421.255 282.442C421.659 282.255 421.952 281.988 422.134 281.643C422.321 281.297 422.415 280.878 422.415 280.386C422.415 279.888 422.321 279.46 422.134 279.103C421.946 278.739 421.65 278.461 421.246 278.268C420.848 278.068 420.323 277.969 419.673 277.969H417.186V289.368H415.208ZM422.661 289.368L419.488 283.453H421.677L424.911 289.368H422.661ZM430.035 289.57C429.074 289.57 428.242 289.362 427.539 288.946C426.836 288.53 426.294 287.944 425.913 287.188C425.538 286.427 425.351 285.539 425.351 284.525C425.351 283.518 425.535 282.63 425.904 281.862C426.279 281.095 426.804 280.497 427.478 280.069C428.157 279.636 428.954 279.419 429.868 279.419C430.425 279.419 430.964 279.51 431.485 279.691C432.007 279.873 432.476 280.16 432.892 280.553C433.308 280.945 433.636 281.455 433.876 282.082C434.122 282.709 434.245 283.465 434.245 284.35V285.035H426.432V283.603H433.261L432.373 284.077C432.373 283.474 432.279 282.94 432.092 282.478C431.904 282.015 431.623 281.654 431.248 281.396C430.879 281.133 430.419 281.001 429.868 281.001C429.317 281.001 428.846 281.133 428.453 281.396C428.066 281.66 427.771 282.009 427.565 282.442C427.36 282.876 427.258 283.351 427.258 283.866V284.842C427.258 285.516 427.375 286.087 427.609 286.556C427.844 287.024 428.169 287.382 428.585 287.628C429.007 287.874 429.496 287.997 430.053 287.997C430.416 287.997 430.744 287.944 431.037 287.839C431.336 287.733 431.594 287.575 431.811 287.364C432.027 287.153 432.191 286.893 432.303 286.582L434.113 286.925C433.967 287.452 433.709 287.915 433.34 288.313C432.971 288.712 432.505 289.022 431.942 289.245C431.386 289.462 430.75 289.57 430.035 289.57ZM442.929 281.95L441.197 282.249C441.086 281.921 440.878 281.619 440.573 281.344C440.274 281.068 439.826 280.931 439.229 280.931C438.689 280.931 438.238 281.054 437.875 281.3C437.518 281.54 437.339 281.848 437.339 282.223C437.339 282.551 437.459 282.817 437.699 283.022C437.945 283.228 438.335 283.392 438.868 283.515L440.441 283.866C441.338 284.071 442.009 284.394 442.454 284.833C442.899 285.272 443.122 285.835 443.122 286.521C443.122 287.112 442.952 287.64 442.612 288.103C442.272 288.56 441.801 288.92 441.197 289.184C440.594 289.441 439.896 289.57 439.105 289.57C438.004 289.57 437.107 289.333 436.416 288.858C435.725 288.384 435.3 287.716 435.142 286.854L436.979 286.573C437.096 287.054 437.333 287.417 437.69 287.663C438.054 287.909 438.522 288.032 439.097 288.032C439.718 288.032 440.216 287.9 440.591 287.637C440.972 287.373 441.162 287.054 441.162 286.679C441.162 286.058 440.699 285.639 439.773 285.422L438.112 285.053C437.192 284.842 436.513 284.511 436.073 284.06C435.64 283.603 435.423 283.028 435.423 282.337C435.423 281.757 435.584 281.247 435.906 280.808C436.234 280.368 436.683 280.028 437.251 279.788C437.825 279.542 438.479 279.419 439.211 279.419C440.277 279.419 441.112 279.65 441.716 280.113C442.325 280.576 442.729 281.188 442.929 281.95ZM448.58 289.57C447.66 289.57 446.854 289.359 446.163 288.938C445.478 288.516 444.944 287.924 444.563 287.162C444.188 286.4 444.001 285.516 444.001 284.508C444.001 283.488 444.188 282.598 444.563 281.836C444.944 281.068 445.478 280.474 446.163 280.052C446.854 279.63 447.66 279.419 448.58 279.419C449.506 279.419 450.312 279.63 450.997 280.052C451.683 280.474 452.216 281.068 452.597 281.836C452.978 282.598 453.168 283.488 453.168 284.508C453.168 285.516 452.978 286.4 452.597 287.162C452.216 287.924 451.683 288.516 450.997 288.938C450.312 289.359 449.506 289.57 448.58 289.57ZM448.58 287.962C449.184 287.962 449.682 287.804 450.074 287.487C450.467 287.171 450.757 286.752 450.944 286.23C451.138 285.703 451.234 285.129 451.234 284.508C451.234 283.875 451.138 283.295 450.944 282.768C450.757 282.24 450.467 281.818 450.074 281.502C449.682 281.186 449.184 281.027 448.58 281.027C447.982 281.027 447.487 281.186 447.095 281.502C446.708 281.818 446.418 282.24 446.225 282.768C446.031 283.295 445.935 283.875 445.935 284.508C445.935 285.129 446.031 285.703 446.225 286.23C446.418 286.752 446.708 287.171 447.095 287.487C447.487 287.804 447.982 287.962 448.58 287.962ZM456.446 276.272V289.368H454.548V276.272H456.446ZM466.659 279.542L463.108 289.368H461.052L457.492 279.542H459.54L462.036 287.118H462.142L464.62 279.542H466.659ZM471.59 289.57C470.629 289.57 469.797 289.362 469.094 288.946C468.391 288.53 467.849 287.944 467.468 287.188C467.093 286.427 466.905 285.539 466.905 284.525C466.905 283.518 467.09 282.63 467.459 281.862C467.834 281.095 468.358 280.497 469.032 280.069C469.712 279.636 470.509 279.419 471.423 279.419C471.979 279.419 472.519 279.51 473.04 279.691C473.562 279.873 474.03 280.16 474.446 280.553C474.862 280.945 475.19 281.455 475.431 282.082C475.677 282.709 475.8 283.465 475.8 284.35V285.035H467.986V283.603H474.815L473.928 284.077C473.928 283.474 473.834 282.94 473.646 282.478C473.459 282.015 473.178 281.654 472.803 281.396C472.434 281.133 471.974 281.001 471.423 281.001C470.872 281.001 470.4 281.133 470.008 281.396C469.621 281.66 469.325 282.009 469.12 282.442C468.915 282.876 468.812 283.351 468.812 283.866V284.842C468.812 285.516 468.93 286.087 469.164 286.556C469.398 287.024 469.724 287.382 470.14 287.628C470.562 287.874 471.051 287.997 471.607 287.997C471.971 287.997 472.299 287.944 472.592 287.839C472.891 287.733 473.148 287.575 473.365 287.364C473.582 287.153 473.746 286.893 473.857 286.582L475.668 286.925C475.521 287.452 475.264 287.915 474.895 288.313C474.525 288.712 474.06 289.022 473.497 289.245C472.94 289.462 472.305 289.57 471.59 289.57ZM482.4 289.368H480.3L485.011 276.272H487.296L491.998 289.368H489.906L486.197 278.654H486.092L482.4 289.368ZM482.752 284.244H489.546V285.896H482.752V284.244ZM495.092 276.272V289.368H493.114V276.272H495.092ZM505.647 279.542V281.08H500.286V279.542H505.647ZM501.719 277.204H503.626V286.485C503.626 286.937 503.72 287.268 503.907 287.479C504.095 287.684 504.396 287.786 504.812 287.786C504.912 287.786 505.018 287.78 505.129 287.769C505.246 287.757 505.363 287.739 505.48 287.716L505.841 289.298C505.647 289.362 505.437 289.412 505.208 289.447C504.979 289.482 504.751 289.5 504.522 289.5C503.673 289.5 502.993 289.263 502.483 288.788C501.974 288.308 501.719 287.669 501.719 286.872V277.204ZM511.035 289.57C510.115 289.57 509.31 289.359 508.618 288.938C507.933 288.516 507.399 287.924 507.019 287.162C506.644 286.4 506.456 285.516 506.456 284.508C506.456 283.488 506.644 282.598 507.019 281.836C507.399 281.068 507.933 280.474 508.618 280.052C509.31 279.63 510.115 279.419 511.035 279.419C511.961 279.419 512.767 279.63 513.452 280.052C514.138 280.474 514.671 281.068 515.052 281.836C515.433 282.598 515.623 283.488 515.623 284.508C515.623 285.516 515.433 286.4 515.052 287.162C514.671 287.924 514.138 288.516 513.452 288.938C512.767 289.359 511.961 289.57 511.035 289.57ZM511.035 287.962C511.639 287.962 512.137 287.804 512.529 287.487C512.922 287.171 513.212 286.752 513.399 286.23C513.593 285.703 513.689 285.129 513.689 284.508C513.689 283.875 513.593 283.295 513.399 282.768C513.212 282.24 512.922 281.818 512.529 281.502C512.137 281.186 511.639 281.027 511.035 281.027C510.438 281.027 509.942 281.186 509.55 281.502C509.163 281.818 508.873 282.24 508.68 282.768C508.486 283.295 508.39 283.875 508.39 284.508C508.39 285.129 508.486 285.703 508.68 286.23C508.873 286.752 509.163 287.171 509.55 287.487C509.942 287.804 510.438 287.962 511.035 287.962ZM521.125 289.57C520.205 289.57 519.399 289.359 518.708 288.938C518.022 288.516 517.489 287.924 517.108 287.162C516.733 286.4 516.546 285.516 516.546 284.508C516.546 283.488 516.733 282.598 517.108 281.836C517.489 281.068 518.022 280.474 518.708 280.052C519.399 279.63 520.205 279.419 521.125 279.419C522.051 279.419 522.856 279.63 523.542 280.052C524.228 280.474 524.761 281.068 525.142 281.836C525.522 282.598 525.713 283.488 525.713 284.508C525.713 285.516 525.522 286.4 525.142 287.162C524.761 287.924 524.228 288.516 523.542 288.938C522.856 289.359 522.051 289.57 521.125 289.57ZM521.125 287.962C521.729 287.962 522.227 287.804 522.619 287.487C523.012 287.171 523.302 286.752 523.489 286.23C523.683 285.703 523.779 285.129 523.779 284.508C523.779 283.875 523.683 283.295 523.489 282.768C523.302 282.24 523.012 281.818 522.619 281.502C522.227 281.186 521.729 281.027 521.125 281.027C520.527 281.027 520.032 281.186 519.64 281.502C519.253 281.818 518.963 282.24 518.77 282.768C518.576 283.295 518.479 283.875 518.479 284.508C518.479 285.129 518.576 285.703 518.77 286.23C518.963 286.752 519.253 287.171 519.64 287.487C520.032 287.804 520.527 287.962 521.125 287.962ZM528.991 276.272V289.368H527.093V276.272H528.991Z" fill="black"/>
<path fill-rule="evenodd" clip-rule="evenodd" d="M598.966 272.869C599.497 272.85 599.949 273.249 599.997 273.778C600.132 275.26 599.984 276.481 599.56 277.467C599.127 278.472 598.434 279.166 597.607 279.62C596.546 280.202 595.279 280.376 594.089 280.402C594.414 281.548 594.225 282.593 593.601 283.391C592.775 284.446 591.271 284.871 590.054 284.263C588.842 283.657 587.977 283.666 587.328 283.911C586.641 284.171 586.011 284.764 585.43 285.67C584.41 287.262 583.765 289.442 583.215 291.296C583.127 291.593 583.042 291.883 582.958 292.159C582.805 292.659 582.294 292.958 581.784 292.844C581.274 292.731 580.937 292.244 581.011 291.727C581.446 288.684 582.844 284.122 585.654 280.244C588.481 276.342 592.783 273.082 598.966 272.869ZM586.904 281.944C588.12 281.576 589.475 281.737 590.948 282.474C591.231 282.615 591.726 282.541 592.026 282.158C592.247 281.876 592.505 281.177 591.669 279.923C591.459 279.608 591.445 279.202 591.632 278.873C591.819 278.545 592.176 278.35 592.553 278.37C594.165 278.454 595.636 278.42 596.645 277.866C597.109 277.612 597.479 277.244 597.723 276.676C597.905 276.253 598.031 275.688 598.044 274.933C593.153 275.408 589.678 278.098 587.273 281.417C587.147 281.591 587.024 281.767 586.904 281.944Z" fill="black"/>
<path d="M581.613 277.518C581.452 277.037 581.075 276.659 580.594 276.499C580.104 276.336 580.104 275.643 580.594 275.48C581.075 275.32 581.452 274.942 581.613 274.461C581.776 273.971 582.468 273.971 582.632 274.461C582.792 274.942 583.17 275.32 583.651 275.48C584.14 275.643 584.14 276.336 583.651 276.499C583.17 276.659 582.792 277.037 582.632 277.518C582.468 278.008 581.776 278.008 581.613 277.518Z" fill="black"/>
<path d="M590.594 289.499C591.075 289.659 591.452 290.037 591.613 290.518C591.776 291.008 592.468 291.008 592.632 290.518C592.792 290.037 593.17 289.659 593.651 289.499C594.14 289.336 594.14 288.643 593.651 288.48C593.169 288.32 592.792 287.942 592.632 287.461C592.468 286.971 591.776 286.971 591.613 287.461C591.452 287.942 591.075 288.32 590.594 288.48C590.104 288.643 590.104 289.336 590.594 289.499Z" fill="black"/>
</g>
<defs>
<radialGradient id="paint0_radial_1_4836" cx="0" cy="0" r="1" gradientUnits="userSpaceOnUse" gradientTransform="translate(186 268.368) rotate(114.399) scale(53.2565 54.8228)">
<stop/>
<stop offset="1" stop-color="#333333"/>
</radialGradient>
<clipPath id="clip0_1_4836">
<rect width="747" height="600" fill="white" transform="translate(0.5 0.0683594)"/>
</clipPath>
</defs>
</svg>
