<svg width="121" height="22" viewBox="0 0 121 22" fill="none" xmlns="http://www.w3.org/2000/svg">
<path d="M4.83203 19.4699H21.168M21.168 19.4699H37.168M21.168 19.4699V0.666748M21.168 19.4699L32.4674 6.13654M21.168 19.4699L9.86853 6.13654" stroke="black" stroke-width="5"/>
<path d="M46.332 17.5684V3.01758H51.791C52.9108 3.01758 53.8483 3.21289 54.6035 3.60352C55.3652 3.99414 55.9414 4.54102 56.332 5.24414C56.7227 5.94076 56.918 6.7513 56.918 7.67578C56.918 8.60677 56.7194 9.41406 56.3223 10.0977C55.9316 10.7812 55.3522 11.3086 54.584 11.6797C53.8158 12.0508 52.8717 12.2363 51.752 12.2363H47.875V10.0586H51.3906C52.0482 10.0586 52.5853 9.96745 53.002 9.78516C53.4251 9.60286 53.7344 9.33594 53.9297 8.98438C54.1315 8.6263 54.2324 8.1901 54.2324 7.67578C54.2324 7.16146 54.1315 6.72201 53.9297 6.35742C53.7279 5.98633 53.4186 5.70638 53.002 5.51758C52.5853 5.32227 52.0449 5.22461 51.3809 5.22461H48.9688V17.5684H46.332ZM54.5059 17.5684L50.9805 10.9668H53.8516L57.4551 17.5684H54.5059ZM63.168 17.7832C62.0742 17.7832 61.1302 17.5553 60.3359 17.0996C59.5417 16.6374 58.9297 15.9863 58.5 15.1465C58.0768 14.3066 57.8652 13.3171 57.8652 12.1777C57.8652 11.0514 58.0768 10.0651 58.5 9.21875C58.9232 8.36589 59.5189 7.70182 60.2871 7.22656C61.0553 6.7513 61.9603 6.51367 63.002 6.51367C63.6725 6.51367 64.3073 6.62109 64.9062 6.83594C65.5117 7.05078 66.0456 7.38281 66.5078 7.83203C66.9766 8.28125 67.3444 8.85417 67.6113 9.55078C67.8783 10.2409 68.0117 11.0645 68.0117 12.0215V12.8223H59.0664V11.0938H66.7324L65.5312 11.6016C65.5312 10.9831 65.4368 10.446 65.248 9.99023C65.0592 9.52799 64.7793 9.16667 64.4082 8.90625C64.0371 8.64583 63.5749 8.51562 63.0215 8.51562C62.4681 8.51562 61.9961 8.64583 61.6055 8.90625C61.2148 9.16667 60.9186 9.51823 60.7168 9.96094C60.515 10.3971 60.4141 10.8854 60.4141 11.4258V12.627C60.4141 13.291 60.528 13.8607 60.7559 14.3359C60.9902 14.8047 61.3158 15.1628 61.7324 15.4102C62.1556 15.6576 62.6471 15.7812 63.207 15.7812C63.5716 15.7812 63.9036 15.7292 64.2031 15.625C64.5091 15.5208 64.7695 15.3646 64.9844 15.1562C65.2057 14.9414 65.375 14.6777 65.4922 14.3652L67.8945 14.6484C67.7383 15.2799 67.4486 15.8333 67.0254 16.3086C66.6087 16.7773 66.0716 17.1419 65.4141 17.4023C64.763 17.6562 64.0143 17.7832 63.168 17.7832ZM78.0215 9.55078L75.6875 9.79492C75.5898 9.43685 75.3783 9.12109 75.0527 8.84766C74.7272 8.56771 74.2682 8.42773 73.6758 8.42773C73.1419 8.42773 72.6927 8.54492 72.3281 8.7793C71.9701 9.01367 71.791 9.31315 71.791 9.67773C71.791 9.99674 71.9082 10.2604 72.1426 10.4688C72.3835 10.6706 72.7806 10.8333 73.334 10.957L75.1992 11.3477C76.2214 11.5625 76.9863 11.9141 77.4941 12.4023C78.002 12.8906 78.2559 13.5221 78.2559 14.2969C78.2559 14.9805 78.0573 15.5859 77.6602 16.1133C77.263 16.6406 76.7129 17.0508 76.0098 17.3438C75.3132 17.6367 74.5091 17.7832 73.5977 17.7832C72.263 17.7832 71.1888 17.5033 70.375 16.9434C69.5677 16.377 69.0827 15.5924 68.9199 14.5898L71.4297 14.3555C71.5404 14.8438 71.7812 15.2148 72.1523 15.4688C72.5299 15.7161 73.0117 15.8398 73.5977 15.8398C74.2096 15.8398 74.7012 15.7161 75.0723 15.4688C75.4434 15.2148 75.6289 14.9056 75.6289 14.541C75.6289 13.929 75.1406 13.5124 74.1641 13.291L72.2988 12.9004C71.2507 12.6725 70.4759 12.3047 69.9746 11.7969C69.4733 11.2826 69.2227 10.6283 69.2227 9.83398C69.2227 9.1569 69.4082 8.57096 69.7793 8.07617C70.1504 7.58138 70.668 7.19727 71.332 6.92383C71.9961 6.65039 72.7643 6.51367 73.6367 6.51367C74.9193 6.51367 75.9251 6.79036 76.6543 7.34375C77.39 7.89062 77.8457 8.6263 78.0215 9.55078ZM84.3984 17.7832C83.3307 17.7832 82.4062 17.5488 81.625 17.0801C80.8438 16.6113 80.2383 15.9538 79.8086 15.1074C79.3854 14.2611 79.1738 13.278 79.1738 12.1582C79.1738 11.0319 79.3854 10.0456 79.8086 9.19922C80.2383 8.34635 80.8438 7.68555 81.625 7.2168C82.4062 6.74805 83.3307 6.51367 84.3984 6.51367C85.4661 6.51367 86.3906 6.74805 87.1719 7.2168C87.9531 7.68555 88.5586 8.34635 88.9883 9.19922C89.418 10.0456 89.6328 11.0319 89.6328 12.1582C89.6328 13.278 89.418 14.2611 88.9883 15.1074C88.5586 15.9538 87.9531 16.6113 87.1719 17.0801C86.3906 17.5488 85.4661 17.7832 84.3984 17.7832ZM84.3984 15.7129C84.9909 15.7129 85.4792 15.5566 85.8633 15.2441C86.2474 14.9251 86.5339 14.4954 86.7227 13.9551C86.918 13.4147 87.0156 12.8158 87.0156 12.1582C87.0156 11.4876 86.918 10.8822 86.7227 10.3418C86.5339 9.80143 86.2474 9.375 85.8633 9.0625C85.4792 8.74349 84.9909 8.58398 84.3984 8.58398C83.819 8.58398 83.334 8.74349 82.9434 9.0625C82.5527 9.375 82.2598 9.80143 82.0645 10.3418C81.8757 10.8822 81.7812 11.4876 81.7812 12.1582C81.7812 12.8158 81.8757 13.4147 82.0645 13.9551C82.2598 14.4954 82.5527 14.9251 82.9434 15.2441C83.334 15.5566 83.819 15.7129 84.3984 15.7129ZM93.6172 3.01758V17.5684H91.0488V3.01758H93.6172ZM105.268 6.65039L101.381 17.5684H98.5293L94.6523 6.65039H97.3965L99.9258 14.7656H100.043L102.553 6.65039H105.268ZM110.766 17.7832C109.672 17.7832 108.728 17.5553 107.934 17.0996C107.139 16.6374 106.527 15.9863 106.098 15.1465C105.674 14.3066 105.463 13.3171 105.463 12.1777C105.463 11.0514 105.674 10.0651 106.098 9.21875C106.521 8.36589 107.117 7.70182 107.885 7.22656C108.653 6.7513 109.558 6.51367 110.6 6.51367C111.27 6.51367 111.905 6.62109 112.504 6.83594C113.109 7.05078 113.643 7.38281 114.105 7.83203C114.574 8.28125 114.942 8.85417 115.209 9.55078C115.476 10.2409 115.609 11.0645 115.609 12.0215V12.8223H106.664V11.0938H114.33L113.129 11.6016C113.129 10.9831 113.035 10.446 112.846 9.99023C112.657 9.52799 112.377 9.16667 112.006 8.90625C111.635 8.64583 111.173 8.51562 110.619 8.51562C110.066 8.51562 109.594 8.64583 109.203 8.90625C108.812 9.16667 108.516 9.51823 108.314 9.96094C108.113 10.3971 108.012 10.8854 108.012 11.4258V12.627C108.012 13.291 108.126 13.8607 108.354 14.3359C108.588 14.8047 108.913 15.1628 109.33 15.4102C109.753 15.6576 110.245 15.7812 110.805 15.7812C111.169 15.7812 111.501 15.7292 111.801 15.625C112.107 15.5208 112.367 15.3646 112.582 15.1562C112.803 14.9414 112.973 14.6777 113.09 14.3652L115.492 14.6484C115.336 15.2799 115.046 15.8333 114.623 16.3086C114.206 16.7773 113.669 17.1419 113.012 17.4023C112.361 17.6562 111.612 17.7832 110.766 17.7832Z" fill="black"/>
</svg>
